<?xml version="1.0" encoding="utf-8"?>
<!-- Generator: Adobe Illustrator 27.4.0, SVG Export Plug-In . SVG Version: 6.00 Build 0)  -->
<svg version="1.1" id="Calque_1" xmlns="http://www.w3.org/2000/svg" xmlns:xlink="http://www.w3.org/1999/xlink" x="0px" y="0px"
	 viewBox="0 0 26.6 26.6" style="enable-background:new 0 0 26.6 26.6;" xml:space="preserve">
<style type="text/css">
	.st0{fill-rule:evenodd;clip-rule:evenodd;fill:#FFFFFF;}
</style>
<g id="Page-1">
	<g id="Large-Copy-27" transform="translate(-1379.222437, -5252.047911)">
		<g id="Group-5-Copy-5" transform="translate(96.000000, 5029.284164)">
			<g id="Group-2" transform="translate(1140.000000, 222.208621)">
				<path id="Fill-1" class="st0" d="M166,4.5c-2.6-2.6-5.7-3.9-9.4-3.9s-6.8,1.3-9.4,3.9c-2.6,2.6-3.9,5.7-3.9,9.4
					c0,3.7,1.3,6.8,3.9,9.4c2.6,2.6,5.7,3.9,9.4,3.9s6.8-1.3,9.4-3.9c2.6-2.6,3.9-5.7,3.9-9.4C169.9,10.2,168.6,7.1,166,4.5z
					 M163.2,10.9c0,0.1,0.1,0.3,0.1,0.4c0,2.4-0.9,4.5-2.6,6.4c-1.7,1.9-4,2.9-6.8,2.9c-1.8,0-3.5-0.5-5-1.5c0.2,0,0.5,0.1,0.8,0.1
					c1.5,0,2.8-0.5,4.1-1.4c-0.7,0-1.4-0.3-1.9-0.7c-0.6-0.4-0.9-1-1.1-1.6c0.2,0,0.4,0.1,0.6,0.1c0.3,0,0.6,0,0.9-0.1
					c-0.8-0.2-1.4-0.6-1.9-1.1c-0.5-0.6-0.8-1.3-0.8-2.1v-0.1c0.5,0.3,1,0.4,1.5,0.4c-1-0.7-1.5-1.6-1.5-2.7c0-0.6,0.2-1.1,0.5-1.7
					c1.7,2.2,4,3.3,6.8,3.4c-0.1-0.2-0.1-0.5-0.1-0.8c0-0.9,0.3-1.7,1-2.3c0.6-0.6,1.4-1,2.3-1c1,0,1.8,0.3,2.4,1
					c0.8-0.1,1.5-0.4,2.1-0.8c-0.2,0.8-0.7,1.4-1.4,1.8c0.6-0.1,1.2-0.2,1.9-0.5C164.4,9.9,163.8,10.4,163.2,10.9z"/>
			</g>
		</g>
	</g>
</g>
</svg>
