<?xml version="1.0" encoding="utf-8"?>
<!-- Generator: Adobe Illustrator 27.4.0, SVG Export Plug-In . SVG Version: 6.00 Build 0)  -->
<svg version="1.1" id="Calque_1" xmlns="http://www.w3.org/2000/svg" xmlns:xlink="http://www.w3.org/1999/xlink" x="0px" y="0px"
	 viewBox="0 0 27.2 27.2" style="enable-background:new 0 0 27.2 27.2;" xml:space="preserve">
<style type="text/css">
	.st0{fill-rule:evenodd;clip-rule:evenodd;fill:#FFFFFF;}
	.st1{clip-path:url(#SVGID_00000003103284814823796150000014028847325960261045_);}
	.st2{clip-path:url(#SVGID_00000113349612991321241010000017348990879849489296_);}
	
		.st3{clip-path:url(#SVGID_00000011744188035697302980000006479263253067821989_);fill:none;stroke:#000000;stroke-width:0.5;stroke-miterlimit:10;}
	.st4{clip-path:url(#SVGID_00000063601960758987448530000006849410195252240270_);}
	.st5{clip-path:url(#SVGID_00000064341386887136483290000001691514953878168760_);}
	
		.st6{clip-path:url(#SVGID_00000055684764383601729100000009743873661893684390_);fill:none;stroke:#000000;stroke-width:0.5;stroke-miterlimit:10;}
	.st7{clip-path:url(#SVGID_00000004524689988467040250000007054563567766133928_);fill:#FFFFFF;}
</style>
<g id="Page-1">
	<g id="Large-Copy-27" transform="translate(-1330.926499, -5251.492786)">
		<g id="Group-5-Copy-5" transform="translate(96.000000, 5029.284164)">
			<g id="Group-2" transform="translate(1140.000000, 222.208621)">
				<g id="Group-16" transform="translate(94.926499, 0.000000)">
					<circle id="Oval" class="st0" cx="13.6" cy="13.6" r="13.6"/>
				</g>
			</g>
		</g>
	</g>
</g>
<g>
	<defs>
		<rect id="SVGID_1_" x="-791.9" y="-2715.4" width="1600" height="5494"/>
	</defs>
	<clipPath id="SVGID_00000031901061240673691890000013441726902628387230_">
		<use xlink:href="#SVGID_1_"  style="overflow:visible;"/>
	</clipPath>
	<g style="clip-path:url(#SVGID_00000031901061240673691890000013441726902628387230_);">
		<defs>
			<path id="SVGID_00000016056509789694440150000014224670566063649981_" d="M558.3,2545.2c0,0.3-0.1,0.6-0.3,0.8
				c-0.2,0.2-0.5,0.3-0.8,0.3s-0.6-0.1-0.8-0.3c-0.2-0.2-0.3-0.5-0.3-0.8c0-0.3,0.1-0.6,0.3-0.8c0.2-0.2,0.5-0.3,0.8-0.3
				s0.6,0.1,0.8,0.3C558.2,2544.6,558.3,2544.9,558.3,2545.2z M552.6,2552.5c-0.8,0-1.4-0.3-2-0.8c-0.5-0.5-0.8-1.2-0.8-2
				c0-0.8,0.3-1.4,0.8-2s1.2-0.8,2-0.8c0.8,0,1.4,0.3,2,0.8s0.8,1.2,0.8,2c0,0.8-0.3,1.4-0.8,2
				C554,2552.2,553.4,2552.5,552.6,2552.5z M552.6,2545.1c-0.6,0-1.2,0.1-1.8,0.4c-0.6,0.2-1.1,0.6-1.5,1c-0.4,0.4-0.7,0.9-1,1.5
				c-0.2,0.6-0.4,1.2-0.4,1.8c0,0.6,0.1,1.2,0.4,1.8c0.2,0.6,0.6,1,1,1.5c0.4,0.4,0.9,0.7,1.5,1c0.6,0.2,1.1,0.4,1.8,0.4
				c0.6,0,1.2-0.1,1.8-0.4c0.6-0.2,1-0.6,1.5-1s0.7-0.9,1-1.5c0.2-0.6,0.4-1.1,0.4-1.8c0-0.6-0.1-1.2-0.4-1.8c-0.2-0.6-0.6-1-1-1.5
				c-0.4-0.4-0.9-0.7-1.5-1C553.8,2545.2,553.2,2545.1,552.6,2545.1z M559.7,2553.3c0,1-0.3,1.8-1,2.5s-1.5,1-2.5,1H549
				c-1,0-1.8-0.3-2.5-1s-1-1.5-1-2.5v-7.2c0-1,0.3-1.8,1-2.5s1.5-1,2.5-1h7.2c1,0,1.8,0.3,2.5,1s1,1.5,1,2.5V2553.3z M556.2,2540.8
				H549c-0.7,0-1.4,0.1-2.1,0.4c-0.6,0.3-1.2,0.7-1.7,1.1c-0.5,0.5-0.9,1-1.1,1.7c-0.3,0.6-0.4,1.3-0.4,2v7.2c0,0.7,0.1,1.4,0.4,2
				c0.3,0.7,0.7,1.2,1.1,1.7c0.5,0.5,1,0.9,1.7,1.1c0.7,0.3,1.3,0.4,2.1,0.4h7.2c0.7,0,1.4-0.2,2.1-0.4c0.6-0.3,1.2-0.6,1.7-1.1
				c0.5-0.5,0.9-1,1.1-1.7c0.3-0.6,0.4-1.3,0.4-2v-7.2c0-0.7-0.1-1.4-0.4-2c-0.3-0.7-0.7-1.2-1.1-1.7c-0.5-0.5-1-0.8-1.7-1.1
				C557.6,2541,556.9,2540.8,556.2,2540.8z"/>
		</defs>
		<clipPath id="SVGID_00000039812094030145525540000013076686619188416185_">
			<use xlink:href="#SVGID_00000016056509789694440150000014224670566063649981_"  style="overflow:visible;"/>
		</clipPath>
		
			<rect x="542.7" y="2539.8" style="clip-path:url(#SVGID_00000039812094030145525540000013076686619188416185_);" width="19.7" height="19.7"/>
	</g>
</g>
<g>
	<defs>
		<rect id="SVGID_00000056422105404973581480000015212742027108444549_" x="-791.9" y="-2715.4" width="1600" height="5494"/>
	</defs>
	<clipPath id="SVGID_00000046340318217948641140000017944291495045684895_">
		<use xlink:href="#SVGID_00000056422105404973581480000015212742027108444549_"  style="overflow:visible;"/>
	</clipPath>
	
		<path style="clip-path:url(#SVGID_00000046340318217948641140000017944291495045684895_);fill:none;stroke:#000000;stroke-width:0.5;stroke-miterlimit:10;" d="
		M558.3,2545.2c0,0.3-0.1,0.6-0.3,0.8c-0.2,0.2-0.5,0.3-0.8,0.3s-0.6-0.1-0.8-0.3c-0.2-0.2-0.3-0.5-0.3-0.8c0-0.3,0.1-0.6,0.3-0.8
		c0.2-0.2,0.5-0.3,0.8-0.3s0.6,0.1,0.8,0.3C558.2,2544.6,558.3,2544.9,558.3,2545.2z M552.6,2552.5c-0.8,0-1.4-0.3-2-0.8
		c-0.5-0.5-0.8-1.2-0.8-2c0-0.8,0.3-1.4,0.8-2s1.2-0.8,2-0.8c0.8,0,1.4,0.3,2,0.8s0.8,1.2,0.8,2c0,0.8-0.3,1.4-0.8,2
		C554,2552.2,553.4,2552.5,552.6,2552.5z M552.6,2545.1c-0.6,0-1.2,0.1-1.8,0.4c-0.6,0.2-1.1,0.6-1.5,1c-0.4,0.4-0.7,0.9-1,1.5
		c-0.2,0.6-0.4,1.2-0.4,1.8c0,0.6,0.1,1.2,0.4,1.8c0.2,0.6,0.6,1,1,1.5c0.4,0.4,0.9,0.7,1.5,1c0.6,0.2,1.1,0.4,1.8,0.4
		c0.6,0,1.2-0.1,1.8-0.4c0.6-0.2,1-0.6,1.5-1s0.7-0.9,1-1.5c0.2-0.6,0.4-1.1,0.4-1.8c0-0.6-0.1-1.2-0.4-1.8c-0.2-0.6-0.6-1-1-1.5
		c-0.4-0.4-0.9-0.7-1.5-1C553.8,2545.2,553.2,2545.1,552.6,2545.1z M559.7,2553.3c0,1-0.3,1.8-1,2.5s-1.5,1-2.5,1H549
		c-1,0-1.8-0.3-2.5-1s-1-1.5-1-2.5v-7.2c0-1,0.3-1.8,1-2.5s1.5-1,2.5-1h7.2c1,0,1.8,0.3,2.5,1s1,1.5,1,2.5V2553.3z M556.2,2540.8
		H549c-0.7,0-1.4,0.1-2.1,0.4c-0.6,0.3-1.2,0.7-1.7,1.1c-0.5,0.5-0.9,1-1.1,1.7c-0.3,0.6-0.4,1.3-0.4,2v7.2c0,0.7,0.1,1.4,0.4,2
		c0.3,0.7,0.7,1.2,1.1,1.7c0.5,0.5,1,0.9,1.7,1.1c0.7,0.3,1.3,0.4,2.1,0.4h7.2c0.7,0,1.4-0.2,2.1-0.4c0.6-0.3,1.2-0.6,1.7-1.1
		c0.5-0.5,0.9-1,1.1-1.7c0.3-0.6,0.4-1.3,0.4-2v-7.2c0-0.7-0.1-1.4-0.4-2c-0.3-0.7-0.7-1.2-1.1-1.7c-0.5-0.5-1-0.8-1.7-1.1
		C557.6,2541,556.9,2540.8,556.2,2540.8z"/>
</g>
<g>
	<defs>
		<rect id="SVGID_00000004543026638205004520000013829067274561128354_" x="-968.5" y="-2745.3" width="1600" height="5494"/>
	</defs>
	<clipPath id="SVGID_00000156551499887895387550000003696626450307338411_">
		<use xlink:href="#SVGID_00000004543026638205004520000013829067274561128354_"  style="overflow:visible;"/>
	</clipPath>
	<g style="clip-path:url(#SVGID_00000156551499887895387550000003696626450307338411_);">
		<defs>
			<path id="SVGID_00000092446182260477492220000005044638481525344150_" d="M381.7,2515.2c0,0.3-0.1,0.6-0.3,0.8
				c-0.2,0.2-0.5,0.3-0.8,0.3s-0.6-0.1-0.8-0.3c-0.2-0.2-0.3-0.5-0.3-0.8s0.1-0.6,0.3-0.8c0.2-0.2,0.5-0.3,0.8-0.3s0.6,0.1,0.8,0.3
				C381.6,2514.7,381.7,2514.9,381.7,2515.2z M376,2522.6c-0.8,0-1.4-0.3-2-0.8s-0.8-1.2-0.8-2c0-0.8,0.3-1.4,0.8-2
				c0.5-0.5,1.2-0.8,2-0.8c0.8,0,1.4,0.3,2,0.8c0.5,0.5,0.8,1.2,0.8,2c0,0.8-0.3,1.4-0.8,2S376.8,2522.6,376,2522.6z M376,2515.2
				c-0.6,0-1.2,0.1-1.8,0.4c-0.6,0.2-1.1,0.6-1.5,1c-0.4,0.4-0.7,0.9-1,1.5c-0.2,0.6-0.4,1.2-0.4,1.8c0,0.6,0.1,1.2,0.4,1.8
				c0.2,0.6,0.6,1,1,1.5c0.4,0.4,0.9,0.7,1.5,1c0.6,0.2,1.1,0.4,1.8,0.4c0.6,0,1.2-0.1,1.8-0.4c0.6-0.2,1-0.6,1.5-1
				c0.4-0.4,0.7-0.9,1-1.5c0.2-0.6,0.4-1.1,0.4-1.8c0-0.6-0.1-1.2-0.4-1.8c-0.2-0.6-0.6-1-1-1.5c-0.4-0.4-0.9-0.7-1.5-1
				C377.3,2515.3,376.7,2515.2,376,2515.2z M383.1,2523.4c0,1-0.3,1.8-1,2.5s-1.5,1-2.5,1h-7.2c-1,0-1.8-0.3-2.5-1s-1-1.5-1-2.5
				v-7.2c0-1,0.3-1.8,1-2.5s1.5-1,2.5-1h7.2c1,0,1.8,0.3,2.5,1s1,1.5,1,2.5V2523.4z M379.6,2510.9h-7.2c-0.7,0-1.4,0.1-2.1,0.4
				c-0.6,0.3-1.2,0.7-1.7,1.1s-0.9,1-1.1,1.7c-0.3,0.6-0.4,1.3-0.4,2v7.2c0,0.7,0.1,1.4,0.4,2c0.3,0.7,0.7,1.2,1.1,1.7
				s1,0.9,1.7,1.1c0.7,0.3,1.3,0.4,2.1,0.4h7.2c0.7,0,1.4-0.2,2.1-0.4c0.6-0.3,1.2-0.6,1.7-1.1c0.5-0.5,0.9-1,1.1-1.7
				c0.3-0.6,0.4-1.3,0.4-2v-7.2c0-0.7-0.1-1.4-0.4-2c-0.3-0.7-0.7-1.2-1.1-1.7c-0.5-0.5-1-0.8-1.7-1.1
				C381,2511.1,380.3,2510.9,379.6,2510.9z"/>
		</defs>
		<clipPath id="SVGID_00000040540011072436651850000010189172892392303547_">
			<use xlink:href="#SVGID_00000092446182260477492220000005044638481525344150_"  style="overflow:visible;"/>
		</clipPath>
		
			<rect x="366.2" y="2509.9" style="clip-path:url(#SVGID_00000040540011072436651850000010189172892392303547_);" width="19.7" height="19.7"/>
	</g>
</g>
<g>
	<defs>
		<rect id="SVGID_00000111165036868660434420000004912843507583313581_" x="-968.5" y="-2745.3" width="1600" height="5494"/>
	</defs>
	<clipPath id="SVGID_00000149351660782728458460000012047062027966361533_">
		<use xlink:href="#SVGID_00000111165036868660434420000004912843507583313581_"  style="overflow:visible;"/>
	</clipPath>
	
		<path style="clip-path:url(#SVGID_00000149351660782728458460000012047062027966361533_);fill:none;stroke:#000000;stroke-width:0.5;stroke-miterlimit:10;" d="
		M381.7,2515.2c0,0.3-0.1,0.6-0.3,0.8c-0.2,0.2-0.5,0.3-0.8,0.3s-0.6-0.1-0.8-0.3c-0.2-0.2-0.3-0.5-0.3-0.8s0.1-0.6,0.3-0.8
		c0.2-0.2,0.5-0.3,0.8-0.3s0.6,0.1,0.8,0.3C381.6,2514.7,381.7,2514.9,381.7,2515.2z M376,2522.6c-0.8,0-1.4-0.3-2-0.8
		s-0.8-1.2-0.8-2c0-0.8,0.3-1.4,0.8-2c0.5-0.5,1.2-0.8,2-0.8c0.8,0,1.4,0.3,2,0.8c0.5,0.5,0.8,1.2,0.8,2c0,0.8-0.3,1.4-0.8,2
		S376.8,2522.6,376,2522.6z M376,2515.2c-0.6,0-1.2,0.1-1.8,0.4c-0.6,0.2-1.1,0.6-1.5,1c-0.4,0.4-0.7,0.9-1,1.5
		c-0.2,0.6-0.4,1.2-0.4,1.8c0,0.6,0.1,1.2,0.4,1.8c0.2,0.6,0.6,1,1,1.5c0.4,0.4,0.9,0.7,1.5,1c0.6,0.2,1.1,0.4,1.8,0.4
		c0.6,0,1.2-0.1,1.8-0.4c0.6-0.2,1-0.6,1.5-1c0.4-0.4,0.7-0.9,1-1.5c0.2-0.6,0.4-1.1,0.4-1.8c0-0.6-0.1-1.2-0.4-1.8
		c-0.2-0.6-0.6-1-1-1.5c-0.4-0.4-0.9-0.7-1.5-1C377.3,2515.3,376.7,2515.2,376,2515.2z M383.1,2523.4c0,1-0.3,1.8-1,2.5
		s-1.5,1-2.5,1h-7.2c-1,0-1.8-0.3-2.5-1s-1-1.5-1-2.5v-7.2c0-1,0.3-1.8,1-2.5s1.5-1,2.5-1h7.2c1,0,1.8,0.3,2.5,1s1,1.5,1,2.5V2523.4
		z M379.6,2510.9h-7.2c-0.7,0-1.4,0.1-2.1,0.4c-0.6,0.3-1.2,0.7-1.7,1.1s-0.9,1-1.1,1.7c-0.3,0.6-0.4,1.3-0.4,2v7.2
		c0,0.7,0.1,1.4,0.4,2c0.3,0.7,0.7,1.2,1.1,1.7s1,0.9,1.7,1.1c0.7,0.3,1.3,0.4,2.1,0.4h7.2c0.7,0,1.4-0.2,2.1-0.4
		c0.6-0.3,1.2-0.6,1.7-1.1c0.5-0.5,0.9-1,1.1-1.7c0.3-0.6,0.4-1.3,0.4-2v-7.2c0-0.7-0.1-1.4-0.4-2c-0.3-0.7-0.7-1.2-1.1-1.7
		c-0.5-0.5-1-0.8-1.7-1.1S380.3,2510.9,379.6,2510.9z"/>
</g>
<g>
	<defs>
		<path id="SVGID_00000121247047962830525500000011386757854566759844_" d="M19.3,9c0,0.3-0.1,0.6-0.3,0.8c-0.2,0.2-0.5,0.3-0.8,0.3
			c-0.3,0-0.6-0.1-0.8-0.3c-0.2-0.2-0.3-0.5-0.3-0.8s0.1-0.6,0.3-0.8c0.2-0.2,0.5-0.3,0.8-0.3c0.3,0,0.6,0.1,0.8,0.3
			C19.2,8.5,19.3,8.7,19.3,9z M13.6,16.4c-0.8,0-1.4-0.3-2-0.8c-0.5-0.5-0.8-1.2-0.8-2c0-0.8,0.3-1.4,0.8-2s1.2-0.8,2-0.8
			c0.8,0,1.4,0.3,2,0.8c0.5,0.5,0.8,1.2,0.8,2c0,0.8-0.3,1.4-0.8,2C15,16.1,14.4,16.4,13.6,16.4z M13.6,9c-0.6,0-1.2,0.1-1.8,0.4
			c-0.6,0.2-1.1,0.6-1.5,1c-0.4,0.4-0.7,0.9-1,1.5C9.1,12.4,9,13,9,13.6c0,0.6,0.1,1.2,0.4,1.8c0.2,0.6,0.6,1,1,1.5
			c0.4,0.4,0.9,0.7,1.5,1c0.6,0.2,1.1,0.4,1.8,0.4c0.6,0,1.2-0.1,1.8-0.4c0.6-0.2,1-0.6,1.5-1c0.4-0.4,0.7-0.9,1-1.5
			c0.2-0.6,0.4-1.1,0.4-1.8c0-0.6-0.1-1.2-0.4-1.8c-0.2-0.6-0.6-1-1-1.5c-0.4-0.4-0.9-0.7-1.5-1C14.8,9.1,14.2,9,13.6,9z M20.7,17.2
			c0,1-0.3,1.8-1,2.5s-1.5,1-2.5,1H10c-1,0-1.8-0.3-2.5-1s-1-1.5-1-2.5V10c0-1,0.3-1.8,1-2.5c0.7-0.7,1.5-1,2.5-1h7.2
			c1,0,1.8,0.3,2.5,1c0.7,0.7,1,1.5,1,2.5V17.2z M17.2,4.7H10C9.3,4.7,8.6,4.9,8,5.1C7.3,5.4,6.8,5.8,6.3,6.3C5.8,6.8,5.4,7.3,5.1,8
			c-0.3,0.6-0.4,1.3-0.4,2v7.2c0,0.7,0.1,1.4,0.4,2c0.3,0.7,0.7,1.2,1.1,1.7s1,0.9,1.7,1.1c0.7,0.3,1.3,0.4,2.1,0.4h7.2
			c0.7,0,1.4-0.2,2.1-0.4c0.6-0.3,1.2-0.6,1.7-1.1c0.5-0.5,0.9-1,1.1-1.7c0.3-0.6,0.4-1.3,0.4-2V10c0-0.7-0.1-1.4-0.4-2
			c-0.3-0.7-0.7-1.2-1.1-1.7c-0.5-0.5-1-0.8-1.7-1.1C18.6,4.9,17.9,4.7,17.2,4.7z"/>
	</defs>
	
		<use xlink:href="#SVGID_00000121247047962830525500000011386757854566759844_"  style="overflow:visible;fill-rule:evenodd;clip-rule:evenodd;fill:#FFFFFF;"/>
	<clipPath id="SVGID_00000046327692775997865240000009205589886032031637_">
		<use xlink:href="#SVGID_00000121247047962830525500000011386757854566759844_"  style="overflow:visible;"/>
	</clipPath>
	
		<rect x="3.7" y="3.7" style="clip-path:url(#SVGID_00000046327692775997865240000009205589886032031637_);fill:#FFFFFF;" width="19.7" height="19.7"/>
</g>
<path d="M19.3,9c0,0.3-0.1,0.6-0.3,0.8c-0.2,0.2-0.5,0.3-0.8,0.3c-0.3,0-0.6-0.1-0.8-0.3c-0.2-0.2-0.3-0.5-0.3-0.8
	c0-0.3,0.1-0.6,0.3-0.8c0.2-0.2,0.5-0.3,0.8-0.3c0.3,0,0.6,0.1,0.8,0.3C19.2,8.5,19.3,8.7,19.3,9z M13.6,16.4c-0.8,0-1.4-0.3-2-0.8
	c-0.5-0.5-0.8-1.2-0.8-2c0-0.8,0.3-1.4,0.8-2c0.5-0.5,1.2-0.8,2-0.8c0.8,0,1.4,0.3,2,0.8c0.5,0.5,0.8,1.2,0.8,2c0,0.8-0.3,1.4-0.8,2
	C15,16.1,14.4,16.4,13.6,16.4z M13.6,9c-0.6,0-1.2,0.1-1.8,0.4c-0.6,0.2-1.1,0.6-1.5,1c-0.4,0.4-0.7,0.9-1,1.5C9.1,12.4,9,13,9,13.6
	c0,0.6,0.1,1.2,0.4,1.8c0.2,0.6,0.6,1,1,1.5c0.4,0.4,0.9,0.7,1.5,1c0.6,0.2,1.1,0.4,1.8,0.4c0.6,0,1.2-0.1,1.8-0.4
	c0.6-0.2,1-0.6,1.5-1c0.4-0.4,0.7-0.9,1-1.5c0.2-0.6,0.4-1.1,0.4-1.8c0-0.6-0.1-1.2-0.4-1.8c-0.2-0.6-0.6-1-1-1.5
	c-0.4-0.4-0.9-0.7-1.5-1C14.8,9.1,14.2,9,13.6,9z M20.7,17.2c0,1-0.3,1.8-1,2.5c-0.7,0.7-1.5,1-2.5,1H10c-1,0-1.8-0.3-2.5-1
	c-0.7-0.7-1-1.5-1-2.5V10c0-1,0.3-1.8,1-2.5c0.7-0.7,1.5-1,2.5-1h7.2c1,0,1.8,0.3,2.5,1c0.7,0.7,1,1.5,1,2.5V17.2z M17.2,4.7H10
	C9.3,4.7,8.6,4.9,8,5.1C7.3,5.4,6.8,5.8,6.3,6.3C5.8,6.8,5.4,7.3,5.1,8c-0.3,0.6-0.4,1.3-0.4,2v7.2c0,0.7,0.1,1.4,0.4,2
	c0.3,0.7,0.7,1.2,1.1,1.7c0.5,0.5,1,0.9,1.7,1.1c0.7,0.3,1.3,0.4,2.1,0.4h7.2c0.7,0,1.4-0.2,2.1-0.4c0.6-0.3,1.2-0.6,1.7-1.1
	c0.5-0.5,0.9-1,1.1-1.7c0.3-0.6,0.4-1.3,0.4-2V10c0-0.7-0.1-1.4-0.4-2c-0.3-0.7-0.7-1.2-1.1-1.7c-0.5-0.5-1-0.8-1.7-1.1
	C18.6,4.9,17.9,4.7,17.2,4.7z"/>
</svg>
