<?xml version="1.0" encoding="UTF-8"?>
<svg width="26.6460348px" height="26.6460348px" viewBox="0 0 26.6460348 26.6460348" version="1.1" xmlns="http://www.w3.org/2000/svg" xmlns:xlink="http://www.w3.org/1999/xlink">
    <title>Fill 1 2</title>
    <g id="Page-1" stroke="none" stroke-width="1" fill="none" fill-rule="evenodd">
        <g id="Large-Copy-27" transform="translate(-1283.740812, -5252.047911)" fill="#FFFFFF">
            <g id="Group-5-Copy-5" transform="translate(96.000000, 5029.284164)">
                <g id="Group-2" transform="translate(1140.000000, 222.208621)">
                    <path d="M70.483625,4.45834793 C67.8814509,1.85618499 64.7415599,0.555125725 61.0638298,0.555125725 C57.386103,0.555125725 54.2462053,1.85618499 51.6440401,4.45834793 C49.041875,7.06052197 47.7408124,10.200413 47.7408124,13.8781431 C47.7408124,17.5558699 49.041875,20.6957676 51.6440401,23.2979328 C54.2462053,25.9000979 57.386103,27.2011605 61.0638298,27.2011605 C64.7415599,27.2011605 67.8814509,25.9000979 70.483625,23.2979328 C73.0857879,20.6957676 74.3868472,17.5558699 74.3868472,13.8781431 C74.3868472,10.200413 73.0857879,7.06052197 70.483625,4.45834793 Z M57.7330754,20.3314797 L54.4023211,20.3314797 L54.4023211,8.67383946 L57.7330754,8.67383946 L57.7330754,20.3314797 Z M57.2646881,7.52889265 C56.9524288,7.80645551 56.5881308,7.94523694 56.1717843,7.94523694 C55.7554378,7.94523694 55.3911399,7.79778445 55.0788806,7.50286836 C54.7666212,7.20796337 54.6104932,6.84365656 54.6104932,6.40997014 C54.6104932,5.97627261 54.7666212,5.60330584 55.0788806,5.29103652 C55.3911399,4.9787783 55.7554378,4.82265474 56.1717843,4.82265474 C56.5881308,4.82265474 56.9524288,4.9787783 57.2646881,5.29103652 C57.5769474,5.60330584 57.7330754,5.97627261 57.7330754,6.40997014 C57.7330754,6.84365656 57.5769474,7.21663443 57.2646881,7.52889265 Z M69.3907157,20.3314797 L66.0599613,20.3314797 L66.0599613,13.1495406 C66.0599613,12.1780706 65.6262749,11.6923356 64.7588798,11.6923356 C64.2731448,11.6923356 63.8568116,11.8137638 63.509847,12.0566424 C63.1628934,12.2995099 62.9547323,12.5423663 62.8853305,12.7852338 L62.729207,13.1495406 L62.729207,20.3314797 L59.3984526,20.3314797 L59.3984526,8.67383946 L62.729207,8.67383946 L62.729207,9.76674878 C63.700677,9.03813516 64.8109173,8.67383946 66.0599613,8.67383946 C66.8579545,8.67383946 67.6125703,9.00343981 68.3238306,9.66265161 C69.035091,10.3218745 69.3907157,11.5015056 69.3907157,13.2015781 L69.3907157,20.3314797 Z" id="Fill-1"></path>
                </g>
            </g>
        </g>
    </g>
</svg>