<?xml version="1.0" encoding="UTF-8"?>
<svg width="45.4px" height="62.7px" viewBox="0 0 45.4 62.7" version="1.1" xmlns="http://www.w3.org/2000/svg" xmlns:xlink="http://www.w3.org/1999/xlink">
    <title>curseur</title>
    <g id="Page-1" stroke="none" stroke-width="1" fill="none" fill-rule="evenodd">
        <g id="curseur" fill="#000000" fill-rule="nonzero">
            <path d="M10.3,10.5 C10.4,9.3 10.4,8.2 10.5,6.9 C9.2,6.9 8.1,6.9 7,6.9 C7,5.8 7,4.7 7,3.4 C5.8,3.4 4.7,3.4 3.5,3.4 C3.5,2.2 3.5,1.1 3.5,3.55271368e-15 C2.3,3.55271368e-15 1.2,3.55271368e-15 0.2,3.55271368e-15 C0.2,20.9 0.2,41.8 0.2,62.7 C1.4,62.7 2.4,62.7 3.6,62.7 C3.6,61.5 3.6,60.4 3.6,59.2 C4.8,59.2 5.9,59.2 7.1,59.2 C7.1,58 7.1,56.9 7.1,55.8 C8.2,55.8 9.4,55.8 10.6,55.8 C10.6,54.5 10.6,53.5 10.6,52.2 C11.8,52.2 12.9,52.2 14,52.2 C14,51 14,49.9 14,48.8 C15.1,48.8 16.3,48.8 17.6,48.8 C17.6,47.5 17.6,46.3 17.6,45.2 C17.8,45.2 17.9,45.2 18.1,45.2 C26.9,45.2 35.8,45.2 44.6,45.2 C44.9,45.2 45.1,45.1 45.4,45.1 C45.4,44 45.4,42.9 45.4,41.7 C44.3,41.7 43.2,41.7 42,41.7 C42,40.5 42,39.4 42,38.2 C40.7,38.2 39.6,38.2 38.5,38.2 C38.5,37.1 38.5,36 38.5,34.7 C37.3,34.7 36.2,34.7 35,34.7 C35,33.5 35,32.4 35,31.3 C33.8,31.3 32.7,31.3 31.6,31.3 C31.6,30.2 31.6,29 31.6,27.7 C30.3,27.7 29.1,27.7 28,27.7 C28,26.6 28,25.5 28,24.3 C26.8,24.3 25.7,24.3 24.7,24.3 C24.7,23.2 24.7,22 24.7,20.7 C23.4,20.7 22.2,20.7 21.1,20.7 C21.1,19.6 21.1,18.5 21.1,17.3 C19.9,17.3 18.8,17.3 17.8,17.3 C17.8,16.1 17.8,15 17.8,13.7 C16.4,13.7 15.3,13.7 14.2,13.7 C14.2,12.6 14.2,11.4 14.2,10.4 C12.5,10.5 11.4,10.5 10.3,10.5 Z" id="Path"></path>
            <path d="M6.9,55.8 C6.9,56.9 6.9,58 6.9,59.2 C5.7,59.2 4.7,59.2 3.4,59.2 C3.4,60.4 3.4,61.5 3.4,62.7 C2.2,62.7 1.1,62.7 -1.77635684e-15,62.7 C-1.77635684e-15,41.8 -1.77635684e-15,21 -1.77635684e-15,7.10542736e-15 C1.1,7.10542736e-15 2.1,7.10542736e-15 3.3,7.10542736e-15 C3.3,1.1 3.3,2.2 3.3,3.4 C4.6,3.4 5.6,3.4 6.8,3.4 C6.8,4.7 6.8,5.8 6.8,6.9 L6.8,6.9 C5.7,6.9 4.5,6.9 3.4,6.9 C3.4,23.3 3.4,39.5 3.4,55.9 C4.7,55.8 5.8,55.8 6.9,55.8 L6.9,55.8 Z" id="Path"></path>
            <path d="M38.3,38.3 C39.4,38.3 40.5,38.3 41.8,38.3 C41.8,39.5 41.8,40.6 41.8,41.8 C43,41.8 44.1,41.8 45.2,41.8 C45.2,43 45.2,44 45.2,45.2 C44.9,45.2 44.7,45.3 44.4,45.3 C35.6,45.3 26.7,45.3 17.9,45.3 C17.7,45.3 17.6,45.3 17.4,45.3 L17.4,45.3 C17.4,44.2 17.4,43.1 17.4,41.8 C24.3,41.8 31.3,41.8 38.3,41.8 C38.4,40.5 38.4,39.4 38.3,38.3 L38.3,38.3 Z" id="Path"></path>
            <path d="M31.4,31.4 C32.5,31.4 33.6,31.4 34.8,31.4 C34.8,32.6 34.8,33.6 34.8,34.8 C36,34.8 37.1,34.8 38.3,34.8 C38.3,36.1 38.3,37.2 38.3,38.3 L38.3,38.3 C37.2,38.3 36,38.3 34.8,38.3 C34.8,37.1 34.8,36.1 34.8,34.8 C33.6,34.8 32.5,34.8 31.4,34.8 C31.4,33.6 31.4,32.5 31.4,31.4 L31.4,31.4 Z" id="Path"></path>
            <path d="M13.9,48.9 C13.9,50 13.9,51 13.9,52.3 C12.8,52.3 11.7,52.3 10.5,52.3 C10.5,53.5 10.5,54.6 10.5,55.9 C9.2,55.9 8.1,55.9 7,55.9 L7,55.9 C7,54.8 7,53.6 7,52.3 C8.2,52.3 9.3,52.3 10.5,52.3 C10.5,51.1 10.5,50 10.5,48.9 C11.7,48.9 12.8,48.9 13.9,48.9 L13.9,48.9 Z" id="Path"></path>
            <path d="M13.9,13.9 C15,13.9 16.1,13.9 17.5,13.9 C17.5,15.1 17.5,16.3 17.5,17.5 L17.5,17.5 C16.3,17.5 15.2,17.5 13.9,17.5 C13.9,16.1 13.9,15 13.9,13.9 L13.9,13.9 Z" id="Path"></path>
            <path d="M27.8,27.8 C28.9,27.8 30.1,27.8 31.4,27.8 C31.4,29.1 31.4,30.3 31.4,31.4 C31.4,31.4 31.4,31.4 31.4,31.4 C30.2,31.4 29.1,31.4 27.8,31.4 C27.8,30 27.8,28.9 27.8,27.8 L27.8,27.8 Z" id="Path"></path>
            <path d="M20.8,20.8 C21.9,20.8 23.1,20.8 24.4,20.8 C24.4,22.1 24.4,23.3 24.4,24.4 L24.4,24.4 C23.2,24.4 22.1,24.4 20.8,24.4 C20.9,23.1 20.9,21.9 20.8,20.8 L20.8,20.8 Z" id="Path"></path>
            <path d="M17.5,45.2 C17.5,46.3 17.5,47.5 17.5,48.8 C16.2,48.8 15,48.8 13.9,48.8 C13.9,48.8 13.9,48.8 13.9,48.8 C13.9,47.6 13.9,46.5 13.9,45.2 C15.2,45.3 16.4,45.3 17.5,45.2 L17.5,45.2 Z" id="Path"></path>
            <path d="M6.9,6.9 C8,6.9 9.1,6.9 10.4,6.9 C10.3,8.2 10.3,9.3 10.2,10.5 L10.2,10.4 C9.1,10.4 8,10.4 6.8,10.4 C7,9.1 7,8 6.9,6.9 L6.9,6.9 Z" id="Path"></path>
            <path d="M10.3,10.5 C11.4,10.5 12.6,10.5 13.9,10.5 C13.9,11.6 13.9,12.7 13.9,13.8 L13.9,13.8 C12.8,13.8 11.6,13.8 10.5,13.8 C10.4,12.7 10.4,11.6 10.3,10.5 L10.3,10.5 Z" id="Path"></path>
            <path d="M24.4,24.4 C25.5,24.4 26.6,24.4 27.7,24.4 C27.7,25.6 27.7,26.7 27.7,27.8 C27.7,27.8 27.7,27.8 27.7,27.8 C26.6,27.8 25.5,27.8 24.3,27.8 C24.5,26.6 24.5,25.5 24.4,24.4 L24.4,24.4 Z" id="Path"></path>
            <path d="M17.5,17.5 C18.6,17.5 19.6,17.5 20.8,17.5 C20.8,18.6 20.8,19.7 20.8,20.9 C20.8,20.9 20.8,20.9 20.8,20.9 C19.7,20.9 18.6,20.9 17.4,20.9 C17.5,19.6 17.5,18.5 17.5,17.5 L17.5,17.5 Z" id="Path"></path>
            <path d="M17.5,17.4 C17.5,18.5 17.5,19.6 17.5,20.8 C18.7,20.8 19.8,20.8 20.9,20.8 C20.9,21.9 20.9,23.1 20.9,24.4 C22.2,24.4 23.3,24.4 24.5,24.4 C24.5,25.5 24.5,26.6 24.5,27.8 C25.6,27.8 26.7,27.8 27.9,27.8 C27.9,28.9 27.9,30.1 27.9,31.4 C29.2,31.4 30.3,31.4 31.5,31.4 C31.5,32.5 31.5,33.6 31.5,34.9 C32.6,34.9 33.7,34.9 34.9,34.9 C34.9,36.1 34.9,37.2 34.9,38.4 C36.2,38.4 37.3,38.4 38.4,38.4 C38.4,39.5 38.4,40.6 38.4,41.9 C31.4,41.9 24.5,41.9 17.5,41.9 C17.5,43.2 17.5,44.3 17.5,45.4 C16.4,45.4 15.2,45.4 13.9,45.4 C13.9,46.7 13.9,47.8 13.9,49 C12.8,49 11.7,49 10.4,49 C10.4,50.1 10.4,51.2 10.4,52.4 C9.2,52.4 8.1,52.4 6.9,52.4 C6.9,53.7 6.9,54.8 6.9,56 C5.8,56 4.7,56 3.5,56 C3.5,39.7 3.5,23.5 3.5,7 C4.7,7 5.8,7 6.9,7 C6.9,8.1 6.9,9.3 6.9,10.6 C8.1,10.6 9.2,10.6 10.3,10.6 C10.4,11.7 10.4,12.8 10.5,14 C11.7,14 12.8,14 13.9,14 C13.9,15.1 13.9,16.3 13.9,17.6 C15.2,17.4 16.3,17.4 17.5,17.4 Z" id="Path"></path>
        </g>
    </g>
</svg>