<?xml version="1.0" encoding="UTF-8"?>
<svg width="73.7px" height="72.8049383px" viewBox="0 0 73.7 72.8049383" version="1.1" xmlns="http://www.w3.org/2000/svg" xmlns:xlink="http://www.w3.org/1999/xlink">
    <title>etat_de_fribourg</title>
    <g id="Page-1" stroke="none" stroke-width="1" fill="none" fill-rule="evenodd">
        <g id="etat_de_fribourg" fill="#FFFFFF" fill-rule="nonzero">
            <path d="M0.4,34.8049383 L0.4,36.3049383 C4.8,35.2049383 9.5,32.5049383 12.1,30.1049383 C13.8,28.5049383 15.3,26.6049383 16.5,24.4049383 C16.5,24.4049383 16.6,24.3049383 16.6,24.2049383 C17.7,22.2049383 18.5,19.8049383 19.1,17.0049383 C20.7,9.30493827 18.3,1.60493827 17.8,0.604938272 C17.2,-0.0950617284 16.4,0.0049382716 15.8,0.0049382716 C15.7,0.0049382716 15.5,0.0049382716 15.4,0.0049382716 L0.4,0.0049382716 L0.4,17.6049383 L11.9,17.6049383 C12,17.6049383 12.2,17.6049383 12.2,17.6049383 C12.6,17.7049383 12.9,17.9049383 12.9,18.3049383 C12.9,18.4049383 12.9,18.5049383 12.9,18.6049383 C12.9,22.1049383 11.2,29.0049383 1.3,33.4049383 L0.4,33.8049383 C0.4,33.8049383 0.4,34.8049383 0.4,34.8049383 Z" id="Path"></path>
            <g id="Group" transform="translate(0.000000, 44.604938)">
                <polygon id="Path" points="0.4 0.1 4.3 0.1 4.3 0.7 1.2 0.7 1.2 2.5 4.1 2.5 4.1 3.1 1.2 3.1 1.2 5 4.3 5 4.3 5.6 0.4 5.6"></polygon>
                <polygon id="Path" points="6.6 0.7 4.8 0.7 4.8 0.1 9.3 0.1 9.3 0.7 7.4 0.7 7.4 5.7 6.6 5.7"></polygon>
                <path d="M10.8,0.1 L11.6,0.1 L13.8,5.7 L13,5.7 L12.4,4 L10,4 L9.4,5.7 L8.6,5.7 L10.8,0.1 Z M10.2,3.4 L12.1,3.4 L11.2,0.8 L11.2,0.8 L10.2,3.4 Z" id="Shape"></path>
                <polygon id="Path" points="15.1 0.7 13.2 0.7 13.2 0.1 17.7 0.1 17.7 0.7 15.8 0.7 15.8 5.7 15.1 5.7"></polygon>
                <path d="M20.8,0.1 L22.7,0.1 C24.4,0.1 25.4,1 25.4,2.8 C25.4,4.7 24.6,5.7 22.7,5.7 L20.8,5.7 L20.8,0.1 Z M21.5,5.1 L22.7,5.1 C23.2,5.1 24.6,5 24.6,2.9 C24.6,1.6 24.1,0.8 22.7,0.8 L21.4,0.8 L21.5,5.1 L21.5,5.1 Z" id="Shape"></path>
                <path d="M26.4,0.1 L30.3,0.1 L30.3,0.7 L27.2,0.7 L27.2,2.5 L30.1,2.5 L30.1,3.1 L27.2,3.1 L27.2,5 L30.3,5 L30.3,5.6 L26.4,5.6 C26.4,5.6 26.4,0.1 26.4,0.1 Z" id="Path"></path>
                <polygon id="Path" points="33.7 0.1 37.4 0.1 37.4 0.7 34.5 0.7 34.5 2.5 37.1 2.5 37.1 3.1 34.5 3.1 34.5 5.7 33.8 5.7"></polygon>
                <path d="M38.3,0.1 L40.9,0.1 C41.9,0.1 42.6,0.7 42.6,1.6 C42.6,2.3 42.3,2.8 41.6,3 L41.6,3 C42.3,3.1 42.4,3.6 42.4,4.2 C42.4,4.7 42.4,5.4 42.7,5.7 L41.9,5.7 C41.7,5.5 41.8,4.9 41.7,4.3 C41.6,3.8 41.5,3.3 40.8,3.3 L39.1,3.3 L39.1,5.7 L38.4,5.7 L38.3,0.1 L38.3,0.1 Z M40.6,2.7 C41.3,2.7 41.9,2.5 41.9,1.7 C41.9,1.2 41.6,0.7 40.9,0.7 L39.1,0.7 L39.1,2.6 L40.6,2.7 L40.6,2.7 Z" id="Shape"></path>
                <polygon id="Path" points="43.9 0.1 44.6 0.1 44.6 5.7 43.9 5.7"></polygon>
                <path d="M46,0.1 L48,0.1 C48.5,0.1 49.1,0.1 49.5,0.3 C49.9,0.5 50.2,0.9 50.2,1.5 C50.2,2.1 49.9,2.5 49.4,2.8 L49.4,2.8 C50.1,2.9 50.5,3.5 50.5,4.1 C50.5,4.9 49.9,5.7 48.8,5.7 L46.1,5.7 L46,0.1 L46,0.1 Z M46.8,2.5 L48.3,2.5 C49.1,2.5 49.5,2.2 49.5,1.6 C49.5,0.8 49,0.7 48.3,0.7 L46.8,0.7 L46.8,2.5 Z M46.8,5.1 L48.7,5.1 C49.3,5.1 49.7,4.7 49.7,4.1 C49.7,3.4 49.1,3.2 48.5,3.2 L46.8,3.2 L46.8,5.1 L46.8,5.1 Z" id="Shape"></path>
                <path d="M53.9,-7.10542736e-15 C55.7,-7.10542736e-15 56.6,1.4 56.6,2.9 C56.6,4.4 55.7,5.8 53.9,5.8 C52.1,5.8 51.2,4.4 51.2,2.9 C51.2,1.4 52.1,-7.10542736e-15 53.9,-7.10542736e-15 Z M53.9,5.2 C55.3,5.2 55.8,4 55.8,2.9 C55.8,1.8 55.2,0.6 53.9,0.6 C52.5,0.6 52,1.8 52,2.9 C52,4 52.5,5.2 53.9,5.2 Z" id="Shape"></path>
                <path d="M62.1,3.7 C62.1,5.1 61.3,5.9 59.9,5.9 C58.5,5.9 57.6,5.2 57.6,3.7 L57.6,0.1 L58.3,0.1 L58.3,3.7 C58.3,4.7 58.9,5.2 59.8,5.2 C60.7,5.2 61.3,4.7 61.3,3.7 L61.3,0.1 L62.1,0.1 L62.1,3.7 Z" id="Path"></path>
                <path d="M63.4,0.1 L66.1,0.1 C67.1,0.1 67.8,0.7 67.8,1.6 C67.8,2.3 67.5,2.8 66.8,3 L66.8,3 C67.5,3.1 67.6,3.6 67.6,4.2 C67.6,4.7 67.6,5.4 67.9,5.7 L67.1,5.7 C66.9,5.5 67,4.9 66.9,4.3 C66.8,3.8 66.7,3.3 66,3.3 L64.2,3.3 L64.2,5.7 L63.5,5.7 L63.4,0.1 L63.4,0.1 Z M65.7,2.7 C66.4,2.7 67,2.5 67,1.7 C67,1.2 66.7,0.7 66,0.7 L64.2,0.7 L64.2,2.6 L65.7,2.7 L65.7,2.7 Z" id="Shape"></path>
                <path d="M73.1,5 C72.7,5.6 72,5.8 71.3,5.8 C69.6,5.8 68.6,4.4 68.6,3 C68.6,1.4 69.5,-7.10542736e-15 71.3,-7.10542736e-15 C72.5,-7.10542736e-15 73.5,0.5 73.7,1.9 L73,1.9 C72.9,1.1 72.2,0.7 71.3,0.7 C69.9,0.7 69.4,1.9 69.4,3.1 C69.4,4.3 70.1,5.3 71.3,5.3 C72.5,5.3 73.1,4.5 73.1,3.5 L71.3,3.5 L71.3,2.9 L73.7,2.9 L73.7,5.8 L73.2,5.8 L73.1,5 Z" id="Path"></path>
                <path d="M3.6,12.9 C3.5,12.1 3,11.8 2.2,11.8 C1.6,11.8 0.9,12 0.9,12.8 C0.9,13.5 1.8,13.6 2.7,13.8 C3.6,14 4.5,14.3 4.5,15.4 C4.5,16.6 3.3,17.1 2.3,17.1 C1,17.1 1.77635684e-15,16.5 1.77635684e-15,15.1 L0.7,15.1 C0.7,16 1.5,16.4 2.3,16.4 C3,16.4 3.7,16.2 3.7,15.4 C3.7,14.6 2.8,14.5 1.9,14.3 C1,14.1 0.1,13.8 0.1,12.8 C0.1,11.7 1.1,11.2 2.1,11.2 C3.2,11.2 4.1,11.7 4.2,13 L3.6,13 L3.6,12.9 Z" id="Path"></path>
                <polygon id="Path" points="6.6 11.9 4.7 11.9 4.7 11.3 9.2 11.3 9.2 11.9 7.3 11.9 7.3 16.9 6.6 16.9"></polygon>
                <path d="M10.8,11.3 L11.6,11.3 L13.8,16.9 L13,16.9 L12.4,15.2 L10,15.2 L9.4,16.9 L8.6,16.9 L10.8,11.3 Z M10.2,14.6 L12.1,14.6 L11.2,12 L11.2,12 L10.2,14.6 Z" id="Shape"></path>
                <path d="M16,11.3 L16.8,11.3 L19,16.9 L18.2,16.9 L17.6,15.2 L15.2,15.2 L14.6,16.9 L13.8,16.9 L16,11.3 Z M15.4,14.6 L17.3,14.6 L16.4,12 L16.4,12 L15.4,14.6 Z" id="Shape"></path>
                <polygon id="Path" points="20.3 11.9 18.4 11.9 18.4 11.3 22.9 11.3 22.9 11.9 21 11.9 21 16.9 20.3 16.9 20.3 11.9"></polygon>
                <polygon id="Path" points="26 11.3 29.7 11.3 29.7 11.9 26.8 11.9 26.8 13.7 29.4 13.7 29.4 14.3 26.8 14.3 26.8 16.9 26.1 16.9 26.1 11.3"></polygon>
                <path d="M30.6,11.3 L33.2,11.3 C34.2,11.3 34.9,11.9 34.9,12.8 C34.9,13.5 34.6,14 33.9,14.2 L33.9,14.2 C34.5,14.3 34.7,14.8 34.7,15.4 C34.7,15.9 34.7,16.6 35,16.9 L34.2,16.9 C34,16.7 34.1,16.1 34,15.5 C33.9,15 33.8,14.5 33.1,14.5 L31.3,14.5 L31.3,16.9 L30.6,16.9 C30.6,16.9 30.6,11.3 30.6,11.3 Z M32.9,13.9 C33.6,13.9 34.2,13.7 34.2,12.9 C34.2,12.4 33.9,11.9 33.2,11.9 L31.4,11.9 L31.4,13.8 L32.9,13.9 L32.9,13.9 Z" id="Shape"></path>
                <polygon id="Path" points="36.1 11.3 40 11.3 40 11.9 36.9 11.9 36.9 13.7 39.8 13.7 39.8 14.3 36.9 14.3 36.9 16.2 40 16.2 40 16.8 36.1 16.8"></polygon>
                <polygon id="Path" points="41.1 11.3 41.8 11.3 41.8 16.9 41.1 16.9"></polygon>
                <path d="M43.2,11.3 L45.2,11.3 C45.7,11.3 46.3,11.3 46.7,11.5 C47.1,11.7 47.4,12.1 47.4,12.7 C47.4,13.3 47.1,13.7 46.6,14 L46.6,14 C47.3,14.1 47.7,14.7 47.7,15.3 C47.7,16.1 47.1,16.9 46,16.9 L43.3,16.9 L43.2,11.3 L43.2,11.3 Z M44,13.7 L45.5,13.7 C46.3,13.7 46.7,13.4 46.7,12.8 C46.7,12 46.2,11.9 45.5,11.9 L44,11.9 L44,13.7 Z M44,16.3 L45.9,16.3 C46.5,16.3 46.9,15.9 46.9,15.3 C46.9,14.6 46.3,14.4 45.7,14.4 L44,14.4 L44,16.3 L44,16.3 Z" id="Shape"></path>
                <path d="M53.2,14.9 C53.2,16.3 52.4,17.1 51,17.1 C49.6,17.1 48.7,16.4 48.7,14.9 L48.7,11.3 L49.4,11.3 L49.4,14.9 C49.4,15.9 50,16.4 50.9,16.4 C51.8,16.4 52.4,15.9 52.4,14.9 L52.4,11.3 L53.1,11.3 L53.2,14.9 L53.2,14.9 Z" id="Path"></path>
                <path d="M54.5,11.3 L57.1,11.3 C58.1,11.3 58.8,11.9 58.8,12.8 C58.8,13.5 58.5,14 57.8,14.2 L57.8,14.2 C58.4,14.3 58.6,14.8 58.6,15.4 C58.6,15.9 58.6,16.6 58.9,16.9 L58.1,16.9 C57.9,16.7 58,16.1 57.9,15.5 C57.8,15 57.7,14.5 57,14.5 L55.2,14.5 L55.2,16.9 L54.5,16.9 C54.5,16.9 54.5,11.3 54.5,11.3 Z M56.8,13.9 C57.5,13.9 58.1,13.7 58.1,12.9 C58.1,12.4 57.8,11.9 57.1,11.9 L55.3,11.9 L55.3,13.8 L56.8,13.9 L56.8,13.9 Z" id="Shape"></path>
                <path d="M64.2,16.2 C63.8,16.8 63.1,17 62.4,17 C60.7,17 59.7,15.6 59.7,14.2 C59.7,12.6 60.6,11.2 62.4,11.2 C63.6,11.2 64.6,11.7 64.8,13.1 L64.1,13.1 C64,12.3 63.3,11.9 62.4,11.9 C61,11.9 60.5,13.1 60.5,14.3 C60.5,15.5 61.2,16.5 62.4,16.5 C63.6,16.5 64.2,15.7 64.2,14.7 L62.4,14.7 L62.4,14.1 L64.8,14.1 L64.8,17 L64.3,17 L64.2,16.2 Z" id="Path"></path>
                <polygon id="Path" points="3.9 28.1 3.4 28.1 2.5 24.9 2.5 24.9 1.6 28.1 1.1 28.1 0.1 24.3 0.6 24.3 1.4 27.4 1.4 27.4 2.3 24.2 2.9 24.2 3.6 27.4 3.6 27.4 4.4 24.2 4.9 24.2"></polygon>
                <polygon id="Path" points="9 28.1 8.5 28.1 7.6 24.9 7.6 24.9 6.7 28.1 6.2 28.1 5.2 24.3 5.7 24.3 6.5 27.4 6.5 27.4 7.4 24.2 8 24.2 8.7 27.4 8.7 27.4 9.5 24.2 10 24.2"></polygon>
                <polygon id="Path" points="14.1 28.1 13.6 28.1 12.7 24.9 12.7 24.9 11.8 28.1 11.3 28.1 10.3 24.3 10.8 24.3 11.6 27.5 11.6 27.5 12.5 24.3 13.1 24.3 13.9 27.5 13.9 27.5 14.7 24.3 15.1 24.3"></polygon>
                <polygon id="Path" points="15.3 27.5 15.9 27.5 15.9 28.1 15.3 28.1"></polygon>
                <polygon id="Path" points="16.9 24.2 19.4 24.2 19.4 24.6 17.4 24.6 17.4 25.8 19.2 25.8 19.2 26.2 17.4 26.2 17.4 28 16.9 28"></polygon>
                <path d="M20.1,24.2 L21.9,24.2 C22.6,24.2 23.1,24.6 23.1,25.2 C23.1,25.7 22.9,26 22.4,26.2 L22.4,26.2 C22.8,26.3 22.9,26.6 23,27 C23,27.4 23,27.8 23.2,28.1 L22.6,28.1 C22.5,27.9 22.5,27.5 22.5,27.2 C22.4,26.8 22.4,26.5 21.9,26.5 L20.7,26.5 L20.7,28.1 L20.1,28.1 L20.1,24.2 Z M21.7,26 C22.2,26 22.6,25.9 22.6,25.3 C22.6,24.9 22.4,24.6 21.9,24.6 L20.6,24.6 L20.6,25.9 L21.7,26 L21.7,26 Z" id="Shape"></path>
                <polygon id="Path" points="23.9 27.5 24.5 27.5 24.5 28.1 23.9 28.1"></polygon>
                <path d="M28.2,25.4 C28.1,24.9 27.7,24.6 27.1,24.6 C26.2,24.6 25.8,25.4 25.8,26.2 C25.8,27.1 26.2,27.8 27.1,27.8 C27.8,27.8 28.2,27.3 28.2,26.7 L28.7,26.7 C28.6,27.7 28,28.2 27,28.2 C25.8,28.2 25.2,27.3 25.2,26.2 C25.2,25.1 25.8,24.2 27,24.2 C27.8,24.2 28.5,24.6 28.6,25.4 C28.6,25.4 28.2,25.4 28.2,25.4 Z" id="Path"></path>
                <path d="M29.5,24.2 L30,24.2 L30,25.8 L32,25.8 L32,24.2 L32.5,24.2 L32.5,28 L32,28 L32,26.2 L30,26.2 L30,28 L29.5,28 C29.5,28 29.5,24.2 29.5,24.2 Z" id="Path"></path>
            </g>
        </g>
    </g>
</svg>