<?xml version="1.0" encoding="UTF-8"?>
<svg width="26.6460348px" height="26.6460348px" viewBox="0 0 26.6460348 26.6460348" version="1.1" xmlns="http://www.w3.org/2000/svg" xmlns:xlink="http://www.w3.org/1999/xlink">
    <title>Fill 1 3</title>
    <g id="Page-1" stroke="none" stroke-width="1" fill="none" fill-rule="evenodd">
        <g id="Large-Copy-27" transform="translate(-1236.000000, -5252.047911)" fill="#FFFFFF">
            <g id="Group-5-Copy-5" transform="translate(96.000000, 5029.284164)">
                <g id="Group-2" transform="translate(1140.000000, 222.208621)">
                    <path d="M22.7428126,4.45834793 C20.1406386,1.85618499 17.0007475,0.555125725 13.3230174,0.555125725 C9.6452906,0.555125725 6.50539292,1.85618499 3.90322776,4.45834793 C1.3010626,7.06052197 0,10.200413 0,13.8781431 C0,17.5558699 1.3010626,20.6957676 3.90322776,23.2979328 C6.50539292,25.9000979 9.6452906,27.2011605 13.3230174,27.2011605 C17.0007475,27.2011605 20.1406386,25.9000979 22.7428126,23.2979328 C25.3449756,20.6957676 26.6460348,17.5558699 26.6460348,13.8781431 C26.6460348,10.200413 25.3449756,7.06052197 22.7428126,4.45834793 Z M16.7578578,13.8781431 L14.5720503,13.8781431 L14.5720503,21.8927708 L11.6055916,21.8927708 L11.6055916,13.8781431 L9.57591876,13.8781431 L9.57591876,11.1198566 L11.6055916,11.1198566 L11.6055916,9.50652805 C11.6055916,8.29217942 11.831117,7.38144015 12.2821567,6.77426584 C12.7331963,6.16709153 13.583227,5.86351547 14.832271,5.86351547 L17.0180675,5.86351547 L17.0180675,8.62179087 L15.6649596,8.62179087 C15.1792135,8.62179087 14.8756374,8.70853482 14.7541981,8.88201161 C14.6327699,9.05548839 14.5720503,9.35039338 14.5720503,9.76674878 L14.5720503,11.1198566 L17.0701161,11.1198566 L16.7578578,13.8781431 Z" id="Fill-1"></path>
                </g>
            </g>
        </g>
    </g>
</svg>