<?xml version="1.0" encoding="UTF-8"?>
<svg width="26.6px" height="26.6px" viewBox="0 0 26.6 26.6" version="1.1" xmlns="http://www.w3.org/2000/svg" xmlns:xlink="http://www.w3.org/1999/xlink">
    <title>Fill 1</title>
    <g id="Page-1" stroke="none" stroke-width="1" fill="none" fill-rule="evenodd">
        <g id="Fill-1" fill="#FFFFFF" fill-rule="nonzero">
            <path d="M22.7,3.9 C20.1,1.3 17,0 13.3,0 C9.6,0 6.5,1.3 3.9,3.9 C1.3,6.5 0,9.6 0,13.3 C0,17 1.3,20.1 3.9,22.7 C6.5,25.3 9.6,26.6 13.3,26.6 C17,26.6 20.1,25.3 22.7,22.7 C25.3,20.1 26.6,17 26.6,13.3 C26.6,9.6 25.3,6.5 22.7,3.9 Z M19.9,10.3 C19.9,10.4 20,10.6 20,10.7 C20,13.1 19.1,15.2 17.4,17.1 C15.7,19 13.4,20 10.6,20 C8.8,20 7.1,19.5 5.6,18.5 C5.8,18.5 6.1,18.6 6.4,18.6 C7.9,18.6 9.2,18.1 10.5,17.2 C9.8,17.2 9.1,16.9 8.6,16.5 C8,16.1 7.7,15.5 7.5,14.9 C7.7,14.9 7.9,15 8.1,15 C8.4,15 8.7,15 9,14.9 C8.2,14.7 7.6,14.3 7.1,13.8 C6.6,13.2 6.3,12.5 6.3,11.7 L6.3,11.6 C6.8,11.9 7.3,12 7.8,12 C6.8,11.3 6.3,10.4 6.3,9.3 C6.3,8.7 6.5,8.2 6.8,7.6 C8.5,9.8 10.8,10.9 13.6,11 C13.5,10.8 13.5,10.5 13.5,10.2 C13.5,9.3 13.8,8.5 14.5,7.9 C15.1,7.3 15.9,6.9 16.8,6.9 C17.8,6.9 18.6,7.2 19.2,7.9 C20,7.8 20.7,7.5 21.3,7.1 C21.1,7.9 20.6,8.5 19.9,8.9 C20.5,8.8 21.1,8.7 21.8,8.4 C21.1,9.3 20.5,9.8 19.9,10.3 Z"></path>
        </g>
    </g>
</svg>