<?xml version="1.0" encoding="UTF-8"?>
<svg width="200.3px" height="70px" viewBox="0 0 200.3 70" version="1.1" xmlns="http://www.w3.org/2000/svg" xmlns:xlink="http://www.w3.org/1999/xlink">
    <title>fri-son</title>
    <g id="Page-1" stroke="none" stroke-width="1" fill="none" fill-rule="evenodd">
        <g id="fri-son" fill="#FFFFFF" fill-rule="nonzero">
            <g id="Group">
                <path d="M136.1,27.3 C126.8,27.3 119,33.3 116,41.6 C114.5,37.3 111.6,33.5 107.8,31 C104.7,28.9 102.7,25.4 102.7,21.4 C102.7,15.1 107.9,10 114.2,10 L114.2,0.1 C102.4,0.1 92.8,9.6 92.8,21.4 C92.8,28.8 96.5,35.3 102.2,39.1 L102.2,39.1 C105.3,41.2 107.3,44.7 107.3,48.7 C107.3,55 102.1,60.1 95.8,60.1 C89.5,60.1 84.4,55 84.4,48.7 L74.5,48.7 C74.5,60.4 84.1,70 95.8,70 C105.1,70 113,64.1 116,55.8 C118.9,64 126.8,70 136.1,70 C147.9,70 157.5,60.5 157.5,48.7 C157.5,36.9 147.9,27.3 136.1,27.3 M136.1,60.1 C129.8,60.1 124.7,55 124.7,48.7 C124.7,42.4 129.8,37.2 136.1,37.2 C142.4,37.2 147.6,42.4 147.6,48.7 C147.6,55 142.4,60.1 136.1,60.1" id="Shape"></path>
                <path d="M190.3,69 L200.3,69 L200.3,48.7 C200.3,36.9 190.6,27.3 178.9,27.3 C167.1,27.3 157.5,36.9 157.5,48.7 L157.5,69.1 L167.4,69.1 L167.4,48.7 C167.4,42.4 172.6,37.2 178.9,37.2 C185.2,37.2 190.3,42.4 190.3,48.7 L190.3,69 L190.3,69 Z" id="Path"></path>
                <path d="M57.7,26.4 L57.7,26.4 C51.1,26.4 45.3,29.4 41.3,34.1 C37.4,29.4 31.5,26.4 24.9,26.4 L22.2,26.4 L22.2,21.3 C22.2,15 27.4,9.9 33.7,9.9 L33.7,0 C22.1,0 12.4,9.5 12.4,21.3 L12.4,26.4 L0,26.4 L0,36.3 L12.4,36.3 L12.4,69.2 L22.3,69.2 L22.3,36.3 L25,36.3 C31.3,36.3 36.4,41.4 36.4,47.7 L36.4,69.1 L46.3,69.1 L46.3,47.7 C46.3,41.4 51.4,36.3 57.7,36.3 L60.4,36.3 L60.4,69.1 L70.3,69.1 L70.3,26.4 L57.7,26.4 Z" id="Path"></path>
                <polygon id="Path" points="90.2 26.4 74.5 36.3 74.5 46.4 90.2 36.7"></polygon>
            </g>
            <rect id="Rectangle" x="60.4" y="0.1" width="9.9" height="23.6"></rect>
        </g>
    </g>
</svg>