<?xml version="1.0" encoding="UTF-8"?>
<svg width="27.2px" height="27.2px" viewBox="0 0 27.2 27.2" version="1.1" xmlns="http://www.w3.org/2000/svg" xmlns:xlink="http://www.w3.org/1999/xlink">
    <title>instagrame</title>
    <g id="Page-1" stroke="none" stroke-width="1" fill="none" fill-rule="evenodd">
        <g id="instagrame" transform="translate(0.000000, -0.000000)">
            <g id="Page-1" fill="#FFFFFF" fill-rule="nonzero">
                <g id="Group-5-Copy-5" transform="translate(0.000000, 0.000000)">
                    <g id="Group-16" transform="translate(-0.000000, 0.000000)">
                        <circle id="Oval" cx="13.6" cy="13.6" r="13.6"></circle>
                    </g>
                </g>
            </g>
            <g id="SVGID_00000121247047962830525500000011386757854566759844_-link" transform="translate(4.700000, 4.700001)" fill="#FFFFFF">
                <path d="M14.6,4.3 C14.6,4.6 14.5,4.9 14.3,5.1 C14.1,5.3 13.8,5.4 13.5,5.4 C13.2,5.4 12.9,5.3 12.7,5.1 C12.5,4.9 12.4,4.6 12.4,4.3 C12.4,4 12.5,3.7 12.7,3.5 C12.9,3.3 13.2,3.2 13.5,3.2 C13.8,3.2 14.1,3.3 14.3,3.5 C14.5,3.8 14.6,4 14.6,4.3 Z M8.9,11.7 C8.1,11.7 7.5,11.4 6.9,10.9 C6.4,10.4 6.1,9.7 6.1,8.9 C6.1,8.1 6.4,7.5 6.9,6.9 C7.4,6.3 8.1,6.1 8.9,6.1 C9.7,6.1 10.3,6.4 10.9,6.9 C11.4,7.4 11.7,8.1 11.7,8.9 C11.7,9.7 11.4,10.3 10.9,10.9 C10.3,11.4 9.7,11.7 8.9,11.7 Z M8.9,4.3 C8.3,4.3 7.7,4.4 7.1,4.7 C6.5,4.9 6,5.3 5.6,5.7 C5.2,6.1 4.9,6.6 4.6,7.2 C4.4,7.7 4.3,8.3 4.3,8.9 C4.3,9.5 4.4,10.1 4.7,10.7 C4.9,11.3 5.3,11.7 5.7,12.2 C6.1,12.6 6.6,12.9 7.2,13.2 C7.8,13.4 8.3,13.6 9,13.6 C9.6,13.6 10.2,13.5 10.8,13.2 C11.4,13 11.8,12.6 12.3,12.2 C12.7,11.8 13,11.3 13.3,10.7 C13.5,10.1 13.7,9.6 13.7,8.9 C13.7,8.3 13.6,7.7 13.3,7.1 C13.1,6.5 12.7,6.1 12.3,5.6 C11.9,5.2 11.4,4.9 10.8,4.6 C10.1,4.4 9.5,4.3 8.9,4.3 Z M16,12.5 C16,13.5 15.7,14.3 15,15 C14.3,15.7 13.5,16 12.5,16 L5.3,16 C4.3,16 3.5,15.7 2.8,15 C2.1,14.3 1.8,13.5 1.8,12.5 L1.8,5.3 C1.8,4.3 2.1,3.5 2.8,2.8 C3.5,2.1 4.3,1.8 5.3,1.8 L12.5,1.8 C13.5,1.8 14.3,2.1 15,2.8 C15.7,3.5 16,4.3 16,5.3 L16,12.5 Z M12.5,-8.8817842e-16 L5.3,-8.8817842e-16 C4.6,-8.8817842e-16 3.9,0.2 3.3,0.4 C2.6,0.7 2.1,1.1 1.6,1.6 C1.1,2.1 0.7,2.6 0.4,3.3 C0.1,3.9 0,4.6 0,5.3 L0,12.5 C0,13.2 0.1,13.9 0.4,14.5 C0.7,15.2 1.1,15.7 1.5,16.2 C1.9,16.7 2.5,17.1 3.2,17.3 C3.9,17.6 4.5,17.7 5.3,17.7 L12.5,17.7 C13.2,17.7 13.9,17.5 14.6,17.3 C15.2,17 15.8,16.7 16.3,16.2 C16.8,15.7 17.2,15.2 17.4,14.5 C17.7,13.9 17.8,13.2 17.8,12.5 L17.8,5.3 C17.8,4.6 17.7,3.9 17.4,3.3 C17.1,2.6 16.7,2.1 16.3,1.6 C15.8,1.1 15.3,0.8 14.6,0.5 C13.9,0.2 13.2,-8.8817842e-16 12.5,-8.8817842e-16 Z" id="SVGID_00000121247047962830525500000011386757854566759844_"></path>
            </g>
            <path d="M19.3,9.000001 C19.3,9.300001 19.2,9.600001 19,9.800001 C18.8,10.000001 18.5,10.100001 18.2,10.100001 C17.9,10.100001 17.6,10.000001 17.4,9.800001 C17.2,9.600001 17.1,9.300001 17.1,9.000001 C17.1,8.700001 17.2,8.400001 17.4,8.200001 C17.6,8.000001 17.9,7.900001 18.2,7.900001 C18.5,7.900001 18.8,8.000001 19,8.200001 C19.2,8.500001 19.3,8.700001 19.3,9.000001 Z M13.6,16.400001 C12.8,16.400001 12.2,16.100001 11.6,15.600001 C11.1,15.100001 10.8,14.400001 10.8,13.600001 C10.8,12.800001 11.1,12.200001 11.6,11.600001 C12.1,11.100001 12.8,10.800001 13.6,10.800001 C14.4,10.800001 15,11.100001 15.6,11.600001 C16.1,12.100001 16.4,12.800001 16.4,13.600001 C16.4,14.400001 16.1,15.000001 15.6,15.600001 C15,16.100001 14.4,16.400001 13.6,16.400001 Z M13.6,9.000001 C13,9.000001 12.4,9.100001 11.8,9.400001 C11.2,9.600001 10.7,10.000001 10.3,10.400001 C9.9,10.800001 9.6,11.300001 9.3,11.900001 C9.1,12.400001 9,13.000001 9,13.600001 C9,14.200001 9.1,14.800001 9.4,15.400001 C9.6,16.000001 10,16.400001 10.4,16.900001 C10.8,17.300001 11.3,17.600001 11.9,17.900001 C12.5,18.100001 13,18.300001 13.7,18.300001 C14.3,18.300001 14.9,18.200001 15.5,17.900001 C16.1,17.700001 16.5,17.300001 17,16.900001 C17.4,16.500001 17.7,16.000001 18,15.400001 C18.2,14.800001 18.4,14.300001 18.4,13.600001 C18.4,13.000001 18.3,12.400001 18,11.800001 C17.8,11.200001 17.4,10.800001 17,10.300001 C16.6,9.900001 16.1,9.600001 15.5,9.300001 C14.8,9.100001 14.2,9.000001 13.6,9.000001 Z M20.7,17.200001 C20.7,18.200001 20.4,19.000001 19.7,19.700001 C19,20.400001 18.2,20.700001 17.2,20.700001 L10,20.700001 C9,20.700001 8.2,20.400001 7.5,19.700001 C6.8,19.000001 6.5,18.200001 6.5,17.200001 L6.5,10.000001 C6.5,9.000001 6.8,8.200001 7.5,7.500001 C8.2,6.800001 9,6.500001 10,6.500001 L17.2,6.500001 C18.2,6.500001 19,6.800001 19.7,7.500001 C20.4,8.200001 20.7,9.000001 20.7,10.000001 L20.7,17.200001 Z M17.2,4.700001 L10,4.700001 C9.3,4.700001 8.6,4.900001 8,5.100001 C7.3,5.400001 6.8,5.800001 6.3,6.300001 C5.8,6.800001 5.4,7.300001 5.1,8.000001 C4.8,8.600001 4.7,9.300001 4.7,10.000001 L4.7,17.200001 C4.7,17.900001 4.8,18.600001 5.1,19.200001 C5.4,19.900001 5.8,20.400001 6.2,20.900001 C6.7,21.400001 7.2,21.800001 7.9,22.000001 C8.6,22.300001 9.2,22.400001 10,22.400001 L17.2,22.400001 C17.9,22.400001 18.6,22.200001 19.3,22.000001 C19.9,21.700001 20.5,21.400001 21,20.900001 C21.5,20.400001 21.9,19.900001 22.1,19.200001 C22.4,18.600001 22.5,17.900001 22.5,17.200001 L22.5,10.000001 C22.5,9.300001 22.4,8.600001 22.1,8.000001 C21.8,7.300001 21.4,6.800001 21,6.300001 C20.5,5.800001 20,5.500001 19.3,5.200001 C18.6,4.900001 17.9,4.700001 17.2,4.700001 Z" id="Shape" fill="#000000" fill-rule="nonzero"></path>
        </g>
    </g>
</svg>