<?xml version="1.0" encoding="UTF-8"?>
<svg width="566.9px" height="197.6px" viewBox="0 0 566.9 197.6" version="1.1" xmlns="http://www.w3.org/2000/svg" xmlns:xlink="http://www.w3.org/1999/xlink">
    <title>lotterie_romande_black</title>
    <g id="Page-1" stroke="none" stroke-width="1" fill="none" fill-rule="evenodd">
        <g id="lotterie_romande_black" fill="#FFFFFF" fill-rule="nonzero">
            <path d="M41.5,89.9 C41.5,68 59.1,50.1 80.8,50.1 C102.5,50.1 120.2,68 120.2,89.9 C120.2,111.8 102.5,129.600417 80.8,129.600417 C59.2,129.7 41.5,111.8 41.5,89.9 Z M566.9,0 L566.9,197.6 L0,197.6 L0,0 L566.9,0 Z M18.7,77.2 C18.7,111.6 46.5,139.5 80.9,139.5 C115.3,139.5 143.1,111.6 143.1,77.2 C143.1,42.7 115.3,14.8 80.9,14.8 C46.5,14.8 18.7,42.7 18.7,77.2 Z M4.3,32 C10.7,21 19.5,11.6 29.8,4.3 L4.3,4.3 L4.3,32 Z M562.6,4.3 L132,4.3 C154.9,20.4 169.8,47 169.8,77.2 C169.8,126.4 130,166.3 80.9,166.3 C48.3,166.3 19.8,148.7 4.3,122.4 L4.3,193.3 L562.6,193.3 L562.6,4.3 Z M252.2,39.9 L267.9,39.9 L267.9,72.8 L283.3,72.8 L283.3,86.2 L252.2,86.2 L252.2,39.9 L252.2,39.9 Z M289,62.8 C289,59.1 289.7,55.7 291,52.7 C292.3,49.7 294.1,47.2 296.4,45.1 C298.7,43 301.4,41.4 304.6,40.3 C307.7,39.2 311.1,38.6 314.8,38.6 C318.5,38.6 321.9,39.2 325,40.3 C328.1,41.4 330.9,43.1 333.2,45.1 C335.5,47.2 337.3,49.7 338.6,52.7 C339.9,55.7 340.6,59.1 340.6,62.8 C340.6,66.5 339.9,69.9 338.6,73 C337.3,76.1 335.5,78.7 333.2,80.8 C330.9,83 328.2,84.6 325,85.8 C321.9,87 318.4,87.6 314.8,87.6 C311.1,87.6 307.7,87 304.6,85.8 C301.5,84.6 298.7,83 296.4,80.8 C294.1,78.6 292.3,76 291,73 C289.7,69.9 289,66.5 289,62.8 Z M305.6,62.8 C305.6,64.3 305.8,65.7 306.3,67 C306.8,68.3 307.4,69.4 308.2,70.3 C309,71.2 310,71.9 311.1,72.4 C312.2,72.9 313.5,73.2 314.8,73.2 C316.1,73.2 317.3,73 318.4,72.4 C319.5,71.9 320.5,71.2 321.3,70.3 C322.1,69.4 322.8,68.3 323.2,67 C323.7,65.7 323.9,64.3 323.9,62.8 C323.9,61.3 323.7,60 323.2,58.7 C322.7,57.5 322.1,56.4 321.3,55.6 C320.5,54.8 319.5,54.1 318.4,53.6 C317.3,53.1 316.1,52.9 314.8,52.9 C313.5,52.9 312.3,53.1 311.1,53.6 C310,54.1 309,54.8 308.2,55.6 C307.4,56.4 306.8,57.5 306.3,58.7 C305.9,60 305.6,61.3 305.6,62.8 Z M372.7,86.3 L357.1,86.3 L357.1,53 L345.7,53 L345.7,39.9 L384.1,39.9 L384.1,53 L372.7,53 L372.7,86.3 Z M392.7,39.9 L424.6,39.9 L424.6,52.9 L407.4,52.9 L407.4,56.9 L423.6,56.9 L423.6,69 L407.4,69 L407.4,73.3 L425.8,73.3 L425.8,86.3 L392.8,86.3 L392.7,39.9 L392.7,39.9 Z M436.1,39.9 L456.1,39.9 C458.4,39.9 460.6,40.1 462.9,40.6 C465.2,41.1 467.2,41.9 468.9,43 C470.7,44.2 472.1,45.7 473.2,47.7 C474.3,49.6 474.8,52.1 474.8,55 C474.8,57.8 474.1,60.3 472.7,62.5 C471.3,64.7 469.3,66.3 466.7,67.5 L478.5,86.3 L460.6,86.3 L451.7,69.7 L451.2,69.7 L451.2,86.3 L436.1,86.3 L436.1,39.9 L436.1,39.9 Z M451.1,59.5 L454.2,59.5 C454.7,59.5 455.3,59.5 455.9,59.4 C456.5,59.3 457.1,59.1 457.7,58.8 C458.2,58.5 458.7,58.1 459.1,57.6 C459.5,57.1 459.7,56.4 459.7,55.6 C459.7,54.8 459.5,54.1 459.2,53.6 C458.9,53.1 458.5,52.8 458,52.5 C457.5,52.3 457,52.1 456.5,52 C455.9,51.9 455.4,51.9 454.9,51.9 L451.2,51.9 L451.1,59.5 L451.1,59.5 Z M484.3,39.9 L500,39.9 L500,86.3 L484.3,86.3 L484.3,39.9 Z M509.9,39.9 L541.8,39.9 L541.8,52.9 L524.6,52.9 L524.6,56.9 L540.8,56.9 L540.8,69 L524.6,69 L524.6,73.3 L543,73.3 L543,86.3 L510,86.3 L510,39.9 L509.9,39.9 Z M182.8,107.6 L202.7,107.6 C205,107.6 207.2,107.8 209.5,108.3 C211.7,108.8 213.7,109.6 215.5,110.7 C217.3,111.9 218.7,113.4 219.8,115.4 C220.9,117.3 221.4,119.8 221.4,122.7 C221.4,125.5 220.7,128 219.3,130.2 C217.9,132.4 215.9,134 213.3,135.2 L225,154 L207.1,154 L198.2,137.5 L197.7,137.5 L197.7,154 L182.6,154 L182.6,107.6 L182.8,107.6 Z M197.8,127.1 L200.8,127.1 C201.3,127.1 201.9,127.1 202.5,127 C203.1,126.9 203.7,126.7 204.2,126.4 C204.7,126.1 205.2,125.7 205.6,125.2 C206,124.7 206.1,124 206.1,123.2 C206.1,122.4 205.9,121.7 205.6,121.2 C205.3,120.7 204.9,120.4 204.4,120.1 C203.9,119.9 203.4,119.7 202.8,119.6 C202.2,119.5 201.7,119.5 201.2,119.5 L197.5,119.5 L197.5,127.1 L197.8,127.1 L197.8,127.1 Z M227.6,130.5 C227.6,126.8 228.3,123.5 229.6,120.5 C230.9,117.5 232.7,115 235,112.9 C237.3,110.8 240,109.2 243.1,108.1 C246.2,107 249.7,106.4 253.3,106.4 C257,106.4 260.4,107 263.5,108.1 C266.6,109.2 269.4,110.8 271.7,112.9 C274,115 275.8,117.5 277.1,120.5 C278.4,123.5 279.1,126.8 279.1,130.5 C279.1,134.2 278.4,137.6 277.1,140.6 C275.8,143.7 274,146.3 271.7,148.4 C269.4,150.6 266.7,152.2 263.5,153.4 C260.4,154.6 257,155.2 253.3,155.2 C249.6,155.2 246.2,154.6 243.1,153.4 C240,152.2 237.3,150.6 235,148.4 C232.7,146.2 230.9,143.6 229.6,140.6 C228.2,137.6 227.6,134.2 227.6,130.5 Z M244.1,130.5 C244.1,132 244.3,133.4 244.8,134.7 C245.3,136 245.9,137.1 246.7,138 C247.5,138.9 248.5,139.6 249.6,140.1 C250.7,140.6 252,140.9 253.3,140.9 C254.6,140.9 255.8,140.6 256.9,140.1 C258,139.6 259,138.9 259.8,138 C260.6,137.1 261.3,136 261.7,134.7 C262.1,133.4 262.4,132 262.4,130.5 C262.4,129 262.2,127.7 261.7,126.4 C261.2,125.2 260.6,124.1 259.8,123.3 C259,122.5 258,121.8 256.9,121.3 C255.8,120.8 254.6,120.6 253.3,120.6 C252,120.6 250.8,120.8 249.6,121.3 C248.5,121.8 247.5,122.5 246.7,123.3 C245.9,124.2 245.3,125.2 244.8,126.4 C244.3,127.6 244.1,129 244.1,130.5 Z M299.4,127.7 L300.1,153.9 L285.6,153.9 L285.6,107.6 L306,107.6 L314.4,132.5 L314.7,132.5 L322,107.6 L343,107.6 L343,153.9 L327.8,153.9 L328.3,127.9 L327.9,127.8 L319.3,153.9 L308.3,153.9 L299.8,127.7 L299.4,127.7 L299.4,127.7 Z M366.7,107.6 L383.2,107.6 L401.2,153.9 L384.3,153.9 L381.9,147.1 L367.2,147.1 L364.9,153.9 L348.4,153.9 L366.7,107.6 Z M374.7,123.7 L370.9,135.2 L378.4,135.2 L374.7,123.7 Z M406.8,107.6 L422.3,107.6 L435.5,131.1 L435.8,131.1 L435.2,107.6 L450,107.6 L450,153.9 L434,153.9 L421.2,131.8 L420.9,131.8 L421.6,153.9 L406.8,153.9 L406.8,107.6 L406.8,107.6 Z M458.5,153.9 L458.5,107.6 L475.8,107.6 C479.5,107.6 483,108 486.3,108.7 C489.6,109.4 492.6,110.7 495.1,112.4 C497.7,114.2 499.7,116.5 501.2,119.4 C502.7,122.3 503.5,126 503.5,130.4 C503.5,134.5 502.8,138 501.3,140.9 C499.8,143.9 497.9,146.3 495.4,148.2 C493,150.1 490.1,151.5 487,152.4 C483.8,153.3 480.5,153.8 477.1,153.8 L458.5,153.8 L458.5,153.9 L458.5,153.9 Z M473.5,120.8 L473.5,140.5 L476.4,140.5 C480.1,140.5 482.9,139.7 484.8,138.1 C486.8,136.5 487.7,133.9 487.7,130.3 C487.7,127.3 486.7,125 484.8,123.3 C482.8,121.6 480.2,120.8 476.9,120.8 L473.5,120.8 L473.5,120.8 Z M510,107.6 L541.8,107.6 L541.8,120.5 L524.6,120.5 L524.6,124.5 L540.7,124.5 L540.7,136.6 L524.6,136.6 L524.6,140.9 L543,140.9 L543,153.8 L510,153.8 L510,107.6 Z" id="Shape"></path>
        </g>
    </g>
</svg>