<?xml version="1.0" encoding="UTF-8"?>
<svg width="1458.02485px" height="833.144444px" viewBox="0 0 1458.02485 833.144444" version="1.1" xmlns="http://www.w3.org/2000/svg" xmlns:xlink="http://www.w3.org/1999/xlink">
    <title>pixel-menu</title>
    <g id="Page-1" stroke="none" stroke-width="1" fill="none" fill-rule="evenodd">
        <g id="pixel-menu" fill-rule="nonzero">
            <g id="Group">
                <path d="M752,693.044444 L753.8,693.044444 L753.8,692.844444 L752,692.844444 L752,693.044444 Z M1001,736.944444 C1001.1,736.944444 1001.1,736.944444 1001.2,736.944444 L1001.2,736.744444 L1001,736.744444 L1001,736.944444 Z M958.2,737.444444 C958.3,737.444444 958.3,737.444444 958.2,737.444444 L958.3,736.644444 L958.2,736.644444 L958.2,737.444444 Z" id="Shape" fill="#000000"></path>
                <path d="M550,833.044444 L568.5,833.044444 C562.5,833.144444 556.4,833.044444 550,833.044444 Z" id="Path" fill="#FFFFFF"></path>
                <path d="M666.5,42.6444444 L752.2,42.6444444 L752.2,92.0444444 L709.6,92.0444444 L709.6,136.544444 L709.3,136.544444 L709.3,140.244444 L665.4,140.244444 L665.4,184.344444 L625.6,184.344444 L625.6,92.2444444 C625.6,92.2444444 625.7,92.2444444 625.8,92.2444444 L625.8,90.6444444 L665,90.6444444 L665,44.4444444 L665.5,44.4444444 C665.8,43.8444444 666.1,43.2444444 666.5,42.6444444 Z" id="Path" fill="#FFFFFF"></path>
                <path d="M664.9,90.5444444 L664.9,90.5444444 L664.6,90.6444444 C664.8,90.6444444 664.9,90.5444444 664.9,90.5444444 Z" id="Path" fill="#000000"></path>
                <path d="M420.9,136.544444 L459.2,136.544444 L459.2,184.344444 L499.1,184.344444 L499.1,228.544444 L459.5,228.544444 L459.5,276.544444 L415.9,276.544444 L415.9,229.144444 C409.6,229.044444 403.2,228.844444 396.8,228.744444 C390.2,228.644444 383.7,228.744444 376,228.744444 L376,184.344444 L415.5,184.344444 C416.5,170.044444 415.5,155.544444 416,141.544444 C416.1,141.444444 416.2,141.344444 416.3,141.244444 L416.3,136.944444 L420.5,136.944444 C420.7,136.844444 420.8,136.744444 420.9,136.544444 Z" id="Path" fill="#FFFFFF"></path>
                <rect id="Rectangle" fill="#000000" x="625.5" y="600.844444" width="1" height="1"></rect>
                <path d="M376,738.044444 L376,784.844444 C382.3,784.944444 388.8,785.144444 395.2,785.244444 C401.8,785.344444 408.3,785.244444 415.4,785.244444 L415.4,832.244444 L335.5,832.244444 L335.5,832.144444 L332.1,832.144444 L332.1,738.044444 L376,738.044444 L376,738.044444 Z" id="Path" fill="#FFFFFF"></path>
                <path d="M416,645.144444 L428.1,645.144444 C428.3,645.144444 428.6,645.144444 428.8,645.144444 C438.9,645.444444 449,645.244444 459.2,645.244444 L459.2,693.044444 L417.3,693.044444 L417.3,745.444444 L376.1,745.444444 L376.1,691.844444 L415.9,691.844444 L415.9,650.944444 L416,650.844444 L416,645.144444 L416,645.144444 Z" id="Path" fill="#FFFFFF"></path>
                <path d="M426.4,645.144444 C427,645.144444 427.6,645.144444 428.1,645.144444 L424.5,645.144444 C425.1,645.144444 425.7,645.144444 426.4,645.144444 Z" id="Path" fill="#FFFFFF"></path>
                <path d="M538.3,92.2444444 L582.4,92.2444444 C582.4,91.6444444 581.5,168.944444 581.5,168.944444 C581.5,173.844444 581.5,182.444444 581.5,184.144444 L581.5,184.444444 L495,184.444444 L495,141.744444 C497.2,139.444444 498.4,138.244444 500.1,136.544444 L538.3,136.544444 L538.3,92.2444444 L538.3,92.2444444 Z" id="Path" fill="#FFFFFF"></path>
                <path d="M83.6,44.4444444 C95.9,44.4444444 108.6,44.4444444 121.6,44.4444444 C122.8,45.9444444 124.3,47.6444444 126.2,49.8444444 C126.2,77.7444444 126.2,106.544444 126.2,135.944444 C112.1,135.944444 98,135.944444 83.6,135.944444 C83.6,105.244444 83.6,74.8444444 83.6,44.4444444 Z" id="Path" fill="#FFFFFF"></path>
                <path d="M333.1,324.844444 L375.8,324.844444 L375.8,412.744444 C375.8,412.744444 375.8,412.744444 375.7,412.744444 L375.7,417.244444 L333.1,417.244444 L333.1,394.944444 L333.1,394.944444 L333.1,324.844444 L333.1,324.844444 Z" id="Path" fill="#FFFFFF"></path>
                <polygon id="Path" fill="#FFFFFF" points="127 785.644444 209.2 785.644444 209.2 833.044444 144.6 833.044444 144.6 832.644444 127 832.644444"></polygon>
                <rect id="Rectangle" fill="#FFFFFF" x="166.4" y="368.744444" width="1" height="1"></rect>
                <path d="M875.1,44.4444444 C889.5,44.4444444 903.9,44.4444444 918.4,44.4444444 C918.4,60.3444444 918.4,76.3444444 918.4,92.2444444 C904,92.2444444 889.6,92.2444444 875.1,92.2444444 C875.1,76.2444444 875.1,60.3444444 875.1,44.4444444 Z" id="Path" fill="#FFFFFF"></path>
                <path d="M83.2,368.744444 L126.4,368.744444 L126.4,405.444444 L126.7,405.444444 L126.7,416.444444 L121.6,416.444444 C121.6,416.444444 121.6,416.444444 121.6,416.544444 L83.2,416.544444 L83.2,368.744444 Z" id="Path" fill="#FFFFFF"></path>
                <path d="M499.1,600.844444 C499.1,586.844444 499.1,572.844444 499.1,558.444444 C500.4,557.044444 501.8,555.444444 504,553.044444 C516.4,553.044444 529.4,553.044444 542.4,553.044444 C542.4,568.944444 542.4,584.944444 542.4,600.844444 C527.9,600.844444 513.5,600.844444 499.1,600.844444 Z" id="Path" fill="#FFFFFF"></path>
                <path d="M292.4,645.244444 C292.4,660.944444 292.4,676.544444 292.4,692.644444 C278.4,692.644444 264.7,692.644444 250.4,692.644444 C250.4,678.544444 250.4,664.144444 250.4,648.144444 C253.2,647.344444 256.5,645.444444 259.9,645.344444 C270.8,645.044444 281.8,645.244444 292.4,645.244444 Z" id="Path" fill="#FFFFFF"></path>
                <path d="M582.3,44.4444444 C596.7,44.4444444 611.1,44.4444444 625.6,44.4444444 C625.6,60.3444444 625.6,76.3444444 625.6,92.2444444 C612.6,92.2444444 594.7,92.2444444 582.4,92.2444444 L582.4,86.9444444 C582.3,72.4444444 582.3,58.4444444 582.3,44.4444444 Z" id="Path" fill="#FFFFFF"></path>
                <polygon id="Path" fill="#FFFFFF" points="83.7 461.344444 126.1 461.344444 126.1 492.144444 126.2 492.144444 126.2 508.244444 122 508.244444 121.9 508.244444 83.7 508.244444"></polygon>
                <path d="M499.1,92.2444444 C499.1,78.2444444 499.1,64.2444444 499.1,49.8444444 C500.4,48.4444444 501.8,46.8444444 504,44.5444444 C516.4,44.5444444 529.4,44.5444444 542.4,44.5444444 C542.4,60.4444444 542.4,76.4444444 542.4,92.3444444 C527.9,92.2444444 513.5,92.2444444 499.1,92.2444444 Z" id="Path" fill="#FFFFFF"></path>
                <polygon id="Path" fill="#FFFFFF" points="416.4 460.344444 423.9 460.344444 423.9 461.244444 458.5 461.244444 458.5 508.244444 416.4 508.244444 416.4 467.844444 416.4 467.844444"></polygon>
                <polygon id="Path" fill="#FFFFFF" points="416.4 553.344444 431.8 553.344444 431.8 553.444444 458.7 553.444444 458.7 600.444444 416.3 600.444444 416.3 557.844444 416.4 557.744444"></polygon>
                <path d="M791.9,44.4444444 C804.9,44.7444444 817.9,44.8444444 830.9,45.3444444 C832.1,45.3444444 833.2,47.5444444 835.1,49.5444444 C835.1,63.2444444 835.1,77.7444444 835.1,92.2444444 C820.7,92.2444444 806.3,92.2444444 791.8,92.2444444 C791.9,76.2444444 791.9,60.3444444 791.9,44.4444444 Z" id="Path" fill="#FFFFFF"></path>
                <rect id="Rectangle" fill="#FFFFFF" x="332.8" y="692.844444" width="43.2" height="1"></rect>
                <path d="M337.6,553.044444 L376,553.044444 L376,600.844444 L332.8,600.844444 L332.8,558.444444 L332.9,558.344444 L332.9,553.144444 L337.6,553.044444 C337.6,553.144444 337.6,553.044444 337.6,553.044444 Z" id="Path" fill="#FFFFFF"></path>
                <path d="M351.6,136.344444 L347.7,136.344444 C349,136.344444 350.3,136.344444 351.6,136.344444 Z" id="Path" fill="#FFFFFF"></path>
                <path d="M333.3,44.4444444 L375.9,44.4444444 C375.9,51.5444444 376,58.6444444 376,65.8444444 L376,74.6444444 L376.3,74.6444444 L376.3,94.9444444 L333.4,94.9444444 L333.4,87.7444444 L333.4,87.7444444 L333.4,44.4444444 L333.3,44.4444444 Z" id="Path" fill="#FFFFFF"></path>
                <path d="M83.8,553.444444 L121.8,553.444444 C121.9,553.544444 122,553.644444 122.1,553.744444 L83.9,553.744444 L83.9,600.644444 L121.1,600.644444 L121.1,600.644444 L83.8,600.644444 L83.8,553.444444 Z" id="Path" fill="#FFFFFF"></path>
                <path d="M0.4,232.144444 L0.4,276.444444 L42.7,276.444444 L42.7,276.544444 L0.1,276.544444 C0.1,269.444444 0,262.344444 0,255.144444 C0,247.844444 0,240.544444 0,232.344444 C0.2,232.244444 0.3,232.244444 0.4,232.144444 Z" id="Path" fill="#FFFFFF"></path>
                <path d="M962.9,832.644444 L996.2,832.644444 L996.1,832.744444 L962.9,832.644444 C962.9,832.744444 962.9,832.644444 962.9,832.644444 Z" id="Path" fill="#000000"></path>
                <rect id="Rectangle" fill="#000000" x="1001" y="785.244444" width="1" height="1"></rect>
                <path d="M166.6,141.544444 L166.6,184.344444 L209.1,184.344444 L209.1,184.344444 L166.5,184.344444 C166.5,177.244444 166.4,170.144444 166.4,162.944444 C166.4,155.644444 166.4,148.344444 166.4,141.744444 C166.5,141.644444 166.5,141.544444 166.6,141.544444 Z" id="Path" fill="#FFFFFF"></path>
                <rect id="Rectangle" fill="#000000" x="709.3" y="136.544444" width="1" height="3.7"></rect>
                <path d="M541.8,508.644444 C529.6,508.644444 516.9,508.644444 504.1,508.644444 C502.6,507.044444 501,505.444444 498.9,503.244444 C501.1,489.744444 495.3,474.944444 502.3,461.144444 C516,461.144444 528.6,461.144444 541.8,461.144444 C541.8,477.144444 541.8,492.944444 541.8,508.644444 Z" id="Path" fill="#FFFFFF"></path>
                <polygon id="Path" fill="#FFFFFF" points="166.7 45.0444444 166.7 45.0444444 166.7 87.6444444 166.7 87.6444444"></polygon>
                <path d="M249.6,750.144444 L249.6,768.844444 C249.3,762.544444 248.9,756.344444 249.6,750.144444 Z" id="Path" fill="#FFFFFF"></path>
                <polygon id="Path" fill="#FFFFFF" points="252.5 737.744444 288.1 737.744444 288.1 737.744444"></polygon>
                <path d="M249.6,320.944444 C249.6,336.844444 249.6,352.844444 249.6,368.744444 C263.8,368.744444 277.9,368.744444 292.2,368.744444 L292.2,320.944444 L249.6,320.944444 Z" id="Path" fill="#FFFFFF"></path>
                <path d="M499.1,368.144444 L542.4,368.144444 L542.4,368.644444 L499.1,368.644444 C499.1,368.544444 499.1,368.344444 499.1,368.144444 Z" id="Path" fill="#FFFFFF"></path>
                <path d="M42.8,552.744444 C28.5,552.744444 14.8,552.744444 0.6,552.744444 C0.6,538.444444 0.6,524.444444 0.6,508.944444 C7,508.844444 13.9,508.644444 20.9,508.644444 C28,508.544444 35.1,508.644444 42.8,508.644444 C42.8,523.244444 42.8,537.344444 42.8,552.744444 Z" id="Path" fill="#FFFFFF"></path>
                <rect id="Rectangle" fill="#000000" x="625.1" y="367.444444" width="1" height="1.3"></rect>
                <path d="M292.6,92.7444444 C292.6,107.444444 292.6,121.444444 292.6,136.044444 C278.7,136.044444 265,136.044444 249.7,136.044444 C249.7,129.544444 249.6,122.344444 249.6,115.244444 C249.6,107.944444 249.6,100.644444 249.6,92.8444444 C263.8,92.7444444 277.5,92.7444444 292.6,92.7444444 Z" id="Path" fill="#FFFFFF"></path>
                <path d="M250.1,552.544444 C250.1,538.444444 250.1,523.944444 250.1,509.044444 C264.2,509.044444 277.8,509.044444 292.2,509.044444 C292.2,523.344444 292.2,537.644444 292.2,552.544444 C278,552.544444 263.8,552.544444 250.1,552.544444 Z" id="Path" fill="#FFFFFF"></path>
                <path d="M43.3,92.5444444 C43.3,107.544444 43.3,121.144444 43.3,135.744444 C36.6,137.444444 29.5,136.344444 22.6,136.544444 C15.5,136.744444 8.4,136.544444 0.7,136.544444 C0.7,122.044444 0.7,108.044444 0.7,92.8444444 C7.4,91.2444444 15,92.3444444 22.5,92.2444444 C29.4,92.1444444 36.4,92.4444444 43.3,92.5444444 Z" id="Path" fill="#FFFFFF"></path>
                <path d="M43.3,693.344444 C43.3,708.344444 43.3,721.944444 43.3,736.544444 C36.6,738.244444 29.5,737.144444 22.6,737.344444 C15.5,737.544444 8.4,737.344444 0.7,737.344444 C0.7,722.844444 0.7,708.844444 0.7,693.644444 C7.4,692.044444 15,693.144444 22.5,693.044444 C29.4,692.944444 36.4,693.244444 43.3,693.344444 Z" id="Path" fill="#FFFFFF"></path>
                <path d="M42.8,644.944444 C28.5,644.944444 14.9,644.944444 0.7,644.944444 C0.7,630.644444 0.7,616.644444 0.7,600.944444 C7,600.944444 14,600.844444 21,600.844444 C28.1,600.844444 35.2,600.844444 42.9,600.844444 C42.8,615.444444 42.8,629.444444 42.8,644.944444 Z" id="Path" fill="#FFFFFF"></path>
                <path d="M875.1,693.044444 L918.3,693.044444 L918.3,736.644444 C918.2,736.644444 918.2,736.644444 918.1,736.644444 C918,736.644444 917.9,736.644444 917.8,736.744444 C911.2,738.244444 904.3,737.244444 897.5,737.444444 C890.4,737.644444 883.3,737.444444 875,737.444444 L875.1,693.044444 L875.1,693.044444 Z" id="Path" fill="#FFFFFF"></path>
                <path d="M166.9,693.544444 C180.6,693.544444 194.8,693.544444 209.3,693.544444 C209.3,708.044444 209.3,722.044444 209.3,736.744444 C195.4,736.744444 181.4,736.744444 166.9,736.744444 C166.9,722.144444 166.9,707.644444 166.9,693.544444 Z" id="Path" fill="#FFFFFF"></path>
                <path d="M82.8,785.744444 C82.8,800.944444 82.8,816.644444 82.8,832.644444 C69.8,832.644444 57.3,832.644444 44.1,832.644444 C44.1,817.244444 44.1,801.744444 44.1,785.744444 C57.1,785.744444 70.2,785.744444 82.8,785.744444 Z" id="Path" fill="#FFFFFF"></path>
                <path d="M127.1,229.044444 C140.2,229.044444 152.7,229.044444 165.9,229.044444 C165.9,244.344444 165.9,259.544444 165.9,276.144444 C160.2,276.244444 153.8,276.444444 147.4,276.544444 C140.8,276.644444 134.3,276.544444 127.1,276.544444 C127.1,260.944444 127.1,245.744444 127.1,229.044444 Z" id="Path" fill="#FFFFFF"></path>
                <path d="M582.7,416.944444 C596.4,416.944444 610.6,416.944444 625.1,416.944444 C625.1,431.344444 625.1,445.344444 625.1,460.044444 C612.5,460.044444 599.6,460.044444 586.5,460.044444 C585.5,459.044444 584.4,457.844444 582.7,456.144444 C582.7,443.344444 582.7,429.944444 582.7,416.944444 Z" id="Path" fill="#FFFFFF"></path>
                <path d="M542.4,368.744444 L581.9,368.744444 L581.9,368.744444 C581.9,369.144444 582.6,375.744444 582.5,379.144444 C582.1,391.544444 582.3,404.044444 582.3,416.444444 L547.4,416.444444 C545.4,414.444444 544.3,413.244444 542.4,411.344444 L542.4,368.744444 Z" id="Path" fill="#FFFFFF"></path>
                <path d="M249.6,553.044444 C249.6,568.344444 249.6,583.744444 249.6,600.444444 C243.3,600.544444 236.9,600.744444 230.5,600.844444 C223.9,600.944444 217.4,600.844444 209.7,600.844444 C209.7,584.544444 209.7,568.844444 209.7,553.044444 C223,553.044444 236.3,553.044444 249.6,553.044444 Z" id="Path" fill="#FFFFFF"></path>
                <path d="M165.9,692.544444 C153.3,692.544444 140.2,692.544444 126.8,692.544444 C126.8,676.944444 126.8,661.844444 126.8,645.944444 C139.6,645.944444 152.5,645.944444 165.9,645.944444 C165.9,661.644444 165.9,677.344444 165.9,692.544444 Z" id="Path" fill="#FFFFFF"></path>
                <path d="M791.4,785.744444 C791.4,800.944444 791.4,816.644444 791.4,832.644444 C778.4,832.644444 765.9,832.644444 752.7,832.644444 C752.7,817.244444 752.7,801.744444 752.7,785.744444 C765.7,785.744444 778.8,785.744444 791.4,785.744444 Z" id="Path" fill="#FFFFFF"></path>
                <path d="M332.2,276.244444 C319.1,276.244444 306.5,276.244444 293.4,276.244444 C293.4,260.844444 293.4,245.644444 293.4,229.144444 C299.2,229.044444 305.6,228.844444 312,228.744444 C318.6,228.644444 325.1,228.744444 332.2,228.744444 C332.2,244.444444 332.2,259.644444 332.2,276.244444 Z" id="Path" fill="#FFFFFF"></path>
                <rect id="Rectangle" fill="#FFFFFF" x="459.9" y="785.744444" width="38.8" height="46.9"></rect>
                <path d="M43.9,276.544444 L44.1,276.544444 L44.1,323.444444 L44.7,323.444444 C44.4,323.544444 44.2,323.544444 43.9,323.544444 L43.9,276.544444 L43.9,276.544444 Z" id="Path" fill="#FFFFFF"></path>
                <polygon id="Path" fill="#FFFFFF" points="459.2 693.044444 459.2 693.044444 459.2 737.444444 459.2 737.444444"></polygon>
                <path d="M625.5,0.344444444 L665.2,0.344444444 L665.7,39.0444444 C665.7,39.1444444 665.6,42.2444444 665.7,42.6444444 C665.9,43.3444444 665.8,43.8444444 665.4,44.4444444 L625.5,44.4444444 L625.5,0.344444444 L625.5,0.344444444 Z" id="Path" fill="#FFFFFF"></path>
                <polygon id="Path" fill="#FFFFFF" points="126.8 315.144444 166.9 315.144444 166.9 368.744444 166.3 368.744444 166.3 369.044444 126.8 369.044444"></polygon>
                <path d="M126.8,325.244444 L126.8,368.744444 L126.5,368.744444 L126.5,325.344444 C126.6,325.244444 126.7,325.244444 126.8,325.244444 Z" id="Path" fill="#FFFFFF"></path>
                <polygon id="Path" fill="#FFFFFF" points="542.4 552.944444 581.5 552.944444 581.5 553.044444"></polygon>
                <path d="M625.5,508.644444 L665.4,508.644444 C666,509.744444 666.6,510.844444 666.9,511.244444 L666.9,511.244444 C664,526.244444 666.4,539.544444 665,552.944444 L625.5,552.944444 L625.5,508.644444 Z" id="Path" fill="#FFFFFF"></path>
                <path d="M376,693.044444 L376,693.044444 L376.1,737.444444 C376.1,737.444444 376.1,737.444444 376,737.444444 L376,693.044444 Z" id="Path" fill="#FFFFFF"></path>
                <rect id="Rectangle" fill="#FFFFFF" x="292.8" y="600.844444" width="39.9" height="44.4"></rect>
                <path d="M376,553.044444 C376,538.244444 376,523.444444 376,508.644444 C389.3,508.644444 402.6,508.644444 415.9,508.644444 C415.9,523.144444 415.9,537.644444 415.9,553.044444 C402.1,553.044444 389.1,553.044444 376,553.044444 Z" id="Path" fill="#FFFFFF"></path>
                <path d="M415.5,277.044444 C415.5,291.144444 415.5,305.644444 415.5,320.544444 C402.5,320.544444 390,320.544444 376.8,320.544444 C376.8,306.344444 376.8,291.944444 376.8,277.044444 C389.8,277.044444 402.9,277.044444 415.5,277.044444 Z" id="Path" fill="#FFFFFF"></path>
                <path d="M210.1,184.844444 C222.7,184.844444 235.8,184.844444 249.2,184.844444 C249.2,199.344444 249.2,213.244444 249.2,228.044444 C236.4,228.044444 223.5,228.044444 210.1,228.044444 C210.1,213.444444 210.1,198.944444 210.1,184.844444 Z" id="Path" fill="#FFFFFF"></path>
                <path d="M835.1,92.2444444 C848.4,92.2444444 861.7,92.2444444 875,92.2444444 C875,107.044444 875,121.844444 875,136.644444 C862,136.644444 848.9,136.644444 835.1,136.644444 C835.1,121.244444 835.1,106.744444 835.1,92.2444444 Z" id="Path" fill="#FFFFFF"></path>
                <path d="M874.6,43.9444444 C862,43.9444444 848.9,43.9444444 835.5,43.9444444 C835.5,29.4444444 835.5,15.5444444 835.5,0.744444444 C848.3,0.744444444 861.2,0.744444444 874.6,0.744444444 C874.6,15.3444444 874.6,29.8444444 874.6,43.9444444 Z" id="Path" fill="#FFFFFF"></path>
                <path d="M542.4,44.4444444 C542.4,30.2444444 542.4,16.0444444 542.4,0.444444444 C548.7,0.344444444 555.1,0.144444444 561.5,0.0444444444 C568.1,-0.0555555556 574.6,0.0444444444 582.3,0.0444444444 C582.3,15.2444444 582.3,29.8444444 582.3,44.4444444 C569,44.4444444 555.7,44.4444444 542.4,44.4444444 Z" id="Path" fill="#FFFFFF"></path>
                <path d="M83.2,460.944444 C70.5,460.944444 57.8,460.944444 44.1,460.944444 C42.5,454.044444 43.5,446.744444 43.4,439.644444 C43.2,432.344444 43.4,425.044444 43.4,416.644444 C57.1,416.644444 70.2,416.644444 83.3,416.644444 C83.2,431.344444 83.2,446.144444 83.2,460.944444 Z" id="Path" fill="#FFFFFF"></path>
                <path d="M791.4,43.9444444 C778.8,43.9444444 765.7,43.9444444 752.3,43.9444444 C752.3,29.4444444 752.3,15.5444444 752.3,0.744444444 C765.1,0.744444444 778,0.744444444 791.4,0.744444444 C791.4,15.3444444 791.4,29.8444444 791.4,43.9444444 Z" id="Path" fill="#FFFFFF"></path>
                <path d="M791.9,136.544444 C779.2,136.544444 766.5,136.544444 752.8,136.544444 C751.2,129.644444 752.2,122.344444 752.1,115.244444 C751.9,107.944444 752.1,100.644444 752.1,92.2444444 C765.8,92.2444444 778.9,92.2444444 792,92.2444444 C791.9,107.044444 791.9,121.844444 791.9,136.544444 Z" id="Path" fill="#FFFFFF"></path>
                <path d="M542.8,601.344444 C555.4,601.344444 568.5,601.344444 581.9,601.344444 C581.9,615.844444 581.9,629.744444 581.9,644.544444 C569.1,644.544444 556.2,644.544444 542.8,644.544444 C542.8,629.944444 542.8,615.444444 542.8,601.344444 Z" id="Path" fill="#FFFFFF"></path>
                <path d="M791.4,184.844444 C791.4,198.944444 791.4,213.444444 791.4,228.344444 C778.4,228.344444 765.9,228.344444 752.7,228.344444 C752.7,214.144444 752.7,199.744444 752.7,184.844444 C765.7,184.844444 778.8,184.844444 791.4,184.844444 Z" id="Path" fill="#FFFFFF"></path>
                <path d="M210.1,43.9444444 C210.1,29.8444444 210.1,15.3444444 210.1,0.444444444 C223.1,0.444444444 235.6,0.444444444 248.8,0.444444444 C248.8,14.6444444 248.8,29.0444444 248.8,43.9444444 C235.8,43.9444444 222.7,43.9444444 210.1,43.9444444 Z" id="Path" fill="#FFFFFF"></path>
                <path d="M459.2,136.544444 C459.2,121.744444 459.2,106.944444 459.2,92.1444444 C472.5,92.1444444 485.8,92.1444444 499.1,92.1444444 C499.1,106.644444 499.1,121.144444 499.1,136.544444 C485.3,136.544444 472.2,136.544444 459.2,136.544444 Z" id="Path" fill="#FFFFFF"></path>
                <path d="M82.7,228.444444 C69.5,228.444444 57,228.444444 43.9,228.444444 C43.9,214.144444 43.9,200.144444 43.9,184.744444 C49.7,184.644444 56.1,184.444444 62.5,184.344444 C69.1,184.244444 75.6,184.344444 82.7,184.344444 C82.7,198.944444 82.7,212.944444 82.7,228.444444 Z" id="Path" fill="#FFFFFF"></path>
                <path d="M82.8,43.9444444 C70.2,43.9444444 57.1,43.9444444 43.7,43.9444444 C43.7,29.4444444 43.7,15.5444444 43.7,0.744444444 C56.5,0.744444444 69.4,0.744444444 82.8,0.744444444 C82.8,15.3444444 82.8,29.8444444 82.8,43.9444444 Z" id="Path" fill="#FFFFFF"></path>
                <path d="M918.3,44.4444444 C918.3,30.2444444 918.3,16.0444444 918.3,0.444444444 C924.6,0.344444444 931,0.144444444 937.4,0.0444444444 C944,-0.0555555556 950.5,0.0444444444 958.2,0.0444444444 C958.2,15.2444444 958.2,29.8444444 958.2,44.4444444 C944.9,44.4444444 931.6,44.4444444 918.3,44.4444444 Z" id="Path" fill="#FFFFFF"></path>
                <path d="M459.2,600.844444 C472.5,600.844444 485.8,600.844444 499.1,600.844444 C499.1,615.344444 499.1,629.844444 499.1,645.244444 C485.3,645.244444 472.2,645.244444 459.2,645.244444 C459.2,630.444444 459.2,615.644444 459.2,600.844444 Z" id="Path" fill="#FFFFFF"></path>
                <path d="M332.3,43.9444444 C319.7,43.9444444 306.6,43.9444444 293.2,43.9444444 C293.2,29.4444444 293.2,15.5444444 293.2,0.744444444 C306,0.744444444 318.9,0.744444444 332.3,0.744444444 C332.3,15.3444444 332.3,29.8444444 332.3,43.9444444 Z" id="Path" fill="#FFFFFF"></path>
                <path d="M332.3,460.444444 C319.7,460.444444 306.6,460.444444 293.2,460.444444 C293.2,445.944444 293.2,432.044444 293.2,417.244444 C306,417.244444 318.9,417.244444 332.3,417.244444 C332.3,431.744444 332.3,446.344444 332.3,460.444444 Z" id="Path" fill="#FFFFFF"></path>
                <path d="M249.1,320.444444 C236.5,320.444444 223.4,320.444444 210,320.444444 C210,305.944444 210,292.044444 210,277.244444 C222.8,277.244444 235.7,277.244444 249.1,277.244444 C249.1,291.844444 249.1,306.344444 249.1,320.444444 Z" id="Path" fill="#FFFFFF"></path>
                <path d="M918.3,92.2444444 C931.6,92.2444444 944.9,92.2444444 958.2,92.2444444 C958.2,107.044444 958.2,121.844444 958.2,136.644444 C945.2,136.644444 932.1,136.644444 918.3,136.644444 C918.3,121.244444 918.3,106.744444 918.3,92.2444444 Z" id="Path" fill="#FFFFFF"></path>
            </g>
            <polygon id="Path" fill="#000000" points="752 692.844444 753.8 692.844444 753.8 693.144444 752 693.144444 752 693.044444"></polygon>
            <path d="M834.8,416.844444 L834.8,417.144444 L835.1,417.144444 L835.1,416.744444 C835,416.844444 834.9,416.844444 834.8,416.844444 Z M834.8,416.844444 L834.8,417.144444 L835.1,417.144444 L835.1,416.744444 C835,416.844444 834.9,416.844444 834.8,416.844444 Z M834.8,416.844444 L834.8,417.144444 L835.1,417.144444 L835.1,416.744444 C835,416.844444 834.9,416.844444 834.8,416.844444 Z M834.8,416.844444 L834.8,417.144444 L835.1,417.144444 L835.1,416.744444 C835,416.844444 834.9,416.844444 834.8,416.844444 Z M834.8,416.844444 L834.8,417.144444 L835.1,417.144444 L835.1,416.744444 C835,416.844444 834.9,416.844444 834.8,416.844444 Z M834.8,416.844444 L834.8,417.144444 L835.1,417.144444 L835.1,416.744444 C835,416.844444 834.9,416.844444 834.8,416.844444 Z M834.8,416.844444 L834.8,417.144444 L835.1,417.144444 L835.1,416.744444 C835,416.844444 834.9,416.844444 834.8,416.844444 Z M834.8,416.844444 L834.8,417.144444 L835.1,417.144444 L835.1,416.744444 C835,416.844444 834.9,416.844444 834.8,416.844444 Z M834.8,416.844444 L834.8,417.144444 L835.1,417.144444 L835.1,416.744444 C835,416.844444 834.9,416.844444 834.8,416.844444 Z M834.8,416.844444 L834.8,417.144444 L835.1,417.144444 L835.1,416.744444 C835,416.844444 834.9,416.844444 834.8,416.844444 Z M1290.9,732.944444 L1291.4,732.944444 C1291.2,732.144444 1291.1,731.344444 1291.1,730.544444 C1291,728.244444 1291,725.844444 1290.9,723.544444 L1290.9,732.944444 Z M1226,737.444444 C1221.6,737.244444 1217.2,737.444444 1212.7,737.444444 L1212.6,737.544444 L1232.8,737.544444 C1230.7,737.344444 1228.2,737.544444 1226,737.444444 Z M846,737.444444 L857.5,737.444444 C853.7,737.244444 849.8,737.144444 846,737.444444 Z M868.6,737.444444 L870.1,737.444444 L870,737.344444 C869.5,737.344444 869,737.344444 868.6,737.444444 Z M791.9,508.644444 L791.9,508.644444 L820.6,508.644444 C811.1,508.444444 801.5,508.644444 791.9,508.644444 Z M834.8,416.844444 L834.8,417.144444 L835.1,417.144444 L835.1,416.744444 C835,416.844444 834.9,416.844444 834.8,416.844444 Z M1251,276.544444 C1251.2,276.544444 1251.3,276.544444 1251.5,276.544444 L1251.5,228.244444 C1251,244.644444 1251,260.644444 1251,276.544444 Z M834.8,416.844444 L834.8,417.144444 L835.1,417.144444 L835.1,416.744444 C835,416.844444 834.9,416.844444 834.8,416.844444 Z M834.8,416.844444 L834.8,417.144444 L835.1,417.144444 L835.1,416.744444 C835,416.844444 834.9,416.844444 834.8,416.844444 Z M1290.9,732.944444 L1291.4,732.944444 C1291.2,732.144444 1291.1,731.344444 1291.1,730.544444 C1291,728.244444 1291,725.844444 1290.9,723.544444 L1290.9,732.944444 Z M834.8,416.844444 L834.8,417.144444 L835.1,417.144444 L835.1,416.744444 C835,416.844444 834.9,416.844444 834.8,416.844444 Z M834.8,416.844444 L834.8,417.144444 L835.1,417.144444 L835.1,416.744444 C835,416.844444 834.9,416.844444 834.8,416.844444 Z M834.8,416.844444 L834.8,417.144444 L835.1,417.144444 L835.1,416.744444 C835,416.844444 834.9,416.844444 834.8,416.844444 Z M834.8,416.844444 L834.8,417.144444 L835.1,417.144444 L835.1,416.744444 C835,416.844444 834.9,416.844444 834.8,416.844444 Z M834.8,416.844444 L834.8,417.144444 L835.1,417.144444 L835.1,416.744444 C835,416.844444 834.9,416.844444 834.8,416.844444 Z M834.8,416.844444 L834.8,417.144444 L835.1,417.144444 L835.1,416.744444 C835,416.844444 834.9,416.844444 834.8,416.844444 Z M834.8,416.844444 L834.8,417.144444 L835.1,417.144444 L835.1,416.744444 C835,416.844444 834.9,416.844444 834.8,416.844444 Z M834.8,416.844444 L834.8,417.144444 L835.1,417.144444 L835.1,416.744444 C835,416.844444 834.9,416.844444 834.8,416.844444 Z" id="Shape" fill="#000000"></path>
            <rect id="Rectangle" fill="#000000" x="625.1" y="367.444444" width="1" height="1.3"></rect>
            <path d="M415.3,320.744444 L459.9,320.744444 L459.9,368.144444 L499.1,368.144444 L499.1,414.644444 C498.8,415.044444 498.5,415.544444 498,415.844444 C497.6,416.144444 497.1,416.444444 496.6,416.444444 C484.4,416.444444 472.1,416.444444 459.9,416.444444 L459.9,416.644444 L415.3,416.644444 L415.3,320.744444 Z" id="Path" fill="#FFFFFF"></path>
            <rect id="Rectangle" fill="#FFFFFF" x="82.5" y="737.044444" width="44.6" height="48.6"></rect>
            <polygon id="Path" fill="#000000" points="752 692.844444 753.8 692.844444 753.8 693.044444 755.3 693.044444 755.3 693.144444 752 693.144444 752 693.044444"></polygon>
            <rect id="Rectangle" fill="#000000" x="625.1" y="367.444444" width="1" height="1.3"></rect>
            <path d="M542.3,507.044444 L587.7,507.044444 L587.7,552.244444 L625.6,552.244444 L625.6,553.144444 L626.1,553.144444 L626.1,600.944444 L625.6,600.944444 C621,600.944444 616.3,600.944444 611.7,601.044444 L582.4,601.044444 L582.4,553.044444 L542.3,553.044444 L542.3,507.044444 Z" id="Path" fill="#FFFFFF"></path>
            <path d="M625.5,600.844444 L626,600.844444 L626,600.944444 L611.5,600.944444 C616.2,600.944444 620.9,600.844444 625.5,600.844444 Z" id="Path" fill="#000000"></path>
            <rect id="Rectangle" fill="#000000" x="625.5" y="552.144444" width="1" height="1"></rect>
            <rect id="Rectangle" fill="#FFFFFF" x="0.4" y="228.444444" width="43.4" height="47.9"></rect>
            <rect id="Rectangle" fill="#FFFFFF" x="44.1" y="276.244444" width="40.1" height="47.2"></rect>
            <path d="M664.9,42.6444444 L666.4,42.6444444 C666.1,43.2444444 665.7,43.8444444 665.4,44.4444444 L664.9,44.4444444 L664.9,42.6444444 Z" id="Path" fill="#000000"></path>
            <rect id="Rectangle" fill="#000000" x="709.3" y="136.544444" width="1" height="3.7"></rect>
            <polygon id="Path" fill="#FFFFFF" points="709.6 136.544444 752.7 136.544444 752.7 184.344444 709.3 184.344444 709.3 140.344444 709.6 140.344444"></polygon>
            <rect id="Rectangle" fill="#000000" x="709.3" y="136.544444" width="1" height="3.7"></rect>
            <path d="M1001,736.644444 L1001.2,736.644444 L1001.2,736.844444 C1001.1,736.844444 1001.1,736.844444 1001,736.844444 L1001,736.644444 Z" id="Path" fill="#000000"></path>
            <rect id="Rectangle" fill="#000000" x="1001" y="785.244444" width="1" height="1"></rect>
            <path d="M1001,736.644444 L1001.2,736.644444 L1001.2,736.844444 C1001.1,736.844444 1001.1,736.844444 1001,736.844444 L1001,736.644444 Z" id="Path" fill="#000000"></path>
            <path d="M917.8,736.644444 L918.1,736.644444 C918,736.644444 917.9,736.744444 917.8,736.644444 L917.8,736.644444 Z" id="Path" fill="#000000"></path>
            <path d="M958.2,736.644444 L958.2,736.644444 L958.3,737.444444 C958.3,737.444444 958.3,737.444444 958.2,737.444444 L958.2,736.644444 Z" id="Path" fill="#000000"></path>
            <path d="M591.3,737.444444 L607.4,737.444444 C601.9,737.444444 596.5,737.544444 591.3,737.444444 Z" id="Path" fill="#000000"></path>
            <path d="M499.1,693.044444 L499.1,740.844444 L499.2,740.844444 L499.2,737.444444 L509.8,737.444444 C514.4,736.744444 519,736.944444 523.8,737.444444 L539.3,737.444444 C540.3,736.944444 541.4,736.344444 542.6,735.644444 L542.6,693.044444 L582.2,693.044444 L582.2,736.944444 C585.2,737.144444 588.2,737.344444 591.2,737.444444 C596.5,737.544444 601.8,737.444444 607.3,737.444444 L625.6,737.444444 L625.6,738.344444 L626.2,738.344444 L626.2,784.944444 L598.8,784.944444 L598.8,833.044444 L549.9,833.044444 C547.6,833.044444 545.2,833.044444 542.7,833.044444 L542.7,785.244444 L498.9,785.244444 L498.9,742.044444 L459,742.044444 L459,693.044444 L499.1,693.044444 Z" id="Path" fill="#FFFFFF"></path>
            <path d="M542.7,785.244444 L542.9,785.244444 L542.9,833.044444 C545.3,833.044444 547.7,833.044444 550.1,833.044444 L542.7,833.044444 L542.7,785.244444 L542.7,785.244444 Z" id="Path" fill="#FFFFFF"></path>
            <rect id="Rectangle" fill="#FFFFFF" x="249.6" y="737.744444" width="47.4" height="47.4"></rect>
            <rect id="Rectangle" fill="#FFFFFF" x="166.3" y="368.744444" width="1" height="1"></rect>
            <polygon id="Path" fill="#FFFFFF" points="166.9 368.744444 249.6 368.744444 249.6 416.444444 166.3 416.444444 166.3 369.044444 166.9 369.044444"></polygon>
            <rect id="Rectangle" fill="#FFFFFF" x="166.3" y="368.744444" width="1" height="1"></rect>
            <rect id="Rectangle" fill="#FFFFFF" x="83.9" y="553.644444" width="43.8" height="46.9"></rect>
            <rect id="Rectangle" fill="#000000" x="625.4" y="367.444444" width="1" height="1.3"></rect>
            <rect id="Rectangle" fill="#FFFFFF" x="498.1" y="320.944444" width="44.3" height="47.3"></rect>
            <path d="M834.7,416.444444 L834.7,416.444444 C834.9,416.444444 835,416.444444 835.1,416.444444 L835.1,416.744444 L835.2,416.744444 L835.2,417.144444 L834.8,417.144444 L834.8,416.844444 L834.7,416.844444 L834.7,416.444444 L834.7,416.444444 Z" id="Path" fill="#000000"></path>
            <path d="M834.8,416.444444 C834.9,416.444444 835,416.444444 835.1,416.444444 L835.1,416.744444 L835.2,416.744444 L835.2,417.144444 L834.8,417.144444 L834.8,416.444444 L834.8,416.444444 Z" id="Path" fill="#000000"></path>
            <path d="M820.6,508.744444 L791.9,508.744444 L791.9,508.744444 C801.5,508.644444 811.1,508.444444 820.6,508.744444 Z" id="Path" fill="#000000"></path>
            <path d="M1290.9,693.044444 L1290.9,723.544444 C1290.8,713.344444 1290.9,703.244444 1290.9,693.044444 Z" id="Path" fill="#000000"></path>
            <path d="M857.5,737.444444 L868.6,737.444444 C864.9,737.644444 861.2,737.544444 857.5,737.444444 Z" id="Path" fill="#000000"></path>
            <rect id="Rectangle" fill="#FFFFFF" x="498.2" y="461.144444" width="43.6" height="47.4"></rect>
            <rect id="Rectangle" fill="#FFFFFF" x="166.6" y="461.044444" width="43.5" height="91.5"></rect>
            <rect id="Rectangle" fill="#FFFFFF" x="166.8" y="43.9444444" width="43.3" height="49.2"></rect>
            <rect id="Rectangle" fill="#FFFFFF" x="166.6" y="136.344444" width="43.2" height="48"></rect>
            <path d="M1251.5,228.244444 L1251.5,276.544444 C1251.3,276.544444 1251.2,276.544444 1251,276.544444 C1251,260.644444 1251,244.644444 1251.5,228.244444 Z" id="Path" fill="#000000"></path>
            <rect id="Rectangle" fill="#FFFFFF" x="499.6" y="553.044444" width="42.8" height="47.7"></rect>
            <path d="M332.8,460.944444 L376,460.944444 L376,508.744444 L337.7,508.744444 C337.6,508.644444 337.6,508.644444 337.5,508.544444 L332.7,508.544444 L332.7,503.644444 L332.7,503.644444 L332.8,460.944444 L332.8,460.944444 Z" id="Path" fill="#FFFFFF"></path>
            <path d="M581.5,184.044444 L625.4,184.044444 L625.4,239.644444 L582.2,239.644444 C582.2,241.144444 582.2,242.644444 582.2,244.144444 C582.2,255.144444 582.3,266.144444 582.3,277.244444 C582.3,291.544444 582.3,306.044444 582.3,320.844444 L542.4,320.844444 L542.4,277.244444 L499.2,277.244444 L499.2,226.944444 L581.5,226.944444 L581.5,184.044444 Z" id="Path" fill="#FFFFFF"></path>
            <path d="M1333.9,43.9444444 L1290.6,43.9444444 L1290.6,0.544444444 L1251.1,0.544444444 C1251.1,8.34444444 1251.1,15.6444444 1251.1,22.9444444 C1251.1,30.1444444 1251,37.2444444 1251,43.7444444 L1207.8,43.7444444 C1207.8,35.8444444 1208,28.5444444 1207.8,21.2444444 C1207.6,14.1444444 1208.7,6.84444444 1207.1,0.544444444 L1001.5,0.544444444 C1001.5,8.34444444 1001.6,15.6444444 1001.5,23.0444444 C1001.3,30.1444444 1002.3,37.4444444 1000.8,44.4444444 L958.3,44.4444444 L958.3,92.2444444 L1000.8,92.2444444 C1002.4,99.1444444 1001.4,106.444444 1001.6,113.544444 C1001.8,120.844444 1001.6,128.144444 1001.6,136.544444 L958.4,136.544444 L958.4,184.344444 L1000.9,184.344444 C1002.5,191.244444 1001.5,198.544444 1001.7,205.644444 C1001.9,212.944444 1001.7,220.244444 1001.7,228.644444 C986.9,228.644444 972.7,228.644444 958.2,228.844444 C958,244.244444 958,259.944444 958,276.044444 L919.2,276.044444 L919.2,229.144444 C932.2,229.144444 945.3,229.144444 958.2,228.944444 C958.4,213.944444 958.4,199.144444 958.4,184.344444 L918.9,184.344444 C918.4,177.344444 918.4,170.344444 918.5,163.144444 C918.5,161.244444 918.5,159.344444 918.5,157.344444 L918.5,136.544444 L875.5,136.544444 L875.5,136.544444 C875.4,136.544444 875.4,136.544444 875.3,136.544444 L875.3,184.344444 L835.4,184.344444 L835.4,276.544444 L792.6,276.544444 L792.6,307.044444 L752.9,307.044444 L752.9,228.344444 L625.5,228.344444 L625.5,320.944444 L581.8,320.944444 L581.8,368.744444 L625.1,368.744444 L625.1,367.444444 L625.5,367.444444 L625.5,368.744444 L625.1,368.744444 L625.1,416.844444 L664.8,416.844444 L664.8,416.444444 L665.4,416.444444 C665.5,416.544444 665.6,416.644444 665.6,416.844444 L664.8,416.844444 L664.8,508.444444 L708.7,508.444444 L708.7,645.144444 L666.2,645.144444 C664.6,638.244444 665.6,630.944444 665.4,623.844444 C665.2,616.544444 665.4,609.244444 665.4,600.844444 L626,600.844444 L626,600.944444 L625.5,600.944444 L625.5,645.144444 L582,645.144444 L582,692.644444 L582.3,692.644444 L582.3,693.044444 L625.5,693.044444 C625.5,701.444444 625.4,708.744444 625.5,716.044444 C625.6,721.844444 625,727.844444 625.6,733.544444 L625.6,738.344444 L665,738.344444 L665,832.644444 L709.2,832.644444 L709.2,741.344444 L708.9,741.344444 L708.9,740.644444 C708.8,740.744444 708.7,740.744444 708.6,740.744444 L708.6,736.944444 L665.7,736.944444 L665.7,692.944444 L708.9,692.944444 L708.9,736.944444 L709.2,736.944444 L709.2,741.244444 L753.7,741.244444 L753.7,693.044444 L751.9,693.044444 L751.9,692.944444 L751.9,692.744444 L753.7,692.744444 L753.7,692.944444 L791.8,692.944444 L791.8,785.144444 L835.6,785.144444 L835.6,832.444444 L836.5,832.444444 L836.5,832.544444 L875,832.544444 L875,737.344444 L868.5,737.344444 C864.8,737.644444 861.1,737.444444 857.4,737.344444 L837.6,737.344444 L837.6,692.944444 L875,692.944444 L875,645.144444 L918.2,645.144444 C918.2,630.344444 918.2,615.544444 918,600.544444 C904,600.244444 889.8,600.244444 875.3,600.244444 L875.3,509.344444 L917.8,509.344444 C917.8,539.844444 917.8,570.344444 918,600.544444 C930.9,600.844444 943.7,600.844444 957.4,600.844444 C959,607.844444 958,615.044444 958.1,622.144444 C958.3,629.444444 958.1,636.744444 958.1,645.144444 L918.2,645.144444 L918.2,692.944444 L958.1,692.944444 L958.1,736.544444 L958.2,736.544444 L958.2,737.344444 C958.2,737.344444 958.2,737.344444 958.1,737.344444 L958.1,736.544444 L918,736.544444 C917.9,736.544444 917.8,736.544444 917.7,736.644444 L917.7,784.944444 L958.2,784.944444 L958.2,785.144444 L958,785.144444 L958,832.544444 L1001.4,832.544444 L1001.4,785.344444 L1001,785.344444 L1001,785.144444 L1041.2,785.144444 L1041.2,811.644444 L1041,811.644444 L1041,832.544444 L1065.3,832.544444 L1065.3,832.544444 L1124.6,832.544444 C1124.6,816.544444 1124.6,800.844444 1124.4,784.844444 C1111.6,784.644444 1098.5,784.644444 1085.1,784.644444 L1085.1,738.044444 L1124.2,738.044444 C1124.2,753.744444 1124.2,769.444444 1124.4,784.844444 C1139.1,785.044444 1153.5,785.044444 1167.9,785.044444 L1167.9,737.544444 L1207.5,737.544444 L1207.5,692.944444 L1251.1,692.944444 L1251.1,645.544444 C1257.4,645.444444 1263.8,645.244444 1270.2,645.144444 C1276.8,645.044444 1283.3,645.144444 1291,645.144444 L1291,692.944444 L1334.2,692.944444 C1334.2,700.044444 1334.3,707.144444 1334.3,714.344444 C1334.3,720.544444 1334.3,726.644444 1334.3,732.844444 L1291.1,732.844444 L1291.1,723.444444 C1290.9,713.244444 1291.1,703.144444 1291.1,692.944444 L1251.2,692.944444 L1251.2,735.944444 C1250.6,736.444444 1250,736.944444 1249.4,737.544444 L1207.8,737.544444 L1207.8,785.244444 L1168,785.244444 L1168,832.744444 L1329.7,832.744444 L1329.7,832.744444 L1335.1,832.744444 L1335.1,785.744444 L1374.1,785.744444 L1374.1,827.144444 C1374.2,827.244444 1374.2,827.244444 1374.2,827.344444 L1374.2,833.144444 L1418.1,833.144444 L1418.1,785.344444 C1425.2,785.344444 1431.7,785.344444 1438.2,785.344444 C1444.6,785.244444 1451.1,785.044444 1456.9,784.944444 L1456.9,600.944444 L1418.2,600.944444 L1418.2,552.944444 L1456.8,552.944444 L1456.8,368.444444 L1418.4,368.444444 L1418.4,320.444444 L1456.9,320.444444 C1458.8,279.444444 1458.2,198.244444 1455.8,184.344444 C1443,184.344444 1430.3,184.344444 1417.3,184.544444 C1417.1,198.844444 1417.1,213.444444 1417.1,228.344444 L1375,228.344444 L1375,184.844444 C1389.2,184.844444 1403.4,184.844444 1417.3,184.644444 C1417.5,168.644444 1417.5,152.844444 1417.5,136.644444 C1425.2,136.644444 1431.8,136.644444 1438.3,136.644444 C1444.7,136.544444 1451.1,136.444444 1456.8,136.344444 L1456.8,92.0444444 L1418.2,92.0444444 L1418.2,44.1444444 L1456.7,44.1444444 L1456.7,0.444444444 L1334,0.444444444 L1334,43.9444444 L1333.9,43.9444444 Z M1040.7,693.444444 L1040.7,736.644444 L1001.2,736.644444 L1001.2,736.844444 C1001.1,736.844444 1001.1,736.844444 1001,736.844444 L1001,736.644444 L1001.2,736.644444 L1001.2,693.444444 L1040.7,693.444444 Z M1373.6,601.544444 L1373.6,644.744444 C1388.3,645.744444 1402.4,645.744444 1417,645.744444 L1417,692.344444 L1374.6,692.344444 L1374.6,645.744444 C1361.1,644.744444 1348,644.744444 1334.6,644.744444 L1334.6,601.544444 L1373.6,601.544444 Z M1207.1,601.444444 C1208.6,607.744444 1207.6,615.044444 1207.7,622.144444 C1207.9,629.444444 1207.7,636.744444 1207.7,644.644444 L1168.1,644.644444 L1168.1,601.444444 L1207.1,601.444444 Z M1041.5,228.244444 C1041.5,221.744444 1041.4,214.544444 1041.4,207.444444 C1041.4,200.144444 1041.4,192.844444 1041.4,185.044444 L1084.4,185.044444 L1084.4,228.244444 L1041.5,228.244444 Z M1041.4,277.344444 L1083.6,277.344444 C1083.6,291.544444 1083.7,305.944444 1083.4,320.344444 C1083.4,321.544444 1081.2,322.744444 1079.9,324.044444 L1044.4,324.044444 C1043.4,320.644444 1041.7,317.244444 1041.6,313.744444 C1041.2,301.844444 1041.4,290.044444 1041.4,277.344444 Z M957.7,319.744444 L1006.1,319.744444 L1006.1,370.244444 L957.7,370.244444 L957.7,319.744444 Z M920.9,368.244444 L875.3,368.244444 L875.3,319.544444 L920.9,319.544444 L920.9,368.244444 Z M664.4,326.944444 L664.4,271.744444 L708.2,271.744444 L708.2,326.944444 L664.4,326.944444 Z M668.3,413.244444 L668.3,368.744444 L708.4,368.744444 L708.4,327.244444 L751.9,327.244444 C751.9,334.244444 751.9,340.744444 751.9,347.244444 C751.9,354.444444 751.9,361.544444 751.8,368.744444 L708.6,368.744444 C708.6,383.544444 708.6,398.344444 708.8,413.244444 L668.3,413.244444 Z M709.2,460.244444 C709.2,446.044444 709.2,432.044444 709,418.044444 L752,418.044444 L752,422.144444 C752.2,424.944444 752.1,427.844444 752,430.844444 L752,444.244444 C752,446.044444 752,447.944444 752,449.744444 C752,453.144444 752,456.644444 752,460.244444 L709.2,460.244444 Z M1042.1,600.444444 L1042.1,553.544444 L1084.2,553.544444 C1085.2,538.544444 1085.2,523.944444 1085.2,509.044444 L1123.9,509.044444 L1123.9,552.544444 L1085.2,552.544444 C1084.2,568.744444 1084.2,584.444444 1084.2,600.444444 L1042.1,600.444444 Z M1333.5,509.044444 L1333.5,552.544444 L1291.4,552.544444 C1290.5,568.744444 1290.5,584.444444 1290.5,600.444444 L1251.7,600.444444 L1251.7,553.544444 L1290.5,553.544444 C1291.4,538.444444 1291.4,523.944444 1291.4,509.044444 L1333.5,509.044444 L1333.5,509.044444 Z M1250.3,461.244444 L1250.3,508.144444 L1208.2,508.144444 C1207.3,523.144444 1207.3,537.744444 1207.3,552.644444 L1168.6,552.644444 L1168.6,509.144444 L1207.3,509.144444 C1208.2,492.944444 1208.2,477.244444 1208.2,461.244444 L1250.3,461.244444 L1250.3,461.244444 Z M874.3,460.944444 L835.2,460.944444 L835.2,508.744444 L827.2,508.744444 C826.4,508.844444 825.6,508.844444 824.7,508.844444 C823.4,508.744444 822,508.744444 820.7,508.744444 L792,508.744444 L792,508.744444 L792,508.744444 L792,600.944444 C806.2,601.444444 820.4,601.444444 834.9,601.444444 L834.9,644.644444 L792.4,644.644444 L792.4,601.444444 C779.9,600.944444 767.8,600.944444 755.3,600.944444 L755.3,508.744444 L791.9,508.744444 L791.9,460.944444 L835.1,460.944444 L835.1,460.944444 L834.8,460.944444 L834.8,417.244444 L790.8,417.244444 L790.8,368.444444 L835.2,368.444444 L835.2,414.144444 L877,414.144444 L877,460.844444 L874.3,460.944444 L874.3,460.944444 Z M957.7,460.544444 L919,460.544444 L919,460.444444 L918.1,460.444444 L918.1,412.444444 L959.4,412.444444 L959.4,460.444444 L957.7,460.544444 L957.7,460.544444 Z M1042,460.644444 L1042,416.644444 C1048.3,416.644444 1055.3,416.544444 1062.3,416.544444 C1069.4,416.544444 1076.5,416.544444 1084.2,416.544444 L1084.2,460.644444 L1042,460.644444 Z M1373.4,369.144444 L1373.4,416.044444 L1334.6,416.044444 C1333.7,431.144444 1333.7,445.644444 1333.7,460.544444 L1291.6,460.544444 L1291.6,417.044444 L1333.7,417.044444 C1334.6,400.844444 1334.6,385.144444 1334.6,369.144444 L1373.4,369.144444 Z M1207.2,368.744444 C1221.9,369.244444 1236.1,369.244444 1250.7,369.244444 L1250.7,415.844444 L1210.6,415.844444 C1209.8,412.944444 1208,409.544444 1207.9,406.044444 C1207.5,393.644444 1207.8,381.244444 1207.8,369.244444 C1202.8,369.044444 1197.7,368.944444 1192.6,368.944444 L1167.3,368.944444 L1167.3,318.144444 L1207.2,318.144444 L1207.2,319.944444 L1207.2,319.944444 L1207.2,368.744444 L1207.2,368.744444 Z M1374.9,275.444444 L1374.9,325.144444 L1334.9,325.144444 C1334.8,325.244444 1334.7,325.444444 1334.6,325.544444 L1334.6,325.144444 L1333.9,325.144444 L1333.9,275.444444 L1374.9,275.444444 Z M1290.2,184.744444 L1290.2,228.244444 L1251.4,228.244444 L1251.4,276.544444 C1264.3,277.044444 1277.3,277.044444 1290.5,277.044444 L1290.5,323.644444 L1251.4,323.644444 L1251.4,277.344444 L1207.6,277.344444 L1207.6,228.244444 L1250.9,228.244444 C1251.4,213.844444 1251.4,199.444444 1251.4,184.744444 L1290.2,184.744444 L1290.2,184.744444 Z M1333.9,92.7444444 L1333.9,135.944444 L1291,135.944444 C1291,129.444444 1290.9,122.244444 1290.9,115.144444 C1290.9,107.844444 1290.9,100.544444 1290.9,92.7444444 C1290.9,92.7444444 1333.9,92.7444444 1333.9,92.7444444 Z M1250.3,92.5444444 L1250.3,136.044444 L1208.2,136.044444 C1207.3,152.244444 1207.3,167.944444 1207.3,183.944444 L1168.5,183.944444 L1168.5,137.044444 L1207.3,137.044444 C1208.2,121.944444 1208.2,107.444444 1208.2,92.5444444 C1208.2,92.5444444 1250.3,92.5444444 1250.3,92.5444444 Z M1167.1,44.8444444 L1167.1,89.3444444 C1164.3,90.1444444 1161,91.9444444 1157.6,92.1444444 C1146.6,92.5444444 1135.6,92.2444444 1125.1,92.2444444 C1124.7,106.444444 1124.7,120.644444 1124.7,136.244444 C1118.4,136.344444 1112,136.544444 1105.6,136.644444 C1099,136.744444 1092.5,136.644444 1084.8,136.644444 L1084.8,92.2444444 C1070.6,91.7444444 1056.4,91.7444444 1041.9,91.7444444 L1041.9,45.1444444 L1084.3,45.1444444 L1084.3,91.7444444 C1098.1,92.2444444 1111.4,92.2444444 1124.7,92.2444444 C1125.1,76.5444444 1125.1,60.9444444 1125.1,44.8444444 L1167.1,44.8444444 Z" id="Shape" fill="#FFFFFF"></path>
            <rect id="Rectangle" fill="#FFFFFF" x="332.8" y="645.144444" width="43.3" height="47.7"></rect>
            <rect id="Rectangle" fill="#FFFFFF" x="332.6" y="645.144444" width="1" height="47.7"></rect>
            <path d="M428.1,645.144444 L428.8,645.144444 L428.8,645.144444 C428.6,645.144444 428.4,645.144444 428.1,645.144444 Z" id="Path" fill="#FFFFFF"></path>
            <rect id="Rectangle" fill="#FFFFFF" x="333" y="136.344444" width="43.9" height="48"></rect>
            <polygon id="Path" fill="#FFFFFF" points="414.4 44.6444444 439.8 44.6444444 439.8 44.7444444 458.6 44.7444444 458.6 92.2444444 439.8 92.2444444 439.8 92.2444444 414.4 92.2444444"></polygon>
            <rect id="Rectangle" fill="#FFFFFF" x="542.3" y="406.244444" width="13.2" height="10.4"></rect>
            <path d="M918.3,157.444444 L918.3,163.244444 L918.3,163.244444 C918.3,161.244444 918.3,159.344444 918.3,157.444444 Z" id="Path" fill="#000000"></path>
        </g>
    </g>
</svg>