<?xml version="1.0" encoding="UTF-8"?>
<svg width="26.6460348px" height="26.6460348px" viewBox="0 0 26.6460348 26.6460348" version="1.1" xmlns="http://www.w3.org/2000/svg" xmlns:xlink="http://www.w3.org/1999/xlink">
    <title>Fill 1</title>
    <g id="Page-1" stroke="none" stroke-width="1" fill="none" fill-rule="evenodd">
        <g id="Large-Copy-27" transform="translate(-1379.222437, -5252.047911)" fill="#FFFFFF">
            <g id="Group-5-Copy-5" transform="translate(96.000000, 5029.284164)">
                <g id="Group-2" transform="translate(1140.000000, 222.208621)">
                    <path d="M165.96525,4.45834793 C163.363076,1.85618499 160.223185,0.555125725 156.545455,0.555125725 C152.867728,0.555125725 149.72783,1.85618499 147.125665,4.45834793 C144.5235,7.06052197 143.222437,10.200413 143.222437,13.8781431 C143.222437,17.5558699 144.5235,20.6957676 147.125665,23.2979328 C149.72783,25.9000979 152.867728,27.2011605 156.545455,27.2011605 C160.223185,27.2011605 163.363076,25.9000979 165.96525,23.2979328 C168.567413,20.6957676 169.868472,17.5558699 169.868472,13.8781431 C169.868472,10.200413 168.567413,7.06052197 165.96525,4.45834793 Z M163.154915,10.9116845 C163.189621,11.050477 163.206963,11.1892474 163.206963,11.3280288 C163.206963,13.6873353 162.356933,15.8297431 160.656849,17.7553499 C158.956776,19.6809512 156.684247,20.6437379 153.839217,20.6437379 C152.035049,20.6437379 150.369689,20.1580073 148.843085,19.1865329 C149.085954,19.2212282 149.346167,19.2385759 149.623731,19.2385759 C151.115639,19.2385759 152.468744,18.770193 153.683088,17.8334139 C152.954482,17.7987186 152.312624,17.573201 151.757495,17.1568544 C151.202367,16.7405079 150.820722,16.2027354 150.612548,15.5435203 C150.820722,15.5782157 151.028892,15.5955689 151.237065,15.5955689 C151.514629,15.5955689 151.809537,15.5608735 152.121796,15.4914717 C151.358495,15.3179949 150.725311,14.9363571 150.222226,14.346536 C149.71914,13.7567038 149.467602,13.0628078 149.467602,12.2648145 L149.467602,12.212766 C149.918643,12.4903288 150.421722,12.6291103 150.97685,12.6291103 C149.970679,11.9698985 149.467602,11.0678303 149.467602,9.92287234 C149.467602,9.33305126 149.62373,8.77792553 149.935989,8.25749516 C151.670766,10.4086185 153.925941,11.5535542 156.701578,11.6923356 C156.632187,11.4494681 156.597503,11.1892585 156.597503,10.9116845 C156.597503,10.0096052 156.918421,9.23764735 157.560291,8.59577768 C158.202161,7.95390801 158.97413,7.63297872 159.876209,7.63297872 C160.847679,7.63297872 161.645672,7.9799323 162.270189,8.67383946 C163.033486,8.53505803 163.727394,8.27484839 164.35191,7.89319946 C164.109043,8.69119269 163.640661,9.2983559 162.946743,9.71470019 C163.57127,9.64530948 164.195775,9.47183269 164.820292,9.19426983 C164.369252,9.85348162 163.814138,10.4259495 163.154915,10.9116845 Z" id="Fill-1"></path>
                </g>
            </g>
        </g>
    </g>
</svg>