<?xml version="1.0" encoding="utf-8"?>
<!-- Generator: Adobe Illustrator 27.4.0, SVG Export Plug-In . SVG Version: 6.00 Build 0)  -->
<svg version="1.1" id="Calque_1" xmlns="http://www.w3.org/2000/svg" xmlns:xlink="http://www.w3.org/1999/xlink" x="0px" y="0px"
	 viewBox="0 0 59.6 74.4" style="enable-background:new 0 0 59.6 74.4;" xml:space="preserve">
<style type="text/css">
	.st0{fill:#FFFFFF;}
</style>
<g>
	<path class="st0" d="M19.4,15.4c0.1-1.2,0.1-2.3,0.2-3.6c-1.3,0-2.4,0-3.5,0c0-1.1,0-2.2,0-3.5c-1.2,0-2.3,0-3.5,0
		c0-1.2,0-2.3,0-3.4c-1.2,0-2.3,0-3.3,0c0,20.9,0,41.8,0,62.7c1.2,0,2.2,0,3.4,0c0-1.2,0-2.3,0-3.5c1.2,0,2.3,0,3.5,0
		c0-1.2,0-2.3,0-3.4c1.1,0,2.3,0,3.5,0c0-1.3,0-2.3,0-3.6c1.2,0,2.3,0,3.4,0c0-1.2,0-2.3,0-3.4c1.1,0,2.3,0,3.6,0c0-1.3,0-2.5,0-3.6
		c0.2,0,0.3,0,0.5,0c8.8,0,17.7,0,26.5,0c0.3,0,0.5-0.1,0.8-0.1c0-1.1,0-2.2,0-3.4c-1.1,0-2.2,0-3.4,0c0-1.2,0-2.3,0-3.5
		c-1.3,0-2.4,0-3.5,0c0-1.1,0-2.2,0-3.5c-1.2,0-2.3,0-3.5,0c0-1.2,0-2.3,0-3.4c-1.2,0-2.3,0-3.4,0c0-1.1,0-2.3,0-3.6
		c-1.3,0-2.5,0-3.6,0c0-1.1,0-2.2,0-3.4c-1.2,0-2.3,0-3.3,0c0-1.1,0-2.3,0-3.6c-1.3,0-2.5,0-3.6,0c0-1.1,0-2.2,0-3.4
		c-1.2,0-2.3,0-3.3,0c0-1.2,0-2.3,0-3.6c-1.4,0-2.5,0-3.6,0c0-1.1,0-2.3,0-3.3C21.6,15.4,20.5,15.4,19.4,15.4z"/>
	<path d="M16,60.7c0,1.1,0,2.2,0,3.4c-1.2,0-2.2,0-3.5,0c0,1.2,0,2.3,0,3.5c-1.2,0-2.3,0-3.4,0c0-20.9,0-41.7,0-62.7
		c1.1,0,2.1,0,3.3,0c0,1.1,0,2.2,0,3.4c1.3,0,2.3,0,3.5,0c0,1.3,0,2.4,0,3.5l0,0c-1.1,0-2.3,0-3.4,0c0,16.4,0,32.6,0,49
		C13.8,60.7,14.9,60.7,16,60.7L16,60.7z"/>
	<path d="M47.4,43.2c1.1,0,2.2,0,3.5,0c0,1.2,0,2.3,0,3.5c1.2,0,2.3,0,3.4,0c0,1.2,0,2.2,0,3.4c-0.3,0-0.5,0.1-0.8,0.1
		c-8.8,0-17.7,0-26.5,0c-0.2,0-0.3,0-0.5,0l0,0c0-1.1,0-2.2,0-3.5c6.9,0,13.9,0,20.9,0C47.5,45.4,47.5,44.3,47.4,43.2L47.4,43.2z"/>
	<path d="M40.5,36.3c1.1,0,2.2,0,3.4,0c0,1.2,0,2.2,0,3.4c1.2,0,2.3,0,3.5,0c0,1.3,0,2.4,0,3.5l0,0c-1.1,0-2.3,0-3.5,0
		c0-1.2,0-2.2,0-3.5c-1.2,0-2.3,0-3.4,0C40.5,38.5,40.5,37.4,40.5,36.3L40.5,36.3z"/>
	<path d="M23,53.8c0,1.1,0,2.1,0,3.4c-1.1,0-2.2,0-3.4,0c0,1.2,0,2.3,0,3.6c-1.3,0-2.4,0-3.5,0l0,0c0-1.1,0-2.3,0-3.6
		c1.2,0,2.3,0,3.5,0c0-1.2,0-2.3,0-3.4C20.8,53.8,21.9,53.8,23,53.8L23,53.8z"/>
	<path d="M23,18.8c1.1,0,2.2,0,3.6,0c0,1.2,0,2.4,0,3.6l0,0c-1.2,0-2.3,0-3.6,0C23,21,23,19.9,23,18.8L23,18.8z"/>
	<path d="M36.9,32.7c1.1,0,2.3,0,3.6,0c0,1.3,0,2.5,0,3.6c0,0,0,0,0,0c-1.2,0-2.3,0-3.6,0C36.9,34.9,36.9,33.8,36.9,32.7L36.9,32.7z
		"/>
	<path d="M29.9,25.7c1.1,0,2.3,0,3.6,0c0,1.3,0,2.5,0,3.6l0,0c-1.2,0-2.3,0-3.6,0C30,28,30,26.8,29.9,25.7L29.9,25.7z"/>
	<path d="M26.6,50.1c0,1.1,0,2.3,0,3.6c-1.3,0-2.5,0-3.6,0c0,0,0,0,0,0c0-1.2,0-2.3,0-3.6C24.3,50.2,25.5,50.2,26.6,50.1L26.6,50.1z
		"/>
	<path d="M16,11.8c1.1,0,2.2,0,3.5,0c-0.1,1.3-0.1,2.4-0.2,3.6l0-0.1c-1.1,0-2.2,0-3.4,0C16.1,14,16.1,12.9,16,11.8L16,11.8z"/>
	<path d="M19.4,15.4c1.1,0,2.3,0,3.6,0c0,1.1,0,2.2,0,3.3l0,0c-1.1,0-2.3,0-3.4,0C19.5,17.6,19.5,16.5,19.4,15.4L19.4,15.4z"/>
	<path d="M33.5,29.3c1.1,0,2.2,0,3.3,0c0,1.2,0,2.3,0,3.4c0,0,0,0,0,0c-1.1,0-2.2,0-3.4,0C33.6,31.5,33.6,30.4,33.5,29.3L33.5,29.3z
		"/>
	<path d="M26.6,22.4c1.1,0,2.1,0,3.3,0c0,1.1,0,2.2,0,3.4c0,0,0,0,0,0c-1.1,0-2.2,0-3.4,0C26.6,24.5,26.6,23.4,26.6,22.4L26.6,22.4z
		"/>
	<path class="st0" d="M26.6,22.3c0,1.1,0,2.2,0,3.4c1.2,0,2.3,0,3.4,0c0,1.1,0,2.3,0,3.6c1.3,0,2.4,0,3.6,0c0,1.1,0,2.2,0,3.4
		c1.1,0,2.2,0,3.4,0c0,1.1,0,2.3,0,3.6c1.3,0,2.4,0,3.6,0c0,1.1,0,2.2,0,3.5c1.1,0,2.2,0,3.4,0c0,1.2,0,2.3,0,3.5c1.3,0,2.4,0,3.5,0
		c0,1.1,0,2.2,0,3.5c-7,0-13.9,0-20.9,0c0,1.3,0,2.4,0,3.5c-1.1,0-2.3,0-3.6,0c0,1.3,0,2.4,0,3.6c-1.1,0-2.2,0-3.5,0
		c0,1.1,0,2.2,0,3.4c-1.2,0-2.3,0-3.5,0c0,1.3,0,2.4,0,3.6c-1.1,0-2.2,0-3.4,0c0-16.3,0-32.5,0-49c1.2,0,2.3,0,3.4,0
		c0,1.1,0,2.3,0,3.6c1.2,0,2.3,0,3.4,0c0.1,1.1,0.1,2.2,0.2,3.4c1.2,0,2.3,0,3.4,0c0,1.1,0,2.3,0,3.6C24.3,22.3,25.4,22.3,26.6,22.3
		z"/>
</g>
</svg>
