<?xml version="1.0" encoding="utf-8"?>
<!-- Generator: Adobe Illustrator 27.4.0, SVG Export Plug-In . SVG Version: 6.00 Build 0)  -->
<svg version="1.1" id="Calque_1" xmlns="http://www.w3.org/2000/svg" xmlns:xlink="http://www.w3.org/1999/xlink" x="0px" y="0px"
	 viewBox="0 0 119 44" style="enable-background:new 0 0 119 44;" xml:space="preserve">
<style type="text/css">
	.st0{filter:url(#Adobe_OpacityMaskFilter);}
	.st1{fill-rule:evenodd;clip-rule:evenodd;fill:#FFFFFF;}
	.st2{mask:url(#mask-2_00000125580033215964439000000008653278335374893976_);fill-rule:evenodd;clip-rule:evenodd;fill:#FFFFFF;}
	.st3{filter:url(#Adobe_OpacityMaskFilter_00000115510632327795709020000001324547226303284875_);}
	.st4{mask:url(#mask-4_00000147194747622212816500000007101639664554287501_);fill-rule:evenodd;clip-rule:evenodd;fill:#FFFFFF;}
	.st5{filter:url(#Adobe_OpacityMaskFilter_00000181808797142356052780000008280029893137282979_);}
	.st6{mask:url(#mask-4_00000145768456920416619250000011977727608801382067_);fill-rule:evenodd;clip-rule:evenodd;fill:#FFFFFF;}
	.st7{filter:url(#Adobe_OpacityMaskFilter_00000155850692613289136980000007953872287458015896_);}
	.st8{mask:url(#mask-4_00000054267028955496066560000008552337166395722425_);fill-rule:evenodd;clip-rule:evenodd;fill:#FFFFFF;}
	.st9{filter:url(#Adobe_OpacityMaskFilter_00000088830810271860821490000013436618370293235593_);}
	.st10{mask:url(#mask-4_00000013890404216194934600000014427552576331364006_);fill-rule:evenodd;clip-rule:evenodd;fill:#FFFFFF;}
	.st11{filter:url(#Adobe_OpacityMaskFilter_00000164491870116778349040000004673172937348435629_);}
	.st12{mask:url(#mask-4_00000032606965820777935640000004692652516875579784_);fill-rule:evenodd;clip-rule:evenodd;fill:#FFFFFF;}
	.st13{filter:url(#Adobe_OpacityMaskFilter_00000101072457388676010320000011424181168968493754_);}
	.st14{mask:url(#mask-4_00000096036273008554348340000017946625239168385442_);fill-rule:evenodd;clip-rule:evenodd;fill:#FFFFFF;}
</style>
<g id="maquette-v3">
	<g id="Homepage-menu-open" transform="translate(-44.000000, -28.000000)">
		<g id="Logo" transform="translate(44.740741, 28.178082)">
			<g id="Group-3" transform="translate(0.000000, 11.315068)">
				<g id="Clip-2">
				</g>
				<defs>
					<filter id="Adobe_OpacityMaskFilter" filterUnits="userSpaceOnUse" x="0" y="0" width="23.5" height="26.7">
						<feColorMatrix  type="matrix" values="1 0 0 0 0  0 1 0 0 0  0 0 1 0 0  0 0 0 1 0"/>
					</filter>
				</defs>
				
					<mask maskUnits="userSpaceOnUse" x="0" y="0" width="23.5" height="26.7" id="mask-2_00000125580033215964439000000008653278335374893976_">
					<g class="st0">
						<polygon id="path-1_00000037660996019073874170000011358078280976643755_" class="st1" points="0,0 23.4,0 23.4,26.7 0,26.7 
													"/>
					</g>
				</mask>
				<path id="Fill-1" class="st2" d="M17.9,10.7c0-3.5-2.4-5.8-5.9-5.8c-3.4,0-6,2-6,5.8H17.9z M12.1,0c6.4,0,11.4,5,11.4,11.4
					c0,0.9,0,2-0.3,3.7H5.8c0,3.6,1.8,6.6,6.4,6.6c3.3,0,4.5-1.5,5.2-3.3h5.8c-0.8,4.4-4.7,8.3-11,8.3C4,26.7,0,20.2,0,13.3
					C0,5.7,4.4,0,12.1,0L12.1,0z"/>
			</g>
			<g id="Clip-5">
			</g>
			<defs>
				
					<filter id="Adobe_OpacityMaskFilter_00000116928258208919400570000015508401868251825309_" filterUnits="userSpaceOnUse" x="28.3" y="0" width="8.1" height="37.2">
					<feColorMatrix  type="matrix" values="1 0 0 0 0  0 1 0 0 0  0 0 1 0 0  0 0 0 1 0"/>
				</filter>
			</defs>
			
				<mask maskUnits="userSpaceOnUse" x="28.3" y="0" width="8.1" height="37.2" id="mask-4_00000147194747622212816500000007101639664554287501_">
				<g style="filter:url(#Adobe_OpacityMaskFilter_00000116928258208919400570000015508401868251825309_);">
					<polygon id="path-3_00000143599502778900021590000009404341476970290849_" class="st1" points="0,43.6 118,43.6 118,0 0,0 
											"/>
				</g>
			</mask>
			<path id="Fill-4" class="st4" d="M29.3,37.2h6.1V12.5h-6.1C29.3,12.5,29.3,37.2,29.3,37.2z M32.3,0c2.3,0,4.1,1.7,4.1,3.9
				c0,2.1-1.8,3.8-4.1,3.8c-2.2,0-4-1.7-4-3.8C28.3,1.7,30.1,0,32.3,0L32.3,0z"/>
			<defs>
				
					<filter id="Adobe_OpacityMaskFilter_00000110438013166507133060000008487418855801521823_" filterUnits="userSpaceOnUse" x="41.2" y="0" width="22.6" height="37.2">
					<feColorMatrix  type="matrix" values="1 0 0 0 0  0 1 0 0 0  0 0 1 0 0  0 0 0 1 0"/>
				</filter>
			</defs>
			
				<mask maskUnits="userSpaceOnUse" x="41.2" y="0" width="22.6" height="37.2" id="mask-4_00000145768456920416619250000011977727608801382067_">
				<g style="filter:url(#Adobe_OpacityMaskFilter_00000110438013166507133060000008487418855801521823_);">
					<polygon id="path-3_00000096741566618064399750000001039109041015350192_" class="st1" points="0,43.6 118,43.6 118,0 0,0 
											"/>
				</g>
			</mask>
			<polygon id="Fill-6" class="st6" points="41.2,37.2 41.2,0 47.1,0 47.1,23.4 56.5,12.4 63.8,12.4 53.3,24.8 63.8,37.2 56.5,37.2 
				47.1,26.3 47.1,37.2 			"/>
			<defs>
				
					<filter id="Adobe_OpacityMaskFilter_00000039121314590634797830000003929027089965502351_" filterUnits="userSpaceOnUse" x="62.2" y="11.3" width="27.5" height="26.7">
					<feColorMatrix  type="matrix" values="1 0 0 0 0  0 1 0 0 0  0 0 1 0 0  0 0 0 1 0"/>
				</filter>
			</defs>
			
				<mask maskUnits="userSpaceOnUse" x="62.2" y="11.3" width="27.5" height="26.7" id="mask-4_00000054267028955496066560000008552337166395722425_">
				<g style="filter:url(#Adobe_OpacityMaskFilter_00000039121314590634797830000003929027089965502351_);">
					<polygon id="path-3_00000080193242353766623140000012508698443740466055_" class="st1" points="0,43.6 118,43.6 118,0 0,0 
											"/>
				</g>
			</mask>
			<path id="Fill-7" class="st8" d="M75.9,32.7c4.6,0,7.7-3.7,7.7-8.1s-3.1-8.1-7.7-8.1s-7.6,3.7-7.6,8.1S71.3,32.7,75.9,32.7
				 M75.9,11.3c8.3,0,13.8,6.1,13.8,13.3S84.2,38,75.9,38s-13.7-6.1-13.7-13.3S67.7,11.3,75.9,11.3"/>
			<defs>
				
					<filter id="Adobe_OpacityMaskFilter_00000083795155897407578820000015285466603387852973_" filterUnits="userSpaceOnUse" x="92.9" y="11.3" width="23.4" height="25.9">
					<feColorMatrix  type="matrix" values="1 0 0 0 0  0 1 0 0 0  0 0 1 0 0  0 0 0 1 0"/>
				</filter>
			</defs>
			
				<mask maskUnits="userSpaceOnUse" x="92.9" y="11.3" width="23.4" height="25.9" id="mask-4_00000013890404216194934600000014427552576331364006_">
				<g style="filter:url(#Adobe_OpacityMaskFilter_00000083795155897407578820000015285466603387852973_);">
					<polygon id="path-3_00000156570650052765381710000003674225940006759304_" class="st1" points="0,43.6 118,43.6 118,0 0,0 
											"/>
				</g>
			</mask>
			<path id="Fill-8" class="st10" d="M92.9,37.2V12h5.9v3.5c1.6-2.8,4.5-4.2,8.3-4.2c3.7,0,6.1,1.3,7.6,3.4c1.3,1.9,1.6,4,1.6,7.5
				v15h-5.9v-13c0-4.3-1.3-7.6-5.5-7.6c-4.1,0-6.1,3.3-6.1,7.6v13H92.9z"/>
			<defs>
				
					<filter id="Adobe_OpacityMaskFilter_00000053517457422702931860000017725098087439623051_" filterUnits="userSpaceOnUse" x="0.8" y="41.2" width="52.5" height="2.4">
					<feColorMatrix  type="matrix" values="1 0 0 0 0  0 1 0 0 0  0 0 1 0 0  0 0 0 1 0"/>
				</filter>
			</defs>
			
				<mask maskUnits="userSpaceOnUse" x="0.8" y="41.2" width="52.5" height="2.4" id="mask-4_00000032606965820777935640000004692652516875579784_">
				<g style="filter:url(#Adobe_OpacityMaskFilter_00000053517457422702931860000017725098087439623051_);">
					<polygon id="path-3_00000165944061550103639300000017974654740483344033_" class="st1" points="0,43.6 118,43.6 118,0 0,0 
											"/>
				</g>
			</mask>
			<polygon id="Fill-9" class="st12" points="52.1,41.2 0.8,41.2 0.8,43.6 53.3,43.6 			"/>
			<defs>
				
					<filter id="Adobe_OpacityMaskFilter_00000150060862189546630370000001782481759840978824_" filterUnits="userSpaceOnUse" x="54.2" y="41.2" width="63.8" height="2.4">
					<feColorMatrix  type="matrix" values="1 0 0 0 0  0 1 0 0 0  0 0 1 0 0  0 0 0 1 0"/>
				</filter>
			</defs>
			
				<mask maskUnits="userSpaceOnUse" x="54.2" y="41.2" width="63.8" height="2.4" id="mask-4_00000096036273008554348340000017946625239168385442_">
				<g style="filter:url(#Adobe_OpacityMaskFilter_00000150060862189546630370000001782481759840978824_);">
					<polygon id="path-3_00000018932991377879000970000003736248088420404910_" class="st1" points="0,43.6 118,43.6 118,0 0,0 
											"/>
				</g>
			</mask>
			<polygon id="Fill-10" class="st14" points="54.2,41.2 55.4,43.6 118,43.6 118,41.2 			"/>
		</g>
	</g>
</g>
</svg>
