<?xml version="1.0" encoding="utf-8"?>
<!-- Generator: Adobe Illustrator 27.4.0, SVG Export Plug-In . SVG Version: 6.00 Build 0)  -->
<svg version="1.1" id="Calque_1" xmlns="http://www.w3.org/2000/svg" xmlns:xlink="http://www.w3.org/1999/xlink" x="0px" y="0px"
	 viewBox="0 0 1458.1 832.8" style="enable-background:new 0 0 1458.1 832.8;" xml:space="preserve">
<style type="text/css">
	.st0{fill:#FCFFFF;}
</style>
<g id="evtNiC_00000157986737626950723910000005767199465550881969_">
	<g>
		<path class="st0" d="M753.6,693.1h1.8v-0.2h-1.8V693.1z M1002.6,737c0.1,0,0.1,0,0.2,0v-0.2h-0.2V737z M959.8,737.5
			C959.9,737.5,959.9,737.5,959.8,737.5l0.1-0.8h-0.1V737.5z"/>
		<path class="st0" d="M551.6,833.1h18.5C564.1,833.2,558,833.1,551.6,833.1z"/>
		<path class="st0" d="M668.1,42.7h85.7v49.4h-42.6v44.5h-0.3v3.7H667v44.1h-39.8V92.3c0,0,0.1,0,0.2,0v-1.6h39.2V44.5h0.5
			C667.4,43.9,667.7,43.3,668.1,42.7z"/>
		<path class="st0" d="M711.2,92.1H750c0,0.1-0.1,0.1-0.1,0.2h-38.7V92.1z"/>
		<path class="st0" d="M666.5,90.6L666.5,90.6l-0.3,0.1C666.4,90.7,666.5,90.6,666.5,90.6z"/>
		<path class="st0" d="M422.5,136.6h38.3v47.8h39.9v44.2h-39.6v48h-43.6v-47.4c-6.3-0.1-12.7-0.3-19.1-0.4c-6.6-0.1-13.1,0-20.8,0
			v-44.4h39.5c1-14.3,0-28.8,0.5-42.8c0.1-0.1,0.2-0.2,0.3-0.3V137h4.2C422.3,136.9,422.4,136.8,422.5,136.6z"/>
		<rect x="627.1" y="600.9" class="st0" width="0.5" height="0.1"/>
		<path class="st0" d="M377.6,738.1v46.8c6.3,0.1,12.8,0.3,19.2,0.4c6.6,0.1,13.1,0,20.2,0v47h-79.9v-0.1h-3.4v-94.1L377.6,738.1
			L377.6,738.1z"/>
		<path class="st0" d="M417.6,645.2h12.1c0.2,0,0.5,0,0.7,0c10.1,0.3,20.2,0.1,30.4,0.1v47.8h-41.9v52.4h-41.2v-53.6h39.8V651
			l0.1-0.1V645.2z"/>
		<path class="st0" d="M428,645.2c0.6,0,1.2,0,1.7,0h-3.6C426.7,645.2,427.3,645.2,428,645.2z"/>
		<path class="st0" d="M539.9,92.3H584c0-0.6-0.9,76.7-0.9,76.7c0,4.9,0,13.5,0,15.2v0.3h-86.5v-42.7c2.2-2.3,3.4-3.5,5.1-5.2h38.2
			L539.9,92.3L539.9,92.3z"/>
		<path class="st0" d="M85.2,44.5c12.3,0,25,0,38,0c1.2,1.5,2.7,3.2,4.6,5.4c0,27.9,0,56.7,0,86.1c-14.1,0-28.2,0-42.6,0
			C85.2,105.3,85.2,74.9,85.2,44.5z"/>
		<path class="st0" d="M334.7,324.9h42.7v87.9c0,0,0,0-0.1,0v4.5h-42.6V395l0,0V324.9z"/>
		<polygon class="st0" points="128.6,785.7 210.8,785.7 210.8,833.1 146.2,833.1 146.2,832.7 128.6,832.7 		"/>
		<rect x="168" y="368.8" class="st0" width="0.5" height="0.3"/>
		<path class="st0" d="M876.7,44.5c14.4,0,28.8,0,43.3,0c0,15.9,0,31.9,0,47.8c-14.4,0-28.8,0-43.3,0
			C876.7,76.3,876.7,60.4,876.7,44.5z"/>
		<path class="st0" d="M84.8,368.8H128v36.7h0.3v11h-5.1c0,0,0,0,0,0.1H84.8V368.8z"/>
		<path class="st0" d="M793.5,184.4c0-15.9,0-31.9,0-47.8c10.9,0,21.9,0.3,32.8-0.1c5-0.2,8.2,1.7,10.5,5.8c0,14,0,28,0,42.1
			C822.3,184.4,807.9,184.4,793.5,184.4z"/>
		<path class="st0" d="M500.7,600.9c0-14,0-28,0-42.4c1.3-1.4,2.7-3,4.9-5.4c12.4,0,25.4,0,38.4,0c0,15.9,0,31.9,0,47.8
			C529.5,600.9,515.1,600.9,500.7,600.9z"/>
		<path class="st0" d="M294,645.3c0,15.7,0,31.3,0,47.4c-14,0-27.7,0-42,0c0-14.1,0-28.5,0-44.5c2.8-0.8,6.1-2.7,9.5-2.8
			C272.4,645.1,283.4,645.3,294,645.3z"/>
		<path class="st0" d="M583.9,44.5c14.4,0,28.8,0,43.3,0c0,15.9,0,31.9,0,47.8c-13,0-30.9,0-43.2,0V87
			C583.9,72.5,583.9,58.5,583.9,44.5z"/>
		<polygon class="st0" points="85.3,461.4 127.7,461.4 127.7,492.2 127.8,492.2 127.8,508.3 123.6,508.3 123.5,508.3 85.3,508.3 		
			"/>
		<path class="st0" d="M500.7,92.3c0-14,0-28,0-42.4c1.3-1.4,2.7-3,4.9-5.3c12.4,0,25.4,0,38.4,0c0,15.9,0,31.9,0,47.8
			C529.5,92.3,515.1,92.3,500.7,92.3z"/>
		<polygon class="st0" points="418,460.4 425.5,460.4 425.5,461.3 460.1,461.3 460.1,508.3 418,508.3 418,467.9 418,467.9 		"/>
		<polygon class="st0" points="418,553.4 433.4,553.4 433.4,553.5 460.3,553.5 460.3,600.5 417.9,600.5 417.9,557.9 418,557.8 		"/>
		<path class="st0" d="M793.5,44.5c13,0.3,26,0.4,39,0.9c1.2,0,2.3,2.2,4.2,4.2c0,13.7,0,28.2,0,42.7c-14.4,0-28.8,0-43.3,0
			C793.5,76.3,793.5,60.4,793.5,44.5z"/>
		<rect x="334.4" y="692.9" class="st0" width="43.2" height="0.2"/>
		<path class="st0" d="M339.2,553.1h38.4v47.8h-43.2v-42.4l0.1-0.1v-5.2L339.2,553.1C339.2,553.2,339.2,553.1,339.2,553.1z"/>
		<path class="st0" d="M353.2,136.4h-3.9C350.6,136.4,351.9,136.4,353.2,136.4z"/>
		<path class="st0" d="M334.9,44.5h42.6c0,7.1,0.1,14.2,0.1,21.4v8.8h0.3V95H335v-7.2l0,0V44.5H334.9z"/>
		<path class="st0" d="M85.4,553.5h38c0.1,0.1,0.2,0.2,0.3,0.3H85.5v46.9h37.2l0,0H85.4V553.5z"/>
		<path class="st0" d="M2,232.2v44.3h42.3v0.1H1.7c0-7.1-0.1-14.2-0.1-21.4c0-7.3,0-14.6,0-22.8C1.8,232.3,1.9,232.3,2,232.2z"/>
		<path class="st0" d="M964.5,832.7h33.3l-0.1,0.1L964.5,832.7C964.5,832.8,964.5,832.7,964.5,832.7z"/>
		<rect x="1002.6" y="785.3" class="st0" width="0.4" height="0.2"/>
		<path class="st0" d="M168.2,141.6v42.8h42.5l0,0h-42.6c0-7.1-0.1-14.2-0.1-21.4c0-7.3,0-14.6,0-21.2
			C168.1,141.7,168.1,141.6,168.2,141.6z"/>
		<rect x="710.9" y="136.6" class="st0" width="0.3" height="3.7"/>
		<path class="st0" d="M543.4,508.7c-12.2,0-24.9,0-37.7,0c-1.5-1.6-3.1-3.2-5.2-5.4c2.2-13.5-3.6-28.3,3.4-42.1
			c13.7,0,26.3,0,39.5,0C543.4,477.2,543.4,493,543.4,508.7z"/>
		<path class="st0" d="M168.3,45.1L168.3,45.1v42.6l0,0V45.1z"/>
		<path class="st0" d="M251.2,750.2v18.7C250.9,762.6,250.5,756.4,251.2,750.2z"/>
		<path class="st0" d="M254.1,737.8h35.6l0,0H254.1L254.1,737.8z"/>
		<path class="st0" d="M251.2,321c0,15.9,0,31.9,0,47.8c14.2,0,28.3,0,42.6,0V321H251.2z"/>
		<path class="st0" d="M500.7,368.2H544v0.5h-43.3C500.7,368.6,500.7,368.4,500.7,368.2z"/>
		<path class="st0" d="M44.4,552.8c-14.3,0-28,0-42.2,0c0-14.3,0-28.3,0-43.8c6.4-0.1,13.3-0.3,20.3-0.3c7.1-0.1,14.2,0,21.9,0
			C44.4,523.3,44.4,537.4,44.4,552.8z"/>
		<rect x="626.7" y="367.5" class="st0" width="0.4" height="1.3"/>
		<path class="st0" d="M294.2,92.8c0,14.7,0,28.7,0,43.3c-13.9,0-27.6,0-42.9,0c0-6.5-0.1-13.7-0.1-20.8c0-7.3,0-14.6,0-22.4
			C265.4,92.8,279.1,92.8,294.2,92.8z"/>
		<path class="st0" d="M251.7,552.6c0-14.1,0-28.6,0-43.5c14.1,0,27.7,0,42.1,0c0,14.3,0,28.6,0,43.5
			C279.6,552.6,265.4,552.6,251.7,552.6z"/>
		<path class="st0" d="M44.9,92.6c0,15,0,28.6,0,43.2c-6.7,1.7-13.8,0.6-20.7,0.8c-7.1,0.2-14.2,0-21.9,0c0-14.5,0-28.5,0-43.7
			c6.7-1.6,14.3-0.5,21.8-0.6C31,92.2,38,92.5,44.9,92.6z"/>
		<path class="st0" d="M44.9,693.4c0,15,0,28.6,0,43.2c-6.7,1.7-13.8,0.6-20.7,0.8c-7.1,0.2-14.2,0-21.9,0c0-14.5,0-28.5,0-43.7
			c6.7-1.6,14.3-0.5,21.8-0.6C31,693,38,693.3,44.9,693.4z"/>
		<path class="st0" d="M44.4,645c-14.3,0-27.9,0-42.1,0c0-14.3,0-28.3,0-44c6.3,0,13.3-0.1,20.3-0.1c7.1,0,14.2,0,21.9,0
			C44.4,615.5,44.4,629.5,44.4,645z"/>
		<path class="st0" d="M876.7,693.1h43.2v43.6c-0.1,0-0.1,0-0.2,0c-0.1,0-0.2,0-0.3,0.1c-6.6,1.5-13.5,0.5-20.3,0.7
			c-7.1,0.2-14.2,0-22.5,0L876.7,693.1L876.7,693.1z"/>
		<path class="st0" d="M168.5,693.6c13.7,0,27.9,0,42.4,0c0,14.5,0,28.5,0,43.2c-13.9,0-27.9,0-42.4,0
			C168.5,722.2,168.5,707.7,168.5,693.6z"/>
		<path class="st0" d="M84.4,785.8c0,15.2,0,30.9,0,46.9c-13,0-25.5,0-38.7,0c0-15.4,0-30.9,0-46.9
			C58.7,785.8,71.8,785.8,84.4,785.8z"/>
		<path class="st0" d="M128.7,229.1c13.1,0,25.6,0,38.8,0c0,15.3,0,30.5,0,47.1c-5.7,0.1-12.1,0.3-18.5,0.4c-6.6,0.1-13.1,0-20.3,0
			C128.7,261,128.7,245.8,128.7,229.1z"/>
		<path class="st0" d="M584.3,417c13.7,0,27.9,0,42.4,0c0,14.4,0,28.4,0,43.1c-12.6,0-25.5,0-38.6,0c-1-1-2.1-2.2-3.8-3.9
			C584.3,443.4,584.3,430,584.3,417z"/>
		<path class="st0" d="M544,368.8h39.5l0,0c0,0.4,0.7,7,0.6,10.4c-0.4,12.4-0.2,24.9-0.2,37.3H549c-2-2-3.1-3.2-5-5.1V368.8z"/>
		<path class="st0" d="M251.2,553.1c0,15.3,0,30.7,0,47.4c-6.3,0.1-12.7,0.3-19.1,0.4c-6.6,0.1-13.1,0-20.8,0c0-16.3,0-32,0-47.8
			C224.6,553.1,237.9,553.1,251.2,553.1z"/>
		<path class="st0" d="M167.5,692.6c-12.6,0-25.7,0-39.1,0c0-15.6,0-30.7,0-46.6c12.8,0,25.7,0,39.1,0
			C167.5,661.7,167.5,677.4,167.5,692.6z"/>
		<path class="st0" d="M793,785.8c0,15.2,0,30.9,0,46.9c-13,0-25.5,0-38.7,0c0-15.4,0-30.9,0-46.9
			C767.3,785.8,780.4,785.8,793,785.8z"/>
		<path class="st0" d="M333.8,276.3c-13.1,0-25.7,0-38.8,0c0-15.4,0-30.6,0-47.1c5.8-0.1,12.2-0.3,18.6-0.4c6.6-0.1,13.1,0,20.2,0
			C333.8,244.5,333.8,259.7,333.8,276.3z"/>
		<rect x="461.5" y="785.8" class="st0" width="38.8" height="46.9"/>
		<path class="st0" d="M920.7,785.1h39.1v0.2h-39.1C920.8,785.2,920.7,785.1,920.7,785.1z"/>
		<rect x="627" y="184.4" class="st0" width="0.1" height="44.4"/>
		<path class="st0" d="M45.5,276.6h0.2v46.9h0.6c-0.3,0.1-0.5,0.1-0.8,0.1V276.6z"/>
		<path class="st0" d="M460.8,693.1L460.8,693.1v44.4l0,0V693.1z"/>
		<path class="st0" d="M627.1,0.4h39.7l0.5,38.7c0,0.1-0.1,3.2,0,3.6c0.2,0.7,0.1,1.2-0.3,1.8h-39.9V0.4z"/>
		<polygon class="st0" points="128.4,315.2 168.5,315.2 168.5,368.8 167.9,368.8 167.9,369.1 128.4,369.1 		"/>
		<path class="st0" d="M128.4,325.3v43.5h-0.3v-43.4C128.2,325.3,128.3,325.3,128.4,325.3z"/>
		<path class="st0" d="M544,553h39.1v0.1L544,553L544,553z"/>
		<path class="st0" d="M627.1,508.7H667c0.6,1.1,1.2,2.2,1.5,2.6l0,0c-2.9,15-0.5,28.3-1.9,41.7h-39.5V508.7z"/>
		<path class="st0" d="M377.6,693.1L377.6,693.1l0.1,44.4c0,0,0,0-0.1,0V693.1z"/>
		<rect x="294.4" y="600.9" class="st0" width="39.9" height="44.4"/>
		<path class="st0" d="M377.6,553.1c0-14.8,0-29.6,0-44.4c13.3,0,26.6,0,39.9,0c0,14.5,0,29,0,44.4
			C403.7,553.1,390.7,553.1,377.6,553.1z"/>
		<path class="st0" d="M417.1,277.1c0,14.1,0,28.6,0,43.5c-13,0-25.5,0-38.7,0c0-14.2,0-28.6,0-43.5
			C391.4,277.1,404.5,277.1,417.1,277.1z"/>
		<path class="st0" d="M211.7,184.9c12.6,0,25.7,0,39.1,0c0,14.5,0,28.4,0,43.2c-12.8,0-25.7,0-39.1,0
			C211.7,213.5,211.7,199,211.7,184.9z"/>
		<path class="st0" d="M836.7,92.3c13.3,0,26.6,0,39.9,0c0,14.8,0,29.6,0,44.4c-13,0-26.1,0-39.9,0
			C836.7,121.3,836.7,106.8,836.7,92.3z"/>
		<path class="st0" d="M876.2,44c-12.6,0-25.7,0-39.1,0c0-14.5,0-28.4,0-43.2c12.8,0,25.7,0,39.1,0C876.2,15.4,876.2,29.9,876.2,44z
			"/>
		<path class="st0" d="M544,44.5c0-14.2,0-28.4,0-44c6.3-0.1,12.7-0.3,19.1-0.4c6.6-0.1,13.1,0,20.8,0c0,15.2,0,29.8,0,44.4
			C570.6,44.5,557.3,44.5,544,44.5z"/>
		<path class="st0" d="M84.8,461c-12.7,0-25.4,0-39.1,0c-1.6-6.9-0.6-14.2-0.7-21.3c-0.2-7.3,0-14.6,0-23c13.7,0,26.8,0,39.9,0
			C84.8,431.4,84.8,446.2,84.8,461z"/>
		<path class="st0" d="M793,44c-12.6,0-25.7,0-39.1,0c0-14.5,0-28.4,0-43.2c12.8,0,25.7,0,39.1,0C793,15.4,793,29.9,793,44z"/>
		<path class="st0" d="M793.5,136.6c-12.7,0-25.4,0-39.1,0c-1.6-6.9-0.6-14.2-0.7-21.3c-0.2-7.3,0-14.6,0-23c13.7,0,26.8,0,39.9,0
			C793.5,107.1,793.5,121.9,793.5,136.6z"/>
		<path class="st0" d="M544.4,601.4c12.6,0,25.7,0,39.1,0c0,14.5,0,28.4,0,43.2c-12.8,0-25.7,0-39.1,0
			C544.4,630,544.4,615.5,544.4,601.4z"/>
		<path class="st0" d="M793,184.9c0,14.1,0,28.6,0,43.5c-13,0-25.5,0-38.7,0c0-14.2,0-28.6,0-43.5
			C767.3,184.9,780.4,184.9,793,184.9z"/>
		<path class="st0" d="M211.7,44c0-14.1,0-28.6,0-43.5c13,0,25.5,0,38.7,0c0,14.2,0,28.6,0,43.5C237.4,44,224.3,44,211.7,44z"/>
		<path class="st0" d="M460.8,136.6c0-14.8,0-29.6,0-44.4c13.3,0,26.6,0,39.9,0c0,14.5,0,29,0,44.4
			C486.9,136.6,473.8,136.6,460.8,136.6z"/>
		<path class="st0" d="M84.3,228.5c-13.2,0-25.7,0-38.8,0c0-14.3,0-28.3,0-43.7c5.8-0.1,12.2-0.3,18.6-0.4c6.6-0.1,13.1,0,20.2,0
			C84.3,199,84.3,213,84.3,228.5z"/>
		<path class="st0" d="M84.4,44c-12.6,0-25.7,0-39.1,0c0-14.5,0-28.4,0-43.2c12.8,0,25.7,0,39.1,0C84.4,15.4,84.4,29.9,84.4,44z"/>
		<path class="st0" d="M919.9,44.5c0-14.2,0-28.4,0-44c6.3-0.1,12.7-0.3,19.1-0.4c6.6-0.1,13.1,0,20.8,0c0,15.2,0,29.8,0,44.4
			C946.5,44.5,933.2,44.5,919.9,44.5z"/>
		<path class="st0" d="M460.8,600.9c13.3,0,26.6,0,39.9,0c0,14.5,0,29,0,44.4c-13.8,0-26.9,0-39.9,0
			C460.8,630.5,460.8,615.7,460.8,600.9z"/>
		<path class="st0" d="M333.9,44c-12.6,0-25.7,0-39.1,0c0-14.5,0-28.4,0-43.2c12.8,0,25.7,0,39.1,0C333.9,15.4,333.9,29.9,333.9,44z
			"/>
		<path class="st0" d="M333.9,460.5c-12.6,0-25.7,0-39.1,0c0-14.5,0-28.4,0-43.2c12.8,0,25.7,0,39.1,0
			C333.9,431.8,333.9,446.4,333.9,460.5z"/>
		<path class="st0" d="M250.7,320.5c-12.6,0-25.7,0-39.1,0c0-14.5,0-28.4,0-43.2c12.8,0,25.7,0,39.1,0
			C250.7,291.9,250.7,306.4,250.7,320.5z"/>
		<path class="st0" d="M919.9,92.3c13.3,0,26.6,0,39.9,0c0,14.8,0,29.6,0,44.4c-13,0-26.1,0-39.9,0
			C919.9,121.3,919.9,106.8,919.9,92.3z"/>
	</g>
</g>
<path class="st0" d="M753.6,692.9h1.8v0.3h-1.8v-0.1V692.9z"/>
<path class="st0" d="M836.4,416.9v0.3h0.3v-0.4C836.6,416.9,836.5,416.9,836.4,416.9z M836.4,416.9v0.3h0.3v-0.4
	C836.6,416.9,836.5,416.9,836.4,416.9z M836.4,416.9v0.3h0.3v-0.4C836.6,416.9,836.5,416.9,836.4,416.9z M836.4,416.9v0.3h0.3v-0.4
	C836.6,416.9,836.5,416.9,836.4,416.9z M836.4,416.9v0.3h0.3v-0.4C836.6,416.9,836.5,416.9,836.4,416.9z M836.4,416.9v0.3h0.3v-0.4
	C836.6,416.9,836.5,416.9,836.4,416.9z M836.4,416.9v0.3h0.3v-0.4C836.6,416.9,836.5,416.9,836.4,416.9z M836.4,416.9v0.3h0.3v-0.4
	C836.6,416.9,836.5,416.9,836.4,416.9z M836.4,416.9v0.3h0.3v-0.4C836.6,416.9,836.5,416.9,836.4,416.9z M836.4,416.9v0.3h0.3v-0.4
	C836.6,416.9,836.5,416.9,836.4,416.9z M1292.5,733h0.5c-0.2-0.8-0.3-1.6-0.3-2.4c-0.1-2.3-0.1-4.7-0.2-7V733z M1227.6,737.5
	c-4.4-0.2-8.8,0-13.3,0l-0.1,0.1h20.2C1232.3,737.4,1229.8,737.6,1227.6,737.5z M847.6,737.5h11.5
	C855.3,737.3,851.4,737.2,847.6,737.5z M870.2,737.5h1.5l-0.1-0.1C871.1,737.4,870.6,737.4,870.2,737.5z M793.5,508.7L793.5,508.7
	h28.7C812.7,508.5,803.1,508.7,793.5,508.7z M836.4,416.9v0.3h0.3v-0.4C836.6,416.9,836.5,416.9,836.4,416.9z M1252.6,276.6
	c0.2,0,0.3,0,0.5,0v-48.3C1252.6,244.7,1252.6,260.7,1252.6,276.6z M836.4,416.9v0.3h0.3v-0.4C836.6,416.9,836.5,416.9,836.4,416.9z
	 M836.4,416.9v0.3h0.3v-0.4C836.6,416.9,836.5,416.9,836.4,416.9z M1292.5,733h0.5c-0.2-0.8-0.3-1.6-0.3-2.4c-0.1-2.3-0.1-4.7-0.2-7
	V733z M836.4,416.9v0.3h0.3v-0.4C836.6,416.9,836.5,416.9,836.4,416.9z M836.4,416.9v0.3h0.3v-0.4
	C836.6,416.9,836.5,416.9,836.4,416.9z M836.4,416.9v0.3h0.3v-0.4C836.6,416.9,836.5,416.9,836.4,416.9z M836.4,416.9v0.3h0.3v-0.4
	C836.6,416.9,836.5,416.9,836.4,416.9z M836.4,416.9v0.3h0.3v-0.4C836.6,416.9,836.5,416.9,836.4,416.9z M836.4,416.9v0.3h0.3v-0.4
	C836.6,416.9,836.5,416.9,836.4,416.9z M836.4,416.9v0.3h0.3v-0.4C836.6,416.9,836.5,416.9,836.4,416.9z M836.4,416.9v0.3h0.3v-0.4
	C836.6,416.9,836.5,416.9,836.4,416.9z"/>
<rect x="626.7" y="367.5" class="st0" width="0.4" height="1.3"/>
<path class="st0" d="M416.9,320.8h44.6v47.4h39.2v46.5c-0.3,0.4-0.6,0.9-1.1,1.2c-0.4,0.3-0.9,0.6-1.4,0.6c-12.2,0-24.5,0-36.7,0
	v0.2h-44.6V320.8z"/>
<rect x="84.1" y="737.1" class="st0" width="44.6" height="48.6"/>
<path class="st0" d="M753.6,692.9h1.8v0.2h1.5v0.1h-3.3v-0.1V692.9z"/>
<rect x="626.7" y="367.5" class="st0" width="0.4" height="1.3"/>
<path class="st0" d="M543.9,507.1h45.4v45.2h37.9v0.9h0.5V601h-0.5c-4.6,0-9.3,0-13.9,0.1H584v-48h-40.1V507.1z"/>
<path class="st0" d="M627.1,600.9h0.5v0.1h-14.5C617.8,601,622.5,600.9,627.1,600.9z"/>
<rect x="627.1" y="552.2" class="st0" width="0.5" height="0.9"/>
<rect x="2" y="228.5" class="st0" width="43.4" height="47.9"/>
<rect x="45.7" y="276.3" class="st0" width="40.1" height="47.2"/>
<path class="st0" d="M666.5,42.7h1.5c-0.3,0.6-0.7,1.2-1,1.8h-0.5V42.7z"/>
<rect x="710.9" y="136.6" class="st0" width="0.3" height="3.7"/>
<polygon class="st0" points="711.2,136.6 754.3,136.6 754.3,184.4 710.9,184.4 710.9,140.4 711.2,140.4 "/>
<rect x="710.9" y="136.6" class="st0" width="0.3" height="3.7"/>
<rect x="1002.6" y="785.3" class="st0" width="0.4" height="0.2"/>
<rect x="1002.6" y="785.3" class="st0" width="40.2" height="0.2"/>
<path class="st0" d="M1002.6,736.7h0.2v0.2c-0.1,0-0.1,0-0.2,0V736.7z"/>
<rect x="1002.6" y="785.3" class="st0" width="0.2" height="0.2"/>
<path class="st0" d="M1002.6,736.7h0.2v0.2c-0.1,0-0.1,0-0.2,0V736.7z"/>
<path class="st0" d="M919.4,736.7h0.3C919.6,736.7,919.5,736.8,919.4,736.7L919.4,736.7z"/>
<path class="st0" d="M959.8,736.7L959.8,736.7l0.1,0.8c0,0,0,0-0.1,0V736.7z"/>
<path class="st0" d="M592.9,737.5H609C603.5,737.5,598.1,737.6,592.9,737.5z"/>
<path class="st0" d="M500.7,693.1v47.8h0.1v-3.4h10.6c4.6-0.7,9.2-0.5,14,0h15.5c1-0.5,2.1-1.1,3.3-1.8v-42.6h39.6V737
	c3,0.2,6,0.4,9,0.5c5.3,0.1,10.6,0,16.1,0h18.3v0.9h0.6V785h-27.4v48.1h-48.9c-2.3,0-4.7,0-7.2,0v-47.8h-43.8v-43.2h-39.9v-49H500.7
	z"/>
<path class="st0" d="M544.3,785.3h0.2v47.8c2.4,0,4.8,0,7.2,0h-7.4V785.3z"/>
<rect x="251.2" y="737.8" class="st0" width="47.4" height="47.4"/>
<rect x="167.9" y="368.8" class="st0" width="0.6" height="0.3"/>
<polygon class="st0" points="168.5,368.8 251.2,368.8 251.2,416.5 167.9,416.5 167.9,369.1 168.5,369.1 "/>
<rect x="167.9" y="368.8" class="st0" width="0.6" height="0.3"/>
<rect x="85.5" y="553.7" class="st0" width="43.8" height="46.9"/>
<rect x="627" y="367.5" class="st0" width="0.1" height="1.3"/>
<rect x="499.7" y="321" class="st0" width="44.3" height="47.3"/>
<path class="st0" d="M836.3,416.5L836.3,416.5c0.2,0,0.3,0,0.4,0v0.3h0.1v0.4h-0.4v-0.3h-0.1L836.3,416.5L836.3,416.5z"/>
<path class="st0" d="M836.4,416.5c0.1,0,0.2,0,0.3,0v0.3h0.1v0.4h-0.4L836.4,416.5L836.4,416.5z"/>
<path class="st0" d="M822.2,508.8h-28.7l0,0C803.1,508.7,812.7,508.5,822.2,508.8z"/>
<path class="st0" d="M1292.5,693.1v30.5C1292.4,713.4,1292.5,703.3,1292.5,693.1z"/>
<path class="st0" d="M859.1,737.5h11.1C866.5,737.7,862.8,737.6,859.1,737.5z"/>
<rect x="499.8" y="461.2" class="st0" width="43.6" height="47.4"/>
<rect x="793.7" y="136.8" class="st0" width="43.9" height="47.6"/>
<rect x="168.2" y="461.1" class="st0" width="43.5" height="91.5"/>
<rect x="168.4" y="44" class="st0" width="43.3" height="49.2"/>
<rect x="168.2" y="136.4" class="st0" width="43.2" height="48"/>
<path class="st0" d="M1253.1,228.3v48.3c-0.2,0-0.3,0-0.5,0C1252.6,260.7,1252.6,244.7,1253.1,228.3z"/>
<rect x="501.2" y="553.1" class="st0" width="42.8" height="47.7"/>
<path class="st0" d="M334.4,461h43.2v47.8h-38.3c-0.1-0.1-0.1-0.1-0.2-0.2h-4.8v-4.9l0,0L334.4,461L334.4,461z"/>
<path class="st0" d="M583.9,239.8h0.2v37.7H584c0-11.1,0-22.1-0.1-33.1C583.8,242.8,583.8,241.3,583.9,239.8z"/>
<path class="st0" d="M583.1,184.1H627v55.6h-43.2c0,1.5,0,3,0,4.5c0,11,0.1,22,0.1,33.1c0,14.3,0,28.8,0,43.6H544v-43.6h-43.2V227
	h82.3V184.1z"/>
<path class="st0" d="M919.9,157.5c0-3,0-6.1,0-9.2V157.5z M919.9,157.5c0-3,0-6.1,0-9.2V157.5z"/>
<path class="st0" d="M1335.5,44h-43.3V0.6h-39.5c0,7.8,0,15.1,0,22.4c0,7.2-0.1,14.3-0.1,20.8h-43.2c0-7.9,0.2-15.2,0-22.5
	c-0.2-7.1,0.9-14.4-0.7-20.7h-205.6c0,7.8,0.1,15.1,0,22.5c-0.2,7.1,0.8,14.4-0.7,21.4h-42.5v47.8h42.5c1.6,6.9,0.6,14.2,0.8,21.3
	c0.2,7.3,0,14.6,0,23H960v47.8h42.5c1.6,6.9,0.6,14.2,0.8,21.3c0.2,7.3,0,14.6,0,23c-14.8,0-29,0-43.5,0.2
	c-0.2,15.4-0.2,31.1-0.2,47.2h-38.8v-46.9c13,0,26.1,0,39-0.2c0.2-15,0.2-29.8,0.2-44.6h-39.5c-0.5-7-0.5-14-0.4-21.2
	c0-1.9,0-3.8,0-5.8v-20.8h-43l0,0c-0.1,0-0.1,0-0.2,0v47.8H837v92.2h-42.8v30.5h-39.7v-78.7H627.1V321h-43.7v47.8h43.3v-1.3h0.4v1.3
	h-0.4v48.1h39.7v-0.4h0.6c0.1,0.1,0.2,0.2,0.2,0.4h-0.8v91.6h43.9v136.7h-42.5c-1.6-6.9-0.6-14.2-0.8-21.3c-0.2-7.3,0-14.6,0-23
	h-39.4v0.1h-0.5v44.2h-43.5v47.5h0.3v0.4h43.2c0,8.4-0.1,15.7,0,23c0.1,5.8-0.5,11.8,0.1,17.5v4.8h39.4v94.3h44.2v-91.3h-0.3v-0.7
	c-0.1,0.1-0.2,0.1-0.3,0.1V737h-42.9v-44h43.2v44h0.3v4.3h44.5v-48.2h-1.8V693v-0.2h1.8v0.2h38.1v92.2h43.8v47.3h0.9v0.1h38.5v-95.2
	h-6.5c-3.7,0.3-7.4,0.1-11.1,0h-19.8V693h37.4v-47.8h43.2c0-14.8,0-29.6-0.2-44.6c-14-0.3-28.2-0.3-42.7-0.3v-90.9h42.5
	c0,30.5,0,61,0.2,91.2c12.9,0.3,25.7,0.3,39.4,0.3c1.6,7,0.6,14.2,0.7,21.3c0.2,7.3,0,14.6,0,23h-39.9V693h39.9v43.6h0.1v0.8
	c0,0,0,0-0.1,0v-0.8h-40.1c-0.1,0-0.2,0-0.3,0.1V785h40.5v0.2h-0.2v47.4h43.4v-47.2h-0.4v-0.2h40.2v26.5h-0.2v20.9h24.3l0,0h59.3
	c0-16,0-31.7-0.2-47.7c-12.8-0.2-25.9-0.2-39.3-0.2v-46.6h39.1c0,15.7,0,31.4,0.2,46.8c14.7,0.2,29.1,0.2,43.5,0.2v-47.5h39.6V693
	h43.6v-47.4c6.3-0.1,12.7-0.3,19.1-0.4c6.6-0.1,13.1,0,20.8,0V693h43.2c0,7.1,0.1,14.2,0.1,21.4c0,6.2,0,12.3,0,18.5h-43.2v-9.4
	c-0.2-10.2,0-20.3,0-30.5h-39.9v43c-0.6,0.5-1.2,1-1.8,1.6h-41.6v47.7h-39.8v47.5h161.7l0,0h5.4v-47h39v41.4
	c0.1,0.1,0.1,0.1,0.1,0.2v5.8h43.9v-47.8c7.1,0,13.6,0,20.1,0c6.4-0.1,12.9-0.3,18.7-0.4V601h-38.7v-48h38.6V368.5H1420v-48h38.5
	c1.9-41,1.3-122.2-1.1-136.1c-12.8,0-25.5,0-38.5,0.2c-0.2,14.3-0.2,28.9-0.2,43.8h-42.1v-43.5c14.2,0,28.4,0,42.3-0.2
	c0.2-16,0.2-31.8,0.2-48c7.7,0,14.3,0,20.8,0c6.4-0.1,12.8-0.2,18.5-0.3V92.1h-38.6V44.2h38.5V0.5h-122.7V44H1335.5z M1042.3,693.5
	v43.2h-39.5v0.2c-0.1,0-0.1,0-0.2,0v-0.2h0.2v-43.2H1042.3z M1375.2,601.6v43.2c14.7,1,28.8,1,43.4,1v46.6h-42.4v-46.6
	c-13.5-1-26.6-1-40-1v-43.2H1375.2z M1208.7,601.5c1.5,6.3,0.5,13.6,0.6,20.7c0.2,7.3,0,14.6,0,22.5h-39.6v-43.2H1208.7z
	 M1043.1,228.3c0-6.5-0.1-13.7-0.1-20.8c0-7.3,0-14.6,0-22.4h43v43.2H1043.1z M1043,277.4h42.2c0,14.2,0.1,28.6-0.2,43
	c0,1.2-2.2,2.4-3.5,3.7H1046c-1-3.4-2.7-6.8-2.8-10.3C1042.8,301.9,1043,290.1,1043,277.4z M959.3,319.8h48.4v50.5h-48.4V319.8z
	 M922.5,368.3h-45.6v-48.7h45.6V368.3z M666,327v-55.2h43.8V327H666z M669.9,413.3v-44.5H710v-41.5h43.5c0,7,0,13.5,0,20
	c0,7.2,0,14.3-0.1,21.5h-43.2c0,14.8,0,29.6,0.2,44.5H669.9z M710.8,460.3c0-14.2,0-28.2-0.2-42.2h43v4.1c0.2,2.8,0.1,5.7,0,8.7
	v13.4c0,1.8,0,3.7,0,5.5c0,3.4,0,6.9,0,10.5H710.8z M1043.7,600.5v-46.9h42.1c1-15,1-29.6,1-44.5h38.7v43.5h-38.7
	c-1,16.2-1,31.9-1,47.9H1043.7z M1335.1,509.1v43.5H1293c-0.9,16.2-0.9,31.9-0.9,47.9h-38.8v-46.9h38.8c0.9-15.1,0.9-29.6,0.9-44.5
	L1335.1,509.1L1335.1,509.1z M1251.9,461.3v46.9h-42.1c-0.9,15-0.9,29.6-0.9,44.5h-38.7v-43.5h38.7c0.9-16.2,0.9-31.9,0.9-47.9
	L1251.9,461.3L1251.9,461.3z M875.9,461h-39.1v47.8h-8c-0.8,0.1-1.6,0.1-2.5,0.1c-1.3-0.1-2.7-0.1-4-0.1h-28.7l0,0l0,0V601
	c14.2,0.5,28.4,0.5,42.9,0.5v43.2H794v-43.2c-12.5-0.5-24.6-0.5-37.1-0.5v-92.2h36.6V461h43.2l0,0h-0.3v-43.7h-44v-48.8h44.4v45.7
	h41.8v46.7L875.9,461L875.9,461z M959.3,460.6h-38.7v-0.1h-0.9v-48H961v48L959.3,460.6L959.3,460.6z M1043.6,460.7v-44
	c6.3,0,13.3-0.1,20.3-0.1c7.1,0,14.2,0,21.9,0v44.1H1043.6z M1375,369.2v46.9h-38.8c-0.9,15.1-0.9,29.6-0.9,44.5h-42.1v-43.5h42.1
	c0.9-16.2,0.9-31.9,0.9-47.9H1375z M1208.8,368.8c14.7,0.5,28.9,0.5,43.5,0.5v46.6h-40.1c-0.8-2.9-2.6-6.3-2.7-9.8
	c-0.4-12.4-0.1-24.8-0.1-36.8c-5-0.2-10.1-0.3-15.2-0.3h-25.3v-50.8h39.9v1.8l0,0L1208.8,368.8L1208.8,368.8z M1376.5,275.5v49.7
	h-40c-0.1,0.1-0.2,0.3-0.3,0.4v-0.4h-0.7v-49.7H1376.5z M1291.8,184.8v43.5H1253v48.3c12.9,0.5,25.9,0.5,39.1,0.5v46.6H1253v-46.3
	h-43.8v-49.1h43.3c0.5-14.4,0.5-28.8,0.5-43.5L1291.8,184.8L1291.8,184.8z M1335.5,92.8V136h-42.9c0-6.5-0.1-13.7-0.1-20.8
	c0-7.3,0-14.6,0-22.4C1292.5,92.8,1335.5,92.8,1335.5,92.8z M1251.9,92.6v43.5h-42.1c-0.9,16.2-0.9,31.9-0.9,47.9h-38.8v-46.9h38.8
	c0.9-15.1,0.9-29.6,0.9-44.5C1209.8,92.6,1251.9,92.6,1251.9,92.6z M1168.7,44.9v44.5c-2.8,0.8-6.1,2.6-9.5,2.8
	c-11,0.4-22,0.1-32.5,0.1c-0.4,14.2-0.4,28.4-0.4,44c-6.3,0.1-12.7,0.3-19.1,0.4c-6.6,0.1-13.1,0-20.8,0V92.3
	c-14.2-0.5-28.4-0.5-42.9-0.5V45.2h42.4v46.6c13.8,0.5,27.1,0.5,40.4,0.5c0.4-15.7,0.4-31.3,0.4-47.4H1168.7z"/>
<rect x="334.4" y="645.2" class="st0" width="43.3" height="47.7"/>
<rect x="334.2" y="645.2" class="st0" width="0.2" height="47.7"/>
<path class="st0" d="M429.7,645.2h0.7l0,0C430.2,645.2,430,645.2,429.7,645.2z"/>
<rect x="334.6" y="136.4" class="st0" width="43.9" height="48"/>
<polygon class="st0" points="416,44.7 441.4,44.7 441.4,44.8 460.2,44.8 460.2,92.3 441.4,92.3 441.4,92.3 416,92.3 "/>
<rect x="543.9" y="406.3" class="st0" width="13.2" height="10.4"/>
<rect x="584.2" y="452.1" class="st0" width="8.3" height="8.1"/>
<path class="st0" d="M919.9,157.5v5.8l0,0C919.9,161.3,919.9,159.4,919.9,157.5z"/>
</svg>
